<?xml version="1.0" encoding="UTF-8"?>
<svg id="Layer_1" data-name="Layer 1" xmlns="http://www.w3.org/2000/svg" viewBox="0 0 1024 1024">
  <defs>
    <style>
      .cls-1 {
        fill: none;
        stroke: #000;
        stroke-linecap: round;
        stroke-linejoin: round;
        stroke-width: 12px;
      }
    </style>
  </defs>
  <ellipse class="cls-1" cx="659.18" cy="645.56" rx="41" ry="52.67"/>
  <ellipse class="cls-1" cx="356.42" cy="645.56" rx="41" ry="52.67"/>
  <path d="M818.24,369.81c-3.51,11.08-5.43,22.07-11.03,32.47-5.24,9.74-11.86,18.92-20.19,26.26s-18.94,12.92-29.25,16c-10.12,3.02-22.23,3.41-31.51-2.19-3.32-2.01-8.04-.2-9.96,2.83-2.25,3.56-1.38,7.29,1.36,10.27,10.97,11.94,27.49,12.93,42.35,9.12,6.95-1.78,13.57-4.85,19.8-8.38,6.49-3.68,11.5-8.41,16.82-13.57,9.66-9.37,17.79-21.22,22.13-34,4.06-11.96,7.32-26.81,2.94-39.08-.66-1.85-2.96-1.32-3.46,.28h0Z"/>
  <path d="M732.13,368.62c-3.52,5.1-2.6,11.9-3.06,17.84-.5,6.49-.98,13.03-1.79,19.48-1.55,12.33-4.58,25.45-11.69,35.86-14.98,21.91-46.07,28.54-71.01,28.57-15.43,.02-31.06-2.48-45.72-7.22-3.88-1.25-5.46,4.24-3.14,6.56,23.32,23.36,60.27,22.91,89.75,13.32,14.88-4.84,29.43-12.79,39.51-25.02,9.55-11.58,14.8-26.06,16.27-40.89,.86-8.66,1.08-17.53,.07-26.18-.83-7.12-.59-17.03-5.63-22.58-.85-.93-2.84-.78-3.55,.25h0Z"/>
  <path d="M546.39,589.99c1.42-8.07,2.32-16.13,4.01-24.17,1.61-7.69,4.02-15.03,6.34-22.52,4.7-15.21,12.07-29.89,21.59-42.66,4.8-6.43,10.15-12.46,16.03-17.93,1.29-1.2,2.8-2.99,4.37-3.79,2-1.03,.97-1.18,3.15,.14,3.41,2.07,6.82,3.95,10.57,5.36,15.79,5.94,35.27,6.61,49.91-2.65,6.42-4.06,1.01-13.11-5.7-11.3-13.45,3.63-26.79,5.29-39.95-.52-6.19-2.74-11.63-8.11-18.86-7.05-6.85,1-12.53,7.32-17.29,11.9-9.81,9.43-18.24,20.46-24.91,32.32s-12.39,25.55-14.35,38.91c-2.11,14.34-2.72,30.29,1.98,44.2,.52,1.53,2.84,1.33,3.12-.25h0Z"/>
  <path d="M810.71,431.53c19.64,3.48,40.59-5.53,55.52-17.96,16.96-14.12,28.95-34.79,31.17-56.94,4.28-42.64-21.64-92.15-68.35-95.56-21.94-1.6-47.1,7.13-56.25,28.75-2.88,6.81,5.32,11.6,10.42,6.84,22.85-21.3,58.48-19.71,78.28,4.44,10.66,13,15.99,29.58,16.85,46.23,1,19.14-4.03,36.77-16.86,51.18s-31.19,21.94-50.44,25.89c-3.74,.77-4.67,6.35-.34,7.12h0Z"/>
  <path d="M805.48,268.23c16.29-25.01,6.69-59.69-9.62-82.18-18.47-25.45-47.67-39.46-78.83-40.48-16.75-.55-35.54,4.96-48.52,15.72-4.77,3.96-1.35,11.77,4.97,9.87,24.33-7.3,51.01-10.13,75.01,.16,23.31,9.99,39.83,30.8,46.7,54.99,3.83,13.48,5.4,27.44,7.04,41.33,.21,1.82,2.35,1.96,3.24,.6h0Z"/>
  <path d="M698.88,237.18c8.03-10.64,1.32-28.25-2.75-39.47-4.86-13.37-13.09-25.45-22.32-36.2-19.57-22.8-44.56-40.59-71.74-53.25-55.11-25.67-119.16-28.4-176.3-7.7-15.71,5.69-30.66,13.1-44.59,22.32-7.03,4.65-13.74,9.65-20.02,15.28-6.38,5.72-11.51,11.87-16.85,18.53-4.11,5.13,2.25,13.19,7.92,8.94s11.18-7.54,16.72-11.37,11.26-7.63,17.02-11.21c11.49-7.15,23.68-13.25,36.17-18.43,24.91-10.35,51.42-16.06,78.4-16.55,54.41-.99,108.98,20.13,148.96,56.9,11.05,10.16,20,21.62,27.69,34.48,3.68,6.15,6.83,12.26,9.13,19.08,2.28,6.76,3.37,13.68,8.39,18.96,1.05,1.11,3.29,.9,4.18-.29h0Z"/>
  <path d="M413,211.61c-2.93-11.26-8.36-20.06-16.78-28.13-7.73-7.41-16.64-13.7-26.1-18.72-19.58-10.4-42.17-15.01-64.21-12.21-46.33,5.9-85.2,39.32-96.64,84.72-6.49,25.78-3.84,53.46,9.95,76.4,3.77,6.27,13.3,1.01,11.14-5.62-12.43-38.13-7.18-80.56,22-109.57,26.76-26.61,68.39-35.1,103.38-21.03,9.98,4.02,19.25,9.47,27.49,16.4,4.16,3.5,8.25,7.21,12.05,11.1s8.04,6.94,11.96,10.56c2.83,2.61,6.59-.66,5.75-3.91h0Z"/>
  <path d="M600.24,386.4c-4.95,8.02-6.99,18.14-10.95,26.76-4.07,8.85-8.91,17.33-15.32,24.7-11.48,13.22-26.58,22.64-43.9,25.74-5.56,1-7.22,10.51-.52,10.86,20.68,1.07,40.33-10.05,52.64-26.39,6.63-8.79,11.71-18.72,15.13-29.17,3.19-9.76,6.97-21.82,5.15-32.1-.21-1.18-1.6-1.41-2.22-.41h0Z"/>
  <path d="M407.02,465.63c12.48,20.73,26.5,40.87,36.15,63.2,4.76,11.02,8.48,22.5,11.09,34.22,2.61,11.72,3.2,25.53,9.46,35.9,2.37,3.92,8.19,3,10.1-.75,6-11.78,2.79-27.78-.08-40.14s-7.37-25.27-12.94-37.14c-11.2-23.87-27.25-46.17-51.07-58.44-1.99-1.03-3.77,1.41-2.72,3.15h0Z"/>
  <path d="M436.96,422.49c-5.93,12.68-12.17,25.41-22.2,35.4-9.71,9.67-21.64,17.13-35.2,19.84-29.87,5.97-61.49-9.5-78.89-33.66-10.24-14.21-16.02-30.57-21.28-47.11-2.72-8.55-14.05-4.78-14.29,3.05-1.13,36.75,24.36,72.85,56.56,88.91,33,16.46,74.97,10.61,101.02-15.64,12.6-12.7,22.21-31.6,19.91-49.76-.36-2.84-4.34-3.8-5.63-1.04h0Z"/>
  <path d="M292.93,451.37c-5.39-2.91-9.73-3.3-15.76-3.9s-11.6-1.62-17.25-3.14c-10.82-2.92-21.53-7.76-30.4-14.65-16.31-12.64-27.43-32.13-30.58-52.48-1.02-6.59-11.68-8.13-12.46-.6-2.68,25.83,10.71,50.31,31.51,65.17,11.08,7.91,23.59,13.44,36.95,16.13,11.89,2.4,28.09,5.3,38.29-2.5,1.44-1.1,1.3-3.17-.3-4.04h0Z"/>
  <path d="M208.74,421.84c-8.38-.09-16.1-1.04-24.1-3.72-7.87-2.64-15.08-7.18-21.64-12.18-13.07-9.96-25.26-21.62-33.38-36.04-7.7-13.68-10.49-30.33-6.34-45.57s17.47-26.79,31.87-33.11c8.74-3.83,17.93-6.09,27.48-6.36,9.34-.26,18.31,2.43,27.57,2.6,5.22,.1,6.01-6.56,3.15-9.6-7.08-7.51-19.06-9.49-28.91-9.73-10.04-.24-20.23,1.62-29.69,4.94-19.16,6.73-37.67,20.19-45.56,39.45-16.42,40.09,8.25,81.71,40.84,104.7,9.5,6.7,19.46,12.44,30.72,15.61,10.13,2.86,22.93,1.69,30.18-6.7,1.59-1.84,0-4.28-2.18-4.31h0Z"/>
  <path d="M84.71,145.03c5.04-2.3,7.4-9.51,9.93-14.12,3.38-6.18,6.62-12.42,9.98-18.61,3.22-5.93,6.64-11.74,10.07-17.55,1.87-3.16,3.68-6.36,5.57-9.52,1.19-1.99,2.56-5.89,4.5-7.2l-4.01,1.41,.06-.03-4.04-1.94c2.06,1.52,3.6,5.13,5.07,7.45,2.23,3.52,4.45,7.04,6.68,10.56,4.26,6.73,8.08,13.8,14.01,19.21,5.06,4.62,11.96-1.13,10.35-7.03-1.78-6.51-5.55-12.17-8.97-17.95s-6.86-11.6-10.29-17.4c-3.21-5.42-7-10.74-14.14-9.63-6.48,1-9.22,7.17-12.07,12.32-6.08,11-11.33,22.34-16.09,33.96-2.41,5.87-4.58,11.77-6.45,17.83-1.5,4.87-4.94,12-2.76,16.97,.42,.95,1.56,1.75,2.64,1.26h0Z"/>
  <path d="M122.92,133.84c4.77-.97,8.52-4.45,12.06-7.64,4.15-3.74,8.78-6.87,12.95-10.55,2.56-2.26,3.71-5.56,1.67-8.66-.29-.44-.71-.83-1.07-1.21-1.88-1.99-5.45-1.88-7.59-.46-4.73,3.15-8.95,7.5-12.92,11.54-3.49,3.56-7.9,8.28-8.25,13.51-.11,1.68,1.09,3.9,3.16,3.48h0Z"/>
  <path d="M122.48,131.68c5.17,7.5,12.63,12.95,16.26,21.52,3.58,8.45,2.43,16.54,1.66,25.37-.59,6.7,7.53,9.24,11.02,3.56,5.83-9.5,4.3-22.71-.05-32.54-4.54-10.25-13.65-19.21-23.91-23.69-3.51-1.53-7.27,2.46-4.98,5.78h0Z"/>
  <path d="M149.66,179.54c-6.8-6.21-21.37-2.58-29.5-1.22-5.18,.86-10.28,1.96-15.31,3.48s-10.9,2.99-15.35,6.09c-5.41,3.77-2.59,13.39,4.4,12.49,4.85-.63,9.42-2.72,14.1-4.09,5-1.47,10.07-2.84,15.14-4.06s9.7-1.86,14.58-2.74c4.32-.78,9.24-1.52,12.31-4.87,1.33-1.46,1.05-3.79-.35-5.07h0Z"/>
  <path d="M94.75,195.9c1.49-8.56,.41-18.36-.65-26.91-.54-4.33-.89-8.72-1.84-12.98-1.12-4.99-3-9.63-4.06-14.67-.94-4.51-7.66-4.27-7.34,.61,.29,4.6-.07,9.02-.07,13.59,0,4.83,1.03,9.65,1.73,14.41,1.27,8.6,2.78,18.51,6.51,26.41,1.19,2.52,5.17,2.68,5.72-.46h0Z"/>
  <path d="M24.12,417.35c7.18-3.18,13.07-9.04,19.54-13.5,6.89-4.75,14.05-9.07,21.43-13.02l-9.06-1.75c7.54,14.45,15.43,29.52,25.66,42.29,3.63,4.53,11.89,1.24,9.55-4.81-6.08-15.72-15.42-30.6-24.4-44.79-1.87-2.96-6.23-3.7-9.06-1.75-7.07,4.89-13.87,10.13-20.33,15.81-5.95,5.23-13.03,10.73-16.53,17.94-.93,1.92,1.1,4.52,3.22,3.58h0Z"/>
  <path d="M22.51,417.41c7.59,17.83,16.83,35.11,25.93,52.22s18.94,34.48,28.58,51.62c2.39,4.25,9.97,2.68,10.42-2.21,2.26-24.17,4.53-48.34,6.76-72.52,.45-4.89,1.15-9.9-.14-14.71s-4.18-8.28-6.93-12.04c-6.99-9.54-13.32-19.7-21.26-28.48-4.05-4.47-10.1,2-7.47,6.62,5.31,9.31,12.36,17.66,18.64,26.33,2.46,3.39,5.9,7.08,6.6,11.33,.82,5.04-.6,10.88-1.09,15.92-2.14,21.84-4.29,43.67-6.43,65.51,3.47-.74,6.95-1.47,10.42-2.21-9.43-16.89-18.65-33.9-27.96-50.85-9.27-16.87-18.44-33.98-28.75-50.23-2.48-3.9-9.18-.68-7.32,3.69h0Z"/>
  <path d="M852.48,207.55c2.29-6.53,3.19-13.08,4.24-19.9,.46-3,1.48-6.62,1.17-9.66-.14-1.39,.9-2.31-.47-1.06,.89-.81,3.03-.95,4.15-1.29,6.58-1.99,13.26-3.8,19.77-6.01,6.15-2.08,13.12-4,17.59-8.93,2.02-2.23,.52-5.55-2.18-6.19-7.21-1.7-15.69,1.52-22.57,3.67s-15.52,3.89-22.25,7.33c-6.31,3.22-6.6,9.41-6.85,15.78-.32,8.31-.6,16.9,.91,25.08,.54,2.92,5.24,4.75,6.48,1.19h0Z"/>
  <path d="M899.02,161.3c18.18-22.19,34.32-46.35,49.76-70.53-2.4,1.23-4.79,2.46-7.19,3.68,4.16,.5,8.25,1.3,12.17,2.82s6.55,3.4,10.9,2.14c2.78-.8,3.85-3.99,3.13-6.53-2.28-8.06-16.69-10.49-23.84-11.55-2.1-.31-4.92,.29-6.21,2.19-16.11,23.73-31.92,48.11-45.12,73.58-2,3.85,3.63,7.58,6.4,4.2h0Z"/>
  <path d="M958.29,97.59c2.63,7.22,5.26,14.45,7.89,21.67,1.32,3.61,2.71,7.19,4.11,10.78,1.07,2.73,4.11,7.34,3.64,10.29-.21,1.35-2.63,3.4-3.43,4.39-1.24,1.55-2.47,3.1-3.71,4.65-2.48,3.12-4.76,6.36-7.05,9.61-4.59,6.5-9.2,12.99-13.81,19.48-3.75,5.27,3.33,11.79,7.73,6.72,6.06-6.98,12.13-13.94,18.22-20.89,3.05-3.49,5.86-7.15,8.7-10.81,2.49-3.21,5.6-6.57,6.42-10.69s-.74-8-2.24-11.74c-1.68-4.16-3.32-8.34-5.07-12.48-3.49-8.28-7.15-16.5-10.73-24.75-2.87-6.62-13.2-3.16-10.68,3.76h0Z"/>
  <path d="M952.83,181.77c-6.55-7.98-17.82-6.1-26.1-1.88-9.19,4.68-15.57,13.95-25.43,17.35-6.59,2.27-3.03,12.31,3.59,10.19,8.16-2.62,14.12-8.29,20.56-13.65s13.4-8.65,21.83-5.56c3.65,1.33,8.61-2.71,5.55-6.44h0Z"/>
  <path d="M903.93,200.33c-14.09-14.21-39.87-11.05-54.37,.55-5.65,4.52,.36,13.73,6.37,9.41,6.41-4.6,14.23-7.5,22.12-8.08,8.08-.6,15.57,1.43,23.25,3.58,3.25,.91,4.59-3.49,2.62-5.47h0Z"/>
  <path d="M923.74,392.9c-9.98,28.21-12.2,58.86-14.67,88.49-.76,9.1-.33,25.4,13.36,23.06,1.3-.22,3.19-.71,4.26-1.56l1.1-.56c-2.25-.99-2.79-.68-1.61,.94-.05,1.37,1.73,3.9,2.24,5.12,.72,1.72,1.4,3.45,2.05,5.2,2.6,6.95,5,14.04,7.85,20.89,2.18,5.23,10.04,3.76,9.76-2.09-.33-6.83-1.87-14.14-4.12-20.6-2.08-5.97-4.3-13.19-8.07-18.34-3.23-4.42-9.8-5.92-14.42-2.6-.45,.28-.93,.52-1.42,.73-1.09,.39-.43,.66,1.98,.8,.06-.06-.59-1.88-.65-2.21-.47-2.74,.04-5.75,.21-8.48,1.74-29.08,4.8-57.7,9.43-86.45,.66-4.11-5.78-6.61-7.29-2.35h0Z"/>
  <path d="M946.33,536.96c5.86-7.97,11.15-16.3,16.55-24.58,.31-.47,4.09-5.75,1.41-4.33,1.3-.69,5.05,.19,6.53,.26,4.77,.22,9.51,.46,14.09-1.11s5.2-8.58,.56-10.44c-5.34-2.15-11.02-1.98-16.69-2.03s-9.85-.04-13.16,4.95c-3.1,4.66-5.34,10.15-7.9,15.13-2.98,5.77-5.88,11.53-8.54,17.46-1.91,4.26,4.15,8.76,7.14,4.69h0Z"/>
  <path d="M1001.41,402.39c-3.55,7.33-5.15,15.83-7.11,23.7-2.06,8.3-4.22,16.58-6.19,24.9-1.97,8.31-3.66,16.68-5.47,25.03-1.78,8.17-4.54,16.75-5.18,25.08-.49,6.43,9.26,11.07,11.86,3.83,2.83-7.86,3.93-16.52,5.64-24.69,1.82-8.67,3.76-17.33,5.45-26.03s3.03-16.8,4.53-25.19,3.54-16.91,3.29-25.36c-.11-3.65-5.32-4.35-6.82-1.26h0Z"/>
  <path d="M974.94,422.21c10.97-6.12,21.21-13.63,31.65-20.61l-6.18-4.02c-3.95,16.9-7.9,33.8-11.85,50.7-1.9,8.13-3.87,16.23-5.77,24.36-1.02,4.37-2.07,8.73-3.14,13.09-.95,3.87-2.37,7.99-1.63,11.96,.33,1.8,2.44,2.68,3.78,1.24,2.55-2.75,3.52-6.51,4.63-10.04,1.35-4.3,2.67-8.62,3.97-12.94,2.5-8.33,4.78-16.7,6.95-25.12,4.41-17.18,8.02-34.35,10.94-51.84,.54-3.23-3.36-6.17-6.18-4.02-10.16,7.77-20.73,15.2-30.24,23.76-2.09,1.88,.93,4.66,3.07,3.47h0Z"/>
  <path d="M923.69,394.97c.45,4.03,5.34,7.48,8.46,9.66,4.29,3,8.84,5.69,13.45,8.18s9.71,4.99,14.86,6.81c4.81,1.71,9.53,3.78,14.6,2.03,1.66-.58,2.71-2.97,1.47-4.46-3.19-3.84-7.3-4.74-11.82-6.43-4.85-1.81-9.71-3.6-14.44-5.69-4.46-1.97-8.82-4.16-13.07-6.55-3.29-1.86-8.64-5.47-12.51-4.72-.56,.11-1.06,.53-.99,1.16h0Z"/>
  <path d="M118.03,571.11c6.32,.9,12.61,1.97,18.86,3.28,5.3,1.12,12,4.21,16.78,.61,2.09-1.57,2.52-4.13,1.23-6.36-3.12-5.4-11.42-4.98-16.95-5.54-6.47-.66-12.97-1.06-19.47-1.31-5.33-.2-5.66,8.57-.44,9.31h0Z"/>
  <path d="M145.62,570.34c.12,15.06,2.16,30.51,7.11,44.8,2.4,6.93,5.89,13.64,9.46,20.03,3.61,6.44,7.82,14.79,13.71,19.38,5,3.9,13.79-.75,10.92-7.42s-7.8-11.88-11.31-17.92c-3.55-6.09-6.32-12.43-9.16-18.87-5.77-13.09-10.21-26.5-12.32-40.69-.8-5.39-8.46-4.75-8.42,.69h0Z"/>
  <path d="M181.71,654.14h.33c2.72-.09,4.36-2.31,5.09-4.63,2.14-6.88,2.39-14.15,2.94-21.31s.75-13.68,.82-20.54c.14-13.82,.69-28.23-2.37-41.77-1.38-6.12-11.49-5.06-12.12,.98-1.41,13.54,.04,27.41-.13,41.02-.08,6.55-.27,13.09-.39,19.64-.12,7.15-.89,14.36,.07,21.45,.34,2.52,2.07,4.59,4.62,5.09,.37,.08,.74,.11,1.13,.08h0Z"/>
  <path d="M209.1,553.25c-7.84,5.81-15.01,9.83-25.13,8.37-7.08-1.03-9.02,9.51-1.97,10.97,12.1,2.5,27.46-2.47,33.28-14.01,1.85-3.67-2.79-7.83-6.18-5.32h0Z"/>
  <path d="M208.35,557.45c-1.37,7.95,7.36,17.78,11.56,23.9,5.62,8.2,11.89,15.71,18.55,23.08,2.43,2.68,7.2,1.8,9.38-.65,2.62-2.95,1.74-6.73-.65-9.38-6.26-6.93-12.35-14.09-18.27-21.31-4.62-5.63-9.91-15.9-17.32-17.88-1.45-.39-3,.86-3.23,2.25h0Z"/>
  <path d="M268.22,588.28c-7.89,1.12-16.28,2.08-23.85,4.64-5.94,2.01-4.14,12,2.35,10.98,7.97-1.26,15.8-4.21,23.37-6.91,4.68-1.67,3.31-9.45-1.86-8.71h0Z"/>
  <path d="M264.99,591.94c.29-.49,.31-.44,.06,.17-.2,.48-.27,.99-.21,1.51,.05,.81,.46,1.54,.8,2.25,.8,1.7,1.61,3.24,2.78,4.71,2.22,2.8,4.6,5.99,7.44,8.18,2,1.54,4.75,1.7,6.67-.06,1.68-1.54,2.54-4.68,.87-6.62-2.3-2.67-5.04-4.93-7.46-7.51-1.13-1.2-2.23-2.26-3.51-3.31-.62-.5-1.24-1.17-1.98-1.5-.27-.12-2.5-.76-1.73-.39-1.73-.81-3.97,.56-3.72,2.56h0Z"/>
  <path d="M342.27,533.82c-6.31,4.28-11.67,10.06-17.12,15.35-5.71,5.55-11.46,11.05-17.04,16.73s-11.14,11.34-16.72,17.01c-4.93,5.02-12.37,10.31-14.24,17.26-1.03,3.81,3.23,6.5,6.51,5.53,6.61-1.95,12.05-10.15,16.72-14.98,5.53-5.71,11.05-11.42,16.58-17.13s10.86-11.58,16.25-17.42c5.16-5.59,10.58-11.06,14.72-17.48,2.17-3.37-2.71-6.86-5.65-4.87h0Z"/>
  <path d="M382.73,526.33c-3.96,1.32-7.49,3.33-11.17,5.29-3.7,1.97-7.69,3.73-11.12,6.14-4.84,3.4-.98,12.07,4.81,9.55,3.81-1.66,7.32-3.99,10.89-6.11,3.66-2.17,7.34-4.16,10.6-6.91,3.74-3.15,1.12-9.67-4.01-7.96h0Z"/>
  <path d="M343.84,540.47c6.47,1.39,12.38,2.39,18.35,5.49,6.68,3.46,11.94-7.5,5.05-10.53s-15.27-5.45-22.95-4.21c-5.12,.83-5.82,8.1-.44,9.26h0Z"/>
  <path d="M378.88,531.56c1.19,7.33,3.34,14.28,5.78,21.29,2.41,6.93,4.78,14.38,8.57,20.69,4.07,6.77,14.77,1.12,12.18-6.14-2.29-6.44-5.87-12.53-8.52-18.86-2.67-6.37-4.93-12.87-7.72-19.18-2.27-5.12-11.32-4.15-10.28,2.2h0Z"/>
  <path d="M423.31,565.66c-1.46-4.3-7.01-4.31-10.82-4.09-4.52,.25-9.99,.65-14.16,2.47-6.06,2.64-4.63,12.24,2.49,11.68,4.79-.38,10.03-1.91,14.75-2.95,3.27-.72,9.32-2.44,7.73-7.1h0Z"/>
  <path d="M413.09,567.03c2.72,8.43,6.32,16.59,9.98,24.65,1.77,3.9,3.63,7.76,5.44,11.65s3.38,8.64,6.23,11.98c4.62,5.42,12.54,1.46,10.93-5.51-.99-4.28-3.83-8.28-5.92-12.14s-4.04-7.56-6.12-11.3c-4.29-7.75-8.71-15.49-13.86-22.7-2.5-3.49-8.01-.74-6.68,3.37h0Z"/>
  <path d="M469.69,593.65c-6.11-.77-12.33,3.62-17.77,6.09-5.72,2.61-12.94,4.35-16.09,10.14-1.72,3.17,.58,7.52,4.1,8.02,6.43,.91,12.22-3.91,17.65-6.91,5.29-2.94,12.44-5.28,15.49-10.72,1.44-2.57-.5-6.25-3.39-6.62h0Z"/>
  <path d="M462.82,601.6c3.07,4.89,7.9,7.62,12.55,10.84s9.56,6.59,14.45,9.72c2.97,1.9,7.22-.18,8.63-3.04,1.7-3.45-.11-6.76-3.04-8.63-4.69-2.99-9.48-5.8-14.27-8.61s-8.88-5.69-14.34-6.39c-3.4-.43-5.82,3.16-3.97,6.11h0Z"/>
  <path d="M525.91,584.74l-.28-.24c-1.22-1.06-3.1-1.5-4.63-.88-6.18,2.49-11.76,7.36-16.86,11.57-5.4,4.47-10.65,9.12-15.77,13.91-6.33,5.92,4.2,15.42,10.31,8.96,4.42-4.68,8.96-9.23,13.65-13.63s10.09-8.33,13.75-13.33c.93-1.28,1.6-3.06,.88-4.63-.29-.63-.53-1.27-1.07-1.74h0Z"/>
  <path d="M557.38,592.03c-5.84-3.78-12.99-5.6-19.61-7.65-5.91-1.83-13.18-5.63-18.23-.56-1.13,1.13-1.44,3.16-.88,4.62,2.45,6.34,10.37,5.93,16.15,7.17,6.65,1.43,13.24,3.79,20.01,4.39,4.93,.43,6.57-5.38,2.57-7.97h0Z"/>
  <path d="M658.57,523.25c-9.18,4.36-17.42,10-25.98,15.46s-17.87,11.38-26.8,17.07c-17.59,11.21-35.17,22.4-52.72,33.65-6.91,4.43,.1,14.32,7.05,10.42,18.24-10.24,36.04-20.99,53.59-32.37,8.62-5.59,17.13-11.32,25.58-17.16,8.62-5.96,17.23-11.66,24.84-18.89,3.64-3.45-1.02-10.35-5.57-8.19h0Z"/>
  <path d="M684.46,540.41c-3.2-7.91-13.39-11.91-20.83-14.76s-12.44,8.22-5.2,10.85c-1.11-2.16-2.22-4.33-3.32-6.49-.73,2.28,1.1,5.68,3.32,6.49,3.79,1.38,7.47,3,11.1,4.75s6.77,3.81,10.8,4.02c2.56,.13,5.28-2.01,4.13-4.85h0Z"/>
  <path d="M704.14,515.34c-4.75,2.86-8.9,6.3-13.38,9.55s-9.37,5.88-13.73,9.21c-6.5,4.97-.02,13.81,6.95,10.27,5.09-2.59,9.73-6.55,14.14-10.16s8.65-7.31,12.05-12.08c2.97-4.16-1.4-9.59-6.03-6.8h0Z"/>
  <path d="M703.34,524.31c9.45,9.45,18.81,19.07,27.72,29.04,5.08,5.68,13.4-3.52,7.9-9.09-9.41-9.53-19.18-18.48-29.73-26.73-4.58-3.59-9.97,2.71-5.9,6.78h0Z"/>
  <path d="M757.16,527.1c-5.05,2.14-9.16,5.92-13.47,9.24s-9.95,6.29-12.18,11.21c-2.08,4.59,2.3,9.18,6.99,7.78,5.13-1.53,8.95-6.89,12.67-10.56s8.16-7.41,10.97-12.13c1.77-2.97-1.87-6.86-4.98-5.55h0Z"/>
  <path d="M754.85,533.27c5.08,5.3,14.22,7.82,20.84,10.73,7.42,3.26,14.78,6.67,22.08,10.21,14.6,7.1,28.83,14.92,43.37,22.12,8.53,4.23,14.24-8.43,6.3-13.15-14.17-8.42-29.45-15.3-44.64-21.63-7.5-3.13-15.06-6.11-22.68-8.96-6.86-2.56-15.6-6.86-23.05-6.09-3.51,.36-4.47,4.42-2.22,6.77h0Z"/>
  <path d="M885.11,533.2c-4.19,1.14-7.74,4.35-11.29,6.8s-6.94,5.04-10.34,7.68c-7.05,5.47-14.11,10.94-21.16,16.41-7.41,5.75,.95,17.92,8.15,12.04s14.37-11.73,21.55-17.6c3.53-2.88,6.97-5.81,10.35-8.88s6.87-5.58,8.97-9.5c2.21-4.12-2.27-8.02-6.23-6.94h0Z"/>
  <path d="M881.1,541.78c3.65,10.88,2.78,22.74,2.37,34.05-.34,9.62-1.16,19.23-2.32,28.78-2.33,19.19-5.82,38.2-10.84,56.88-4.95,18.42-11.36,36.42-19.02,53.89-7.94,18.12-17.71,34.85-28.12,51.63-40.7,65.57-101.53,118.91-173.06,148.33-76.44,31.43-162.6,36.84-242.63,16.59-76.68-19.4-145.15-63.86-194.71-125.44-48.59-60.38-78.44-133.55-86.8-210.51-1.03-9.47-1.73-19-2.24-28.52-.43-8.12-14.19-9.18-14.6-.7-3.85,80.83,24.2,162.83,70.11,228.79,47.41,68.11,115.38,121.05,194.3,147.39,82.54,27.55,173.31,28.37,256.17,1.5,78.87-25.58,147.28-77.23,195.15-144.75,23.39-33,41.54-70.07,54.16-108.49,12.65-38.49,19.61-78.32,19.49-118.87-.04-11.77-1.45-23.65-6.74-34.31-3.15-6.35-13.06-3.35-10.68,3.76h0Z"/>
  <path d="M377.3,852.31c-.88,12.54,6.35,21.7,17.05,27.39,13.4,7.13,28.65,6.31,42.96,2.75,16.33-4.06,31.77-10.89,48.48-13.48,16.78-2.6,33.84-2.36,50.53,.83,16.24,3.1,30.8,9.98,46.35,15.26,14.73,5,30.99,7.86,45.58,.77s22.02-22.55,22.5-38.18-6.51-32.19-15.34-45.59c-30.57-46.4-90.89-68.14-144.8-61.92-28.11,3.24-56.12,13.67-78.28,31.5-21.94,17.65-44.02,47-40.24,76.82,1.83,14.41,10.46,28.66,24.47,33.98,15.73,5.97,32.06,.47,47.14-4.82,16.25-5.7,32.58-10.15,49.76-11.9,17.09-1.74,33.8-.62,50.81,1.23,8.41,.91,16.7,2.04,24.97,3.84,2.76,.6,4.12-3.59,1.53-4.75-13.91-6.23-28.19-10.79-43.36-12.66-15.17-1.87-30.7-1.9-45.89-.24-14.98,1.64-29.62,5.04-43.83,10.02-11.87,4.16-27.89,10.76-39.54,2.6-10.63-7.45-12.22-21.79-9.53-33.49,2.91-12.69,10.28-24.44,18.73-34.19,16.39-18.92,39.09-31.33,63.06-37.85,46.16-12.56,99.54-1.44,134.33,32.14,16.54,15.96,35.02,43.5,24.72,67.16-12.84,29.48-49.87,6.55-70.27-.08-29.22-9.49-60.87-10.14-90.56-2.34-24.22,6.37-54.49,26.55-78.06,7.76-4.56-3.63-8.36-7.19-10.49-12.79-.47-1.23-2.66-1.29-2.77,.22h0Z"/>
</svg>