<?xml version="1.0" encoding="UTF-8"?>
<svg id="Layer_1" data-name="Layer 1" xmlns="http://www.w3.org/2000/svg" viewBox="0 0 1024 1024">
  <path d="M492.8,887.03c-5.07-10.6-8.84-21.66-12.62-32.74s-6.56-22.5-8.26-34.02c-3.31-22.49-2.49-45.81,4.54-67.55,12.22-37.81,42.21-70.52,80.71-81.92,23.47-6.95,48.65-6.28,72.82-4.48,25.69,1.91,51.25,4.74,77.05,4.44,49.99-.58,101.2-10.16,146.45-31.94,40.2-19.35,76.07-47.52,102.81-83.41,29.69-39.86,44.78-86.85,47.97-136.25,5.72-88.48-19.15-186.76-96.49-238.88-41.19-27.76-89.75-40.94-138.76-45.88-55.06-5.54-110.84-2.79-166.07-2.07-55.75,.73-111.5,1.46-167.26,2.18-54.39,.71-109.17-.28-163.4,4.48-49.18,4.32-98,15.07-141.81,38.44-39.79,21.22-73.93,53.41-92.97,94.7-20.5,44.46-25.31,96.01-18.59,144.18,6.57,47.09,24.17,92.72,51.63,131.59,26.36,37.3,61.71,67.8,101.92,89.35,19.98,10.71,41.22,18.99,63.09,24.95,21.29,5.81,42.93,7.78,64.68,10.97,19.18,2.82,39.36,7.1,52.54,21.97s18.01,35.82,21.87,54.96c4.29,21.27,8.95,41.4,19.05,60.79,9.55,18.34,22.89,35.16,38.59,48.63,7.57,6.5,16.22,11.93,24.95,16.71,9.16,5.01,18.71,8.14,28.5,11.61,7.44,2.64,12.88-8.51,5.36-11.18-18.91-6.71-35.83-20.07-50.4-33.5s-26.25-29.18-34.37-46.82c-8.58-18.64-11.77-38.19-15.25-58.23-3.7-21.26-7.55-42.37-22.37-59-14.99-16.81-36.56-24.27-58.21-27.97s-42.31-4.95-63.13-10.01c-41.48-10.08-80.52-30.34-112.97-58.03-68.3-58.27-104.84-150.39-93.68-239.71,5.66-45.3,24.48-87.13,59.12-117.56,32.41-28.47,73.36-45.62,115.11-54.92,51.34-11.43,104.62-11.64,156.95-12.4,54.75-.79,109.5-1.58,164.25-2.37,54.5-.79,109.03-2.2,163.54-2.16,49.89,.03,101.17,3.04,148.26,20.99,41.16,15.69,76.08,41.94,99.16,79.79,21.72,35.62,32.17,77.23,35,118.58,3.22,46.99-2.24,95.94-23.92,138.28-18.93,36.95-48.64,67.36-83.49,89.6-39.82,25.42-86.14,39.58-132.93,44.51-24,2.53-48.13,2.67-72.19,.97-25.76-1.82-51.59-4.93-77.46-3.81-23.91,1.04-47.42,6.35-68.41,18.07-17.66,9.86-33.33,24.23-44.75,40.91-25.89,37.82-33.01,84.16-22.08,128.48,2.7,10.95,6.77,21.47,11.71,31.61,4.89,10.04,11.7,19.18,18.82,27.8,2.02,2.45,7.03,.65,5.41-2.73h0Z"/>
  <path d="M133.54,311.91c-4.18,3.53-3.06,12.21-3.26,17.31-.29,7.33-.58,14.66-.86,22-.62,15.65-.73,31.23-.64,46.89s.53,30.51,.98,45.76l.67,22.87c.12,3.98,.23,7.95,.35,11.93s-.25,8.02,1.47,11.65c2.41,5.07,10.53,6.93,13.1,.71,2.9-7.02,1.17-16.11,.99-23.61s-.36-14.59-.53-21.88c-.38-15.58-.7-31.15-1.45-46.72-.74-15.24-1.54-30.41-2.97-45.6-.71-7.58-1.42-15.16-2.13-22.75-.37-3.98-.78-7.9-1.46-11.84-.49-2.83-.35-4.86-2.71-6.64-.41-.31-1.09-.46-1.53-.09h0Z"/>
  <path d="M256,405.3c4.9,3.9,10.97,6.13,15.92,10.09,5.16,4.12,8.92,9.34,10.7,15.74,3.42,12.29-1.39,23.52-11.41,30.86-23.22,17-53.2,20.91-81.21,21.52-16.78,.36-33.42-1.34-50.17-1.63-8.87-.15-9.19,13.83-.73,15.31,17.19,3,34.99,4.22,52.41,4.69s34.7-.95,51.66-5.4c16.5-4.33,33.46-11.67,45.61-23.95s16.55-29.64,9.22-45.18c-3.98-8.43-10.18-15.1-18.06-20.04-6.43-4.03-15.72-7.54-23.33-5.2-1.33,.41-1.7,2.33-.61,3.2h0Z"/>
  <path d="M134.92,319.34c32.94-.97,66.06-2.25,98.82,2.49,13.42,1.94,27.52,5.51,38.07,14.5,8.89,7.57,14.8,18.9,11.34,30.67-1.89,6.44-6.03,11.9-10.64,16.64-5.39,5.54-12.22,9.24-17.68,14.63-6.23,6.16,1.63,16.07,9.18,13.51s14.47-8.45,20.37-13.75,11.02-11.37,14.63-18.43c7.71-15.09,5.49-32.97-4.04-46.69-21.48-30.92-63.79-29.91-97.4-29.11-21.45,.51-43.41,2.88-64.29,7.88-4.55,1.09-2.63,7.79,1.64,7.67h0Z"/>
  <path d="M321.93,495.69c10.31,.82,20.58,.94,30.92,1.1,4.63,.07,9.27,.22,13.9,.2s10.22,.62,14.55-1.03c9.57-3.64,7.95-17.16,7.48-25.38-.29-5.03-.8-10.05-1.54-15.03-.37-2.49-.79-4.98-1.27-7.46-.26-1.37-1.18-3.68-.85-4.99l-1.88,3.93c-1.21,.43-1.03,.35,.55-.22l1.34-.4c1.1-.23,2.29-.33,3.42-.31,2.27,.04,4.6,.52,6.7,1.38,4.82,1.99,8.86,5.81,11.52,10.25,6.66,11.15,4.01,24.8,4.86,37.07,.49,7.16,11.04,9.32,13.99,2.58,10.37-23.76-.22-55.93-25.42-65.09-9.48-3.45-29.24-4.53-31.51,8.99-.55,3.29,.58,6.81,1.09,10.02,.59,3.73,1.05,7.48,1.38,11.24,.31,3.45,.51,6.91,.61,10.37,.05,1.89,.06,3.78,.11,5.67,.03,1.31,.71,4.17,.26,5.27l2.82-3.28c-1.14,.9-8.55,.72-11.44,1.05-4.58,.53-9.16,1.13-13.74,1.69-9.2,1.13-18.32,2.27-27.43,3.99-4.27,.81-5.58,7.95-.4,8.37h0Z"/>
  <path d="M417.87,497.94c7.2,5.28,18.81,4.57,27.39,5.31,9.89,.85,19.71,1.95,29.62,2.59,8.79,.57,20.28,3.22,25.3-6.32,3.85-7.33,3.82-18.31,3.25-26.33-1.19-16.91-8.96-33.33-20.7-45.41-9.74-10.02-26.4-21.7-41.06-18.26-3.49,.82-3.68,5.53-1.46,7.63,4.49,4.23,10.17,6.36,15.26,9.75,4.92,3.28,9.62,7.05,13.55,11.49,8.37,9.48,13.64,21.34,15.05,33.89,.37,3.3,.65,6.62,.61,9.95-.02,1.43-.11,2.78-.27,4.21-.07,.6-.97,4.46-.72,4.94,3.72-1.99,4.58-2.92,2.59-2.78-.87,0-1.74-.01-2.61-.05-1.99-.04-3.97-.1-5.96-.15-3.97-.1-7.95-.2-11.92-.3-7.92-.2-15.85,.19-23.78,.17-7.44-.02-17.11-1.22-23.72,2.79-2.27,1.37-2.63,5.26-.42,6.88h0Z"/>
  <path d="M444.46,414.5c17.31,.3,34.14-10.81,43.68-24.79,10.24-15,12.82-34.89,4.62-51.42-8.21-16.56-24.98-25.43-41.98-30.57-19.93-6.02-41.08-7.52-61.8-6.35-23.11,1.3-47.4,4.64-68.36,14.83-5.3,2.58-4.25,10.76,2.23,10.46,17.85-.84,35.12-5.18,52.86-7.11s35.7-2.11,53.34,.95c14.48,2.51,30.71,6.69,41.97,16.72,10.98,9.79,12.85,25.56,7.58,38.88-6.48,16.38-21.83,24.46-35.92,33.33-2.56,1.61-.79,5.04,1.79,5.08h0Z"/>
  <path d="M315.42,319.41c-1.1,14,.41,28.47,.89,42.51s.67,28.2,.58,42.3c-.09,13.98-.41,27.96-1.12,41.92s-2.36,29.06-2.49,43.65c-.1,11.03,18.13,11.94,19.4,.93,1.68-14.53,1.38-29.12,1.3-43.71-.08-14.39-.38-28.76-1.02-43.14-.64-14.38-1.58-28.76-2.82-43.1s-2.07-28.65-5.88-42.08c-1.21-4.26-8.47-3.86-8.83,.71h0Z"/>
  <path d="M377.74,350.5c-2.23,8.34-1.56,18.55-1.57,27.16,0,4.64,.04,9.28,.06,13.92,.02,4.04-.18,7.94,2.91,10.99,4.82,4.76,16.2,4.93,22.43,3.86,7.29-1.26,13.21-5.81,16.59-12.35,5.74-11.13,5.34-29.51-.53-40.46-7.58-14.13-25.79-14.28-38.27-6.95-5.29,3.11-1.64,10.62,3.7,10.49s13.34-2.97,18.23,.34c4.48,3.03,4.5,11.34,4.79,16.08s.56,11.09-2.39,15.22c-3.72,5.21-12.25,3.42-17.51,2.19l3.42,1.64c.75,2.43,.96,2.36,.63-.21l-.08-1.98-.25-5.95c-.17-3.96-.28-7.93-.56-11.89-.53-7.43-.47-15.69-2.75-22.82-1.49-4.67-7.72-3.43-8.83,.71h0Z"/>
  <path d="M524.19,325.9c7.97-1.72,16.13-2.5,24.26-1.86,2.25,.18,7.75-.23,9.54,1.39,1.41,1.28,1.24,4.53,1.36,6.27,1.05,15.71-.79,31.43-2.8,46.99-2.04,15.78-4.24,31.58-4.33,47.53-.08,13.27-.58,34.07,13.6,40.73,6.04,2.84,13.59,2.86,20.12,2.9,6.17,.04,12.45-.92,17.99-3.75,14.37-7.34,14.49-23.7,15.14-37.78,1.55-33.37-3.76-66.32-7.34-99.39-.35-3.24,.03-8.75-1.43-11.65l-.07-.68c.02-1.59-.71-1.14-2.19,1.35,.08,.11,2.21-.13,2.28-.13,2.27-.12,4.54-.23,6.81-.31,8.13-.27,16.29-.05,24.42-.05s16.47-.76,24.46,.07c5.88,.61,7.16,9.73,8.17,14.6,3.09,14.95,1.53,30.83,.41,45.91-1.22,16.4-3.01,32.76-5.37,49.04-1.21,8.3-2.44,16.6-3.88,24.87-1.12,6.48-2.25,13.09-4.92,19.15-5.22,11.84-16.33,17.12-28.44,19.72-14.62,3.15-30.35,3.75-45.24,2.84-8.16-.5-16.36-1.43-24.38-3.03-6.18-1.23-12.06-3.11-16.8-7.41-9.29-8.42-13.08-22.39-16.52-33.97-4.45-14.96-7.37-30.29-8.87-45.82-1.49-15.5-1.85-31.28-.61-46.81,.59-7.32,.61-16.08,3.73-22.83,2.46-5.31,5.13-7.28,10.97-8.46s11.87-1.22,17.75-1.12c4.88,.08,4.98-7.5,.4-8.37-12.39-2.34-25.29-2.61-36.48,4.08-7.23,4.32-9.52,12.13-10.98,19.95-1.58,8.49-2.64,17.1-3.3,25.71-2.64,34.52,1.97,69.88,13.5,102.56,5.02,14.22,12.61,27.81,26.16,35.38,14.81,8.28,34.77,8.81,51.31,9.24,29.53,.77,70.16-2.04,84.32-32.86,6.94-15.11,8.4-33.27,10.4-49.58,2.21-18.06,3.67-36.2,4.51-54.37,.78-16.89,1.62-34.08-2.81-50.58-2-7.45-5.17-16.61-12.24-20.67s-16.09-2.55-23.78-2.38c-9.1,.2-18.2,.4-27.3,.6-4.57,.1-9.11,.16-13.67,.06-3.94-.09-7.86-.4-11.42,1.63-7.74,4.41-6.24,14.29-5.59,21.77,.79,9.1,2.05,18.17,3.14,27.24,2.18,18.1,4.3,36.24,4.83,54.48,.26,9.02,.19,18.05-.82,27.02-.59,5.3-.81,12.73-6.31,15.4-5.17,2.51-12.04,1.77-17.57,1.15-2.27-.25-4.54-.13-5.81-2.15-1.8-2.86-1.72-7.75-2.08-10.95-1.89-17.14,.04-34.3,1.99-51.34,1.98-17.27,4.2-34.78,2.92-52.19-.52-7.14-1.2-15.26-6.79-20.44-6.06-5.61-15.59-4.3-23.05-3.15-8.27,1.28-16.42,3.06-24.32,5.82-5.74,2-2.55,9.85,3.04,8.64h0Z"/>
  <path d="M709.43,315.36c-3.36,6.07-4.03,13.63-4.6,20.45s-.57,13.87-.52,20.8c.11,14.86,.46,29.79,1.1,44.63,.63,14.55,1.2,29.08,1.39,43.65,.2,14.99,.6,30.69,2.85,45.52,.92,6.06,5.23,9.22,11.18,9.47,12.6,.55,26.09,1.66,38.37-2.05,13.99-4.23,14.94-17.44,15.39-29.86,.23-6.31,.3-12.62,.23-18.93-.04-3.41-.12-6.82-.26-10.23-.01-.26,.1-2.77-.1-2.2-.33,.94-.76,.56,0,.25,4.91-2,12.14-.35,17.33-.74,7.29-.55,14.33-2.32,21.53-3.43,3.81-.59,4.4-6.17,.33-6.94-12.9-2.45-25.63-5.68-38.93-4.88-5.18,.31-10.52,1.95-14.01,5.98-4.38,5.07-4.08,11.71-3.97,17.98s.08,12.63-.12,18.95c-.11,3.64,.47,13.01-1.28,15.04-.03,.04-3.02,.82-4.24,1.02-3.08,.5-6.26,.68-9.38,.83-6.72,.32-13.33,.1-19.92-1.32,2.83,3.12,5.66,6.23,8.49,9.35,.27-14.33-1.23-29.29-2.91-43.52-1.71-14.45-3.12-28.9-4.4-43.4-1.28-14.48-2.91-28.95-4.58-43.38-.78-6.71-1.69-13.4-2.18-20.14-.53-7.25,.35-14.46-.14-21.67-.25-3.63-5.03-4.15-6.65-1.23h0Z"/>
  <path d="M817.94,431c-3.74,13.33-4.26,27.23-5.33,40.98-.74,9.58-4.88,26.31,8.72,28.58,5.52,.92,11.69-.85,17.15-1.58,7.09-.95,14.18-1.89,21.26-2.84,10.4-1.39,25.54-.61,31.45-11.14,2.66-4.74,2.63-10.1,2.9-15.37,.39-7.41,.71-14.77,.67-22.2-.07-13.24-.64-26.44-1.35-39.66-1.44-27-3.02-54.23-6.6-81.05-.8-5.99-1.15-12.42-4.23-17.76-2.89-5.01-7.73-8.19-13.26-9.59-9.94-2.51-21.99,.25-31.87,1.99-14.08,2.48-15.53,15.52-15.82,27.63-.27,11.01,3.81,22.82,1.61,33.68-1.7,8.4-9.39,11.13-17.06,11.89-4.27,.42-8.6,.42-12.88,.16-4.79-.29-7.25-.04-7.57-5.17-.77-12.5,.14-25.29,.28-37.81,.06-5.46,1.18-12.22-.8-17.47-2.69-7.14-9.88-8.1-16.52-7.74-15.24,.82-30.48,1.8-45.72,2.7-6.14,.36-12.89,.76-16.22,6.83s-1.31,14.36-.99,20.73c1.55,30.33,1.2,60.95,5.37,91.06,1.24,8.92,13.24,7.49,13.61-1.12,1.2-27.44-1.42-54.91-2.77-82.32-.16-3.3-.29-6.61-.43-9.91-.12-2.79,.57-7.31-.42-9.91,0-.47-.03-.93-.08-1.4l-1.99,2.46c.24,.28,5-.25,5.25-.26,3.32-.15,6.63-.29,9.95-.44,6.63-.29,13.27-.58,19.9-.88,3.65-.16,7.3-.32,10.95-.48,2.89-.13,6.1-.77,8.88,.11l-4.07-1.95c-1.03-.76-.22-2.88-.79-.41-.2,.88-.05,2.05-.08,2.95-.06,2.3-.12,4.6-.18,6.89-.12,4.6-.24,9.19-.36,13.79-.23,8.82-1.2,17.97-.49,26.78,.65,7.96,4.36,15.38,12.03,18.6,6.5,2.73,14.43,2.51,21.36,2.44,13.93-.15,28.98-4.21,35.95-17.43,7.83-14.87,.39-31.23,1.09-46.84,.14-3.24,.31-7.27,1.38-10.36,.1-.29,.36-.74-.41,.08-1.09,1.16,1.04,.18,1.74,.09,2.11-.26,4.22-.5,6.33-.74,4.42-.52,14.01-3.17,17.98-.26,1.4,1.02,1.18,3.28,1.35,5.09,.44,4.94,.73,9.89,1.21,14.82,.91,9.21,1.73,18.43,2.47,27.66,1.51,18.78,2.68,37.59,3.51,56.42,.41,9.25,.79,18.49,1.24,27.73,.42,8.66,2.27,17.85,1.78,26.49-.19,3.3-1.66,2.59-5,3.13-5.14,.84-10.29,1.67-15.43,2.51-10.27,1.67-20.54,3.65-30.86,5.01-.2,.03-1.77,.1-1.84,.22-1.03-.04-.86,.19,.52,.71,1.14,1.11,1.52,.89,1.16-.66,.79-1.9,.22-5.86,.29-7.9,.15-4.93,.25-9.87,.38-14.81,.28-10.87,.54-21.65-1.32-32.4-.68-3.97-5.85-4.21-6.94-.33h0Z"/>
  <path d="M184.48,348.26c-2.18,7.5-1.44,16.16-1.33,23.92,.1,6.6-.96,15.59,3.12,21.23s11.61,4.36,17.78,3.54c6.47-.85,14.38-.73,19.62-5.15s6.03-11.14,5.45-17.47c-.65-7-1.08-15.42-3.64-22.02-2.77-7.13-9.04-10.59-16.53-10.35-3.85,.12-7.72,.86-11.53,1.35s-7.63,.76-10.91,2.66c-6.41,3.72-7.63,10.93-6.27,17.68,.82,4.09,2.22,8.01,2.75,12.17,.59,4.64,.58,9.41,.7,14.08,.2,7.21,9.99,6.57,11.75,.56,1.97-6.71,1.8-13.59,.56-20.45-.49-2.68-1.33-5.29-1.84-7.96-.2-1.04-.35-3.84-.44-3.77,1.29-1.01,6.91-.63,8.62-.8,1.53-.15,7.24-1.61,8.57-.61,1.06,.8,1.16,4.24,1.38,5.44,.62,3.4,1.25,6.8,1.85,10.21,.38,2.15,1.18,4.86,.76,7.04s-.96,2.11-3.13,2.59c-2.9,.64-5.88,1.03-8.81,1.54-1.76,.31-3.52,.66-5.29,.92-1.12,.16-3.06-.41-1.89,.79,1.47,1.5,.18-2.11,.06-2.75-.35-1.88-.66-3.78-.96-5.67-.51-3.15-.96-6.31-1.37-9.47-.85-6.57-.85-13.38-2.78-19.73-1.03-3.38-5.41-2.34-6.23,.5h0Z"/>
  <path d="M184.78,424.75c-2.85,7.24-4.29,14.47-4.67,22.24-.29,5.99-1.4,15.48,3.69,19.92s13.78,1.98,19.84,.78c6.64-1.31,14.74-2.1,18.83-8.17,4.11-6.09,5.22-15,7.15-22.01s5.58-15.44-.22-21.39c-4.96-5.09-14.03-3.65-20.51-3.9-7.01-.27-14.67-1.04-20.7,3.36-6.69,4.88-7.8,13.11-8.31,20.75-.64,9.47-2.02,19.09-.16,28.47,.85,4.28,7.64,7.01,9.55,1.76,2.42-6.65,3.14-13.1,3.74-20.1,.44-5.06-.24-12.92,2.3-17.54,2.26-4.11,9.96-2.38,13.87-2.23,2.78,.11,7.14,1.12,9.81,.37l1.15,.06c-1.27-2.88-2-3.6-2.19-2.14-.52,.25-.97,3.78-1.16,4.46-1.77,6.4-3.66,12.79-5.27,19.23-.83,3.32-.35,3.29-3.64,4.37s-6.35,1.94-9.57,2.76c-1.5,.38-3,.75-4.52,1.06-.38,.08-3.64,.62-2,1.41-1.14-.55-1.03-9.38-1.07-10.8-.21-6.76,.62-13.62,1.66-20.29,.68-4.33-5.9-6.86-7.63-2.46h0Z"/>
</svg>