<?xml version="1.0" encoding="UTF-8"?>
<svg id="Layer_1" data-name="Layer 1" xmlns="http://www.w3.org/2000/svg" viewBox="0 0 1024 1024">
  <rect x="118.56" y="482.79" width="27.94" height="27.94"/>
  <rect x="146.49" y="510.73" width="27.94" height="27.94"/>
  <rect x="174.43" y="538.67" width="27.94" height="27.94"/>
  <rect x="174.51" y="482.79" width="27.94" height="27.94"/>
  <rect x="202.45" y="510.73" width="27.94" height="27.94"/>
  <rect x="230.39" y="538.67" width="27.94" height="27.94"/>
  <rect x="560.27" y="510.73" width="27.94" height="27.94"/>
  <rect x="588.21" y="538.67" width="27.94" height="27.94"/>
  <rect x="588.29" y="482.79" width="27.94" height="27.94"/>
  <rect x="616.23" y="510.73" width="27.94" height="27.94"/>
  <rect x="644.17" y="538.67" width="27.94" height="27.94"/>
  <path d="M37.32,437.35c31.29,1.18,62.69,.86,94,1.15,30.64,.29,61.28,.14,91.92,.11,61.93-.07,123.87-.14,185.8-.21,123.18-.14,246.36-.77,369.53-1.32,34.62-.15,69.24-.31,103.86-.46,17.31-.08,34.61-.12,51.92-.42s34.68,.22,51.79-1.9c4.55-.56,5.35-7.75,.4-8.37-15.63-1.94-31.46-1.58-47.2-1.85s-30.66-.4-45.99-.47c-30.65-.14-61.3-.27-91.95-.41-61.97-.28-123.93-.6-185.9-.92-123.9-.64-247.8-.55-371.7-.69-34.63-.04-69.27-.34-103.9-.01-34.57,.33-69.25-.06-103.8,1.25-3.96,.15-6.92,4.06-6.66,7.85,.3,4.3,3.95,6.51,7.85,6.66h0Z"/>
  <path d="M29.87,430.16c-.84,8.69,.14,17.37,.68,26.06s1.09,17.78,1.68,26.66c.17,2.51,2.35,5.14,4.94,5.43,6.54,.74,13.09,1.28,19.66,1.6,5.54,.27,11.3,.99,15.4-3.44,1.33-1.43,.85-3.4-.33-4.69-3.83-4.21-9.74-3.55-14.92-3.82-5.91-.31-11.81-.84-17.69-1.5l4.94,5.43c-.59-8.88-1.23-17.77-1.86-26.65s-.83-17.37-2.81-25.87c-1.13-4.86-9.23-4.08-9.7,.78h0Z"/>
  <path d="M62.52,483.68c-.33,5.89-.34,11.56-.02,17.46,.25,4.63-.82,11.99,3.12,15.41,3.4,2.96,9.63,2.29,13.82,2.45,5.48,.21,11.11,.41,15.98-2.4,3.32-1.92,2.78-7.41-.66-8.86-3.61-1.53-7.04-1.41-10.92-1.51-3.17-.08-8.15,.52-11.13-.46l3.33,3.71c-1.13-3.49-.46-8.77-.64-12.4-.21-4.37-.75-8.53-1.44-12.85-.96-5.94-11.03-7.52-11.42-.55h0Z"/>
  <path d="M91.24,510.39c-4.02,3.8-3.46,11.23-3.9,16.38s-2.05,12.68,1.55,16.73,11.42,4.34,16.34,4.65c5.96,.38,13.11,.16,18.13-3.42,4.29-3.05,3.39-11.12-2.48-11.73-4.7-.48-9.38,.8-14.09,1.14-1.78,.13-3.6,.21-5.38,.11-1.19-.09-2.38-.23-3.56-.43,1.54,4.05,2.07,4.51,1.61,1.36,.57-4.27-.82-9.46-1.27-13.75s-.45-8.25-3.52-11.29c-1-.99-2.52-.61-3.42,.24h0Z"/>
  <path d="M120.48,535.98c-5.21,1.99-4.53,10.45-4.87,15.09-.39,5.31-2.64,14.35,1.29,18.8s12.43,3.51,18.01,3.51c6.52,0,13.87,.51,18.77-4.45,2.41-2.44,.87-5.88-1.54-7.42-4.55-2.92-10.46-1.6-15.55-1.4-2.78,.11-5.56,.15-8.34,.12-2.26-.03-3.13-1-1.64,1.56,2.08,3.57,1.14-.87,1.08-2.33-.15-3.52,.18-26.33-7.23-23.49h0Z"/>
  <path d="M146.97,563.69c-2.95,6.29-2.04,15.1-1.93,21.91s-.23,14.93,7.95,16.59c7.39,1.5,15.97,.68,23.51,.95,8.24,.29,16.47,.58,24.71,.85,16.79,.56,33.58,.92,50.38,1.13,16.28,.2,32.72,.87,48.98-.2,3.99-.26,8.76-.16,12.21-2.44,3.73-2.47,4.29-6.23,4.46-10.37,.34-8.48,2.12-18.45-.84-26.58-1.77-4.87-9.06-5.51-11.27-.61-2.1,4.64-2.25,9.44-2.45,14.45-.1,2.49-.2,4.97-.3,7.46-.05,1.37,.38,4.58-.17,5.77l2.59-3c1.92-.49,1.7-.56-.65-.19l-1.93,.17c-1.93,.16-3.87,.28-5.81,.36-3.88,.18-7.76,.23-11.65,.24-7.86,.02-15.72-.11-23.58-.21-15.47-.2-30.94-.6-46.42-.75s-30.91-.34-46.37-.55c-3.66-.05-8.27-.87-11.84-.15h-1.97c3.37,3.57,4.69,3.78,3.98,.63,.39-1.56-.26-4-.37-5.56-.43-6.55-.47-14.65-3.77-20.45-1.65-2.89-6.15-2.24-7.46,.56h0Z"/>
  <path d="M392.03,432.78c-1.73,12.64-2.64,25.26-3.7,37.98s-1.33,25.03-3.8,37.04l1.85-3.86-.46,.65,5.43-2.75c-8.54,1.62-19.82-2.72-27.34,2.97-3.02,2.29-3.9,7.23-.59,9.81,4.18,3.27,9.3,3.31,14.46,3.5,4.88,.18,10.91,.92,15.64-.36,9.56-2.58,7.71-16.01,8.22-23.68,1.35-20.27,2.4-40.61,.08-60.83-.62-5.38-9-6.21-9.79-.47h0Z"/>
  <path d="M362.42,507.84c-2.57,4.07-1.88,10.01-1.88,14.66,0,5.47-.05,10.94,.07,16.41l7.56-6.87c-9.31-.99-21.36-3.36-29.93,1.28-3.56,1.93-2.65,7.46,.67,9.02,7.69,3.59,18.66,1.8,26.98,2.39,4.17,.3,7.82-2.37,7.56-6.87-.31-5.45-.78-10.88-1.21-16.32-.37-4.68-.23-10.32-3.15-14.2-1.9-2.52-5.11-1.99-6.68,.5h0Z"/>
  <path d="M337.69,533.62c-4.21,2.8-4.03,9.29-4.2,13.88-.1,2.83,.06,5.69,.12,8.52,.04,1.78,.93,6.71,.42,7.75l3.85-3.45c1.21-.49,2.03,.03-.07-.14-1.38-.11-2.79-.14-4.18-.12-2.45,.03-4.88,.34-7.31,.56-4.71,.44-9.09-.45-13.77-.39-4.25,.06-7.37,5.99-4.49,9.38,4.65,5.46,11.02,5.8,17.79,5.08,3.23-.34,6.45-.97,9.71-1.02s6.23,.51,9.01-1.96c4.82-4.27,2.31-14.05,2.03-19.64s-.05-15.44-5.7-18.68c-.97-.56-2.31-.36-3.21,.24h0Z"/>
  <path d="M478.78,428.1c-4.04,2.32-3.61,7.83-4.01,11.93-.5,5.11-1.05,10.2-1.26,15.33-.45,11.27-.91,22.54-1.36,33.81-.21,5.3-.51,10.61-.64,15.91-.12,4.77,1.63,9.02,6.3,10.89,4.3,1.71,10.08,.53,14.6,.34,5.78-.24,11.38,.18,16.55-2.7,4.59-2.56,3.88-10.37-.91-12.28-4.74-1.88-9.12-1.14-14.08-.69-3.63,.32-9.38,1.94-12.79,.84l4.85,3.16c-.39-.47,.08-7.05,.07-8.68l-.07-10.9c-.04-6.93-.09-13.87-.13-20.8s-.15-13.83-.59-20.77c-.33-5.16,.72-12.45-4.2-15.55-.71-.45-1.66-.21-2.32,.17h0Z"/>
  <path d="M728.19,592.29c-26.84-3.14-54.38-1.98-81.37-2.28-27.41-.31-54.83-.59-82.24-.96,2.54,2.15,5.08,4.31,7.62,6.46-1.2-9.74-1.86-19.51-1.99-29.33-.06-4.89-5.64-7.9-9.92-6.42-3.48,1.2-6.97,2.09-10.64,2.47-2.51,.26-7.12,1.11-9.48-.12l3.1,2.67c.49,.71,.21-4.54,.19-5.5l-.13-5.91-.29-13.79c-.1-4.54-4.65-7.73-8.87-7.52-8.39,.43-16.92,1.33-25.32,1.23l4.4,.81-.94-.35,3.4,2.93-.66-1.06,1.45,4.11c-.76-5.79-.48-11.72-1.08-17.53-.63-6.11-1.97-11.71-3.63-17.61-1.75-6.19-11.35-5.13-12.3,.99s-1.58,12.51-1.39,19.01c.17,5.94-.32,14.27,2.21,19.69,3.08,6.58,9.48,6.19,15.64,5.7,6.52-.51,13.04-1.02,19.56-1.53l-8.87-7.52c.3,6.22,.6,12.45,.91,18.67,.25,5.24-.3,11.65,4.1,15.47,4,3.48,10.67,3.03,15.59,2.73,6.15-.37,12.25-1.81,18.01-3.97l-9.92-6.42c.4,9.81,1.33,19.55,2.79,29.26,.6,3.97,3.58,6.51,7.62,6.46,27.03-.37,54.06-.65,81.09-.95,26.86-.3,54.28,.89,80.99-2.24,4.17-.49,4.89-7.12,.37-7.65h0Z"/>
  <path d="M729.02,598.01c4.27-4.03,4.41-7.97,5.1-13.6s1.3-11.31,1.56-17.03l-6.08,7.17c4.9-.24,9.78-.57,14.66-1.03,4.05-.38,9.55-.15,12.95-2.76,4.12-3.17,3.82-8.38,4.15-13.06,.36-5.18,1.01-10.41,.68-15.59l-7.72,7.02c9.3,.64,18.14,.45,27.21-1.95,2.11-.56,3.81-2.78,4.15-4.87,1.26-7.96,2.53-15.93,3.79-23.89,1.36-8.57-12.18-10.99-13.27-2.38-1.01,8.01-2.03,16.01-3.04,24.02l4.15-4.87c-6.87,2.05-13.64,2.67-20.66,.99-3.46-.83-7.04,1.97-7.64,5.31-.69,3.84-.71,7.73-.88,11.62-.07,1.65-.14,3.3-.21,4.94-.04,.99-.09,1.98-.13,2.97,3.1-1.29,3.69-1.76,1.79-1.42-2.92-.49-7.07,.75-10.06,1-3.66,.3-7.33,.52-11,.7-3.91,.19-5.92,3.68-6.08,7.17-.25,5.47-.07,10.88,.1,16.34s.15,8.89,3.79,13.03c.78,.89,1.83,.99,2.7,.16h0Z"/>
  <path d="M780.05,518.03c3.35,3.95,7.94,3.62,12.83,4.25,5.44,.69,10.86,1.01,16.34,1.29,4.25,.22,7.63-1.69,8.7-6.05,2.17-8.83,3.58-17.48,3.81-26.57,.07-2.82-2.2-5.23-4.47-6.49-1.96-1.09-4.01-1.21-6.05-.33-2.49,1.07-4.87,3.18-5.16,6.07-.84,8.24-1.51,16.5-2.87,24.67l6.76-6.14c-5.51,.13-10.95,.3-16.44,.85-4.66,.46-9.84-.09-13.15,3.65-1.05,1.19-1.4,3.51-.29,4.81h0Z"/>
  <path d="M811.97,492.65c7.84,4.9,19.8,3.73,28.72,4.12,3.51,.15,6.29-3.32,7.01-6.37,2.26-9.59,3.4-19.12,3.6-28.95,.16-8.16,1.45-21.3-5.3-27.08-2.41-2.06-6.57-2.02-8.62,.6-5.16,6.59-2.67,17.97-2.88,25.93-.23,8.92-1.03,17.89-2.1,26.75l7.01-6.37c-8.46,1.05-19.15-.32-27,3.25-3.66,1.67-3.74,6.06-.44,8.12h0Z"/>
</svg>