<?xml version="1.0" encoding="UTF-8"?>
<svg id="Layer_1" data-name="Layer 1" xmlns="http://www.w3.org/2000/svg" viewBox="0 0 1024 1024">
  <defs>
    <style>
      .cls-1 {
        fill: none;
        stroke: #000;
        stroke-linecap: round;
        stroke-linejoin: round;
        stroke-width: 10px;
      }
    </style>
  </defs>
  <path class="cls-1" d="M327.93,253.58s-15.78,1.54-31.55,8.84"/>
  <path class="cls-1" d="M439.53,530.27c-2.46,1.07-5.03,2.03-7.7,2.86-28.94,9.08-57.6-.14-64.03-20.6-6.41-20.48,11.82-44.44,40.77-53.52,5.75-1.81,11.49-2.91,17.05-3.31,22.41-1.67,41.84,7.53,46.99,23.94,5.82,18.59-8.68,40.03-33.06,50.64Z"/>
  <path d="M439.53,530.27c-17.21-3.05-30.71-12.42-35.09-26.41-5.2-16.54,3.77-35.09,21.17-48.16,22.41-1.67,41.84,7.53,46.99,23.94,5.82,18.59-8.68,40.03-33.06,50.64Z"/>
  <path class="cls-1" d="M216.94,487.88c0,15.69-11.51,29.04-27.63,33.97-4.34,1.36-8.99,2.07-13.85,2.07-22.91,0-41.48-16.14-41.48-36.05s18.57-36.05,41.48-36.05c1,0,2.03,.02,3,.1,21.5,1.34,38.48,16.93,38.48,35.95Z"/>
  <path d="M216.94,487.88c0,15.69-11.51,29.04-27.63,33.97-15.9-7.18-26.75-21.62-26.75-38.26,0-12.49,6.13-23.77,15.9-31.66,21.5,1.34,38.48,16.93,38.48,35.95Z"/>
  <path class="cls-1" d="M216.53,482.81s10.97,73.96-84.72,131.89"/>
  <path d="M117.24,646.22s-22.31-38.83,53.42-46.99c75.74-8.15,79.6,42.7,50.64,55.57,0,0-14.59-35.4-35.62-25.32-21.03,10.08-4.51,47.2,29.39,42.05,0,0-18.45,28.32-48.28,26.82-20.31-1.02-31.16-9.8-36.02-15.3-2.47-2.79-6.83-2.93-9.32-.16-3.82,4.26-7.91,12.54-7.29,28.33,1.14,28.75,24.52,42.27,24.52,42.27,0,0,11.3,1.29,32.76-1.86,21.46-3.15,58.36-2.86,89.54,10.3s85.25-9.44,95.84-13.45,27.46-.57,27.46-.57c0,0-15.73,30.32-99.84,30.32-38.05,0-86.68-24.6-143.61-12.02,0,0,17.16,56.07,163.64,24.89,0,0-.57,26.32-74.67,22.6-74.09-3.72-104.85-23.32-121.58-86.82-10.93-41.49-5.02-56.6,.4-62.1,2.29-2.33,5.93-2.6,8.56-.67,3.69,2.7,10.36,6.41,17.21,4.41,10.3-3,12.44-45.06-17.16-22.31Z"/>
  <path class="cls-1" d="M734.73,523.93s47.77,120.44-130.74,272.63c-136.56,116.43-208.26,114.43-208.26,114.43"/>
  <path d="M642.63,192.36c6.91,19.36,17.37,58.64,10.75,106.26-.83,5.99-8.55,7.99-12.17,3.14-10.65-14.23-31.47-34.86-66.11-42.17,21.21-20.41,39.71-43.19,55.29-68.49,3.02-4.9,10.3-4.16,12.24,1.25Z"/>
  <path d="M394.97,915.08c9.35-1.5,18.62-2.9,27.65-5.87s18.3-6.17,27.24-9.82c17.8-7.26,35.21-15.38,52.33-24.1,34.23-17.45,66.69-38.63,97.63-61.35,31.02-22.77,61.68-47.13,85.57-77.56,22.48-28.62,38.75-61.32,49.39-96.05,5.84-19.05,11.06-39.8,11.16-59.82s-1.83-39.38-6.59-58.82c-1.87-7.65-12.43-4.1-12.55,2.68-.29,16.72-1.46,33.78-4.29,50.26-2.86,16.63-4.88,33.29-9.15,49.67-8.16,31.33-22.68,62.32-41.25,88.87-20.84,29.8-47.81,53.78-76.2,76.18-29.26,23.1-59.97,44.42-92.17,63.23-17.84,10.42-35.79,20.55-54.42,29.5-9.53,4.57-19.09,9.11-28.76,13.41-9.47,4.21-18.4,9.23-27.58,14.02-2.7,1.41-.96,6.04,1.96,5.57h0Z"/>
  <path d="M983.07,894.67c-14.54-45.02-33.08-88.65-52.26-131.87-19.29-43.48-40.39-86.31-62.64-128.34-21.11-39.88-44.3-78.46-67.79-116.97-21.93-35.94-43.39-72.3-59.42-111.33-15.78-38.42-26-79.05-25.14-120.8,.95-46.08,14.9-93.65,1.17-139.09-5.49-18.18-16.63-36.1-34.22-44.6-19.62-9.49-42.74-4.43-60.33,7.1-18.28,11.98-30.32,30.65-42.95,47.97-11.54,15.83-24.34,31.71-38.89,44.5-14.67,12.9-30.68,22.83-49.33,28.5s-38.61,6.64-58.2,6.26c-39.4-.76-80.73-6.32-119.41,3.85-9.12,2.4-18.04,6.96-26.16,11.67-4.28,2.48-.65,8.88,3.77,7.48,18.28-5.77,38.47-7.51,57.56-7.21,19.82,.31,39.14,3.94,58.81,5.73,40.87,3.72,82.22,4.93,119.34-15.2,36.57-19.83,59.32-54.38,82.76-87.32,10.81-15.19,24.3-31.84,43.66-35.65,17.6-3.47,30.75,6.97,38.34,21.93,9.02,17.78,10,39.06,9.55,58.59-.52,23.13-4.21,46.06-5.7,69.13-2.76,42.65,3.97,84.32,18.35,124.51,28.86,80.69,80.44,150.99,121.85,225.34,22.45,40.31,43.12,81.57,62.77,123.31,9.96,21.17,19.89,42.36,29.74,63.58,4.93,10.62,9.84,21.25,14.68,31.91,4.85,10.68,10.71,20.98,16.01,31.45s10.05,20.07,15.5,29.92c2.74,4.96,10.23,.73,8.59-4.33h0Z"/>
  <path d="M340.15,237.34c-7.09-1.03-14.86-3.62-21.46-6.46s-13.36-6.78-19.32-11.16c-12.86-9.46-22.81-21.58-32.51-34.11-18.76-24.22-38.46-60.92-73.86-59.56-16.65,.64-29.66,12.36-35.73,27.31s-6.56,31.68-4.67,47.83,5.94,31.82,7.77,47.91-.51,32.5-4.76,48.82c-8.05,30.87-17.84,73.03,11.83,96.05,6.1,4.74,15.95-2.71,10.67-9.46-17.35-22.17-9.82-51-3.57-75.67,4.05-16,7.76-31.94,7.25-48.57-.47-15.36-4.05-30.4-6.9-45.43-2.66-14.02-5.01-28.49-2.36-42.69,2.16-11.55,7.99-25.01,21.37-25.76,13.21-.74,24.32,9.17,32.39,18.46,10.1,11.63,18.77,24.46,28.96,36.02,11.35,12.87,23.57,24.69,38.38,33.55,7.06,4.22,14.64,7.29,22.59,9.38,3.61,.95,7.31,1.65,11.03,2.03,4.19,.42,8.4-.47,12.56-1.02s4.77-6.84,.36-7.48h0Z"/>
  <path d="M161.09,353.32c-14.35,10.41-26.01,25.01-36.92,38.84s-21.42,29.4-30.53,45.19c-18.03,31.28-32.21,65.01-41.6,99.89-19.51,72.52-18.4,149.38,1.8,221.63,11.48,41.06,28.98,80.32,54.86,114.37,5.18,6.82,14.87-.01,10.86-7.35-17.43-31.95-32.9-65.42-43.89-100.16-10.83-34.23-16.98-69.69-18.73-105.54-3.42-70.25,12.38-141.1,43.93-203.87,8.7-17.3,18.61-34.08,29.39-50.16,11.04-16.46,24.48-31.18,35.43-47.63,2.02-3.04-1.1-7.75-4.61-5.2h0Z"/>
</svg>