<?xml version="1.0" encoding="UTF-8"?>
<svg id="Layer_1" data-name="Layer 1" xmlns="http://www.w3.org/2000/svg" viewBox="0 0 1024 1024">
  <g>
    <path d="M600.59,318.16c-5.69,.41-31.05,2.69-56.41,5.07-25.36,2.28-54.96,4.66-65.93,5.07-21.43,.93-69.66-.1-98.54-2.07-26.5-1.86-40.47-.62-56,4.97-7.66,2.79-6.83,3.11,3.83,1.66,24.84-3.31,30.53-2.79,43.57,4.55,6.11,3.42,7.87,3.93,16.46,4.45,8.8,.62,10.45,1.04,19.25,5.49,5.28,2.69,10.35,4.86,11.18,4.86,.93,0,4.24-1.14,7.25-2.48,3.11-1.35,8.07-2.79,11.07-3.21,2.9-.41,5.38-1.04,5.38-1.55,0-.41-3.83-1.14-8.49-1.55-12.42-1.14-7.76-3,6.31-2.59,25.36,.83,39.43,.41,51.65-1.35,15.94-2.17,47.3-2.28,64.9-.21,16.15,1.97,22.77,1.97,33.54-.21,9.11-1.76,25.25-2.17,63.76-1.45,18.53,.31,29.29-.93,18.11-1.97l-5.69-.62,3.11-1.35c3.73-1.55,17.91-.41,43.47,3.73,13.14,2.07,19.98,2.59,33.12,2.48,12.11-.1,18.32,.41,23.18,1.55,7.14,1.86,15.94,1.55,23.39-.72,3.93-1.14,4.04-1.24,1.55-2.07-1.45-.41-4.45-1.14-6.73-1.55-2.59-.41-3.42-.93-2.28-1.24,1.86-.41,2.59-.83,7.97-5.38l2.59-2.17-2.59,.83c-1.45,.41-8.59,.83-16.04,.83-7.76,.1-17.29,.83-22.56,1.86-9,1.76-9.21,1.76-32.6-1.45-12.94-1.76-35.09-4.97-49.37-7.14-24.01-3.83-48.96-6.42-57.44-6-1.97,0-8.28,.41-13.97,.93Z"/>
    <path d="M675.11,356.87c-19.25,1.86-26.6,1.97-57.55,.52-31.26-1.45-107.64-.93-111.58,.72-2.38,.93-2.28,1.14,3.73,4.76,8.59,5.28,16.46,8.69,22.05,9.63l4.66,.72-4.66,1.45c-2.69,.83-11.28,1.55-20.18,1.76-16.15,.41-25.36,1.45-25.36,2.69,0,.41,3.52,2.28,7.76,4.14,4.24,1.86,8.28,4.04,8.9,4.76,1.55,1.86,6.83,1.86,20.49-.1,14.28-2.07,23.5-4.86,28.88-8.8,2.38-1.66,4.86-3.11,5.49-3.11s2.9,1.35,4.97,2.9c5.9,4.66,6.52,4.76,4.04,.52l-2.38-3.93,3.93,2.38c2.07,1.24,5.49,3.31,7.56,4.55l3.73,2.17-1.66-3.21c-2.69-5.18-1.97-5.59,4.55-2.28,3.42,1.66,6.42,3.11,6.73,3.11,.21,0-.41-1.55-1.55-3.42-1.14-1.76-2.07-3.62-2.07-4.14,0-.41,2.9,.72,6.52,2.38l6.42,3.21-4.45-4.24c-2.48-2.38-4.14-4.66-3.83-4.97,.41-.41,17.7-.62,38.4-.62,20.7,.1,37.68-.21,37.68-.62s-4.35-1.24-9.52-1.76c-8.8-.83-9.21-1.04-4.97-1.55,2.59-.41,20.29-1.14,39.33-1.76,22.77-.72,36.12-1.55,38.81-2.38,3.73-1.24,1.35-1.45-21.74-1.86-24.01-.52-25.57-.62-21.43-1.97,4.04-1.35,6.11-3.42,3.11-3.11-.72,.1-7.35,.72-14.8,1.45Z"/>
    <path d="M659.07,383.88c3.52,.83,31.46,3.52,31.88,3,.31-.21-.1-1.14-.83-2.07-1.04-1.24-4.04-1.55-16.97-1.45-8.59,.1-14.9,.31-14.08,.52Z"/>
    <path d="M326.82,387.09c-2.59,.83-10.56,5.38-17.7,10.14-7.25,4.66-15.73,9.52-18.94,10.87-3.21,1.24-5.8,2.69-5.8,3.11,0,.52-.72,1.66-1.76,2.59-1.35,1.35-2.9,1.66-7.45,1.14l-5.8-.62,5.69,2.17c7.97,3.11,8.28,3.73,3.31,5.8-2.38,1.04-4.35,2.17-4.35,2.48s2.79,.31,6.21,.1c6.83-.52,8.18,.83,3.11,2.9-5.38,2.28-3.73,3.42,3.93,2.69,3.83-.31,14.18-.93,22.98-1.24q20.39-.93,15.11,10.66c-3,6.73-3.83,10.14-4.86,19.98-1.66,16.46-1.76,16.66-6,10.97-3.73-4.86-8.07-7.25-10.56-5.69-2.38,1.55-8.49,1.04-13.04-1.14q-4.45-1.97-4.45,.1c0,1.97-.1,1.97-2.59,.31-5.07-3.31-3.83-.41,2.38,6,4.14,4.14,6.42,7.25,6.42,8.8,0,1.66,.62,2.38,1.97,2.38,1.14,0,2.79,.31,3.73,.62,1.76,.72,5.18,6.42,4.35,7.35-.31,.21-2.28,0-4.55-.62l-3.93-1.14,3.93,3.62c2.07,1.97,3.83,4.24,3.83,5.28,0,1.35-.72,1.55-3.83,1.04l-3.93-.72,2.59,2.07c1.45,1.14,2.38,2.17,2.07,2.48-4.55,3.62-9.21,5.07-18.84,6-28.57,2.59-43.26,5.07-43.26,7.35,0,1.14,13.56,.72,33.12-.93l7.66-.62-2.9,3.52c-2.9,3.31-2.9,3.52-.93,3.83,1.24,.21,5.07-.41,8.59-1.35s9.11-1.55,12.32-1.45c3.31,.1,6.52-.1,7.04-.41,1.55-.93,2.38,1.66,2.38,7.35,0,3.21,.31,4.35,.93,3.42,1.14-1.86,2.69,2.69,5.18,15.84,1.76,8.9,4.66,16.15,5.9,14.8,.31-.21-.93-5.28-2.69-11.07-1.66-5.8-3.11-10.87-3.11-11.18s1.35,1.24,3.11,3.52c4.14,5.49,7.25,15.63,7.25,23.91v6.73l-4.35-.93c-7.45-1.45-15.42-.62-25.15,2.59l-9.32,3.11,4.86,.1c2.69,.1,10.76-.41,17.8-1.04,16.87-1.55,18.63-.72,25.77,10.97,6.62,10.97,10.76,15.01,20.7,20.39,4.55,2.38,11.39,6.93,15.11,10.04,11.9,9.73,22.05,13.14,37.05,12.32,9.63-.52,12.42-1.86,16.97-8.59,3.21-4.76,8.9-8.28,15.84-9.94,8.38-1.97,14.7-5.59,18.01-10.45,2.59-3.62,4.55-5.07,10.76-7.56,6.83-2.79,8.69-4.24,19.98-15.63,6.83-6.93,13.87-13.35,15.73-14.28,3.83-1.86,13.87-15.11,17.8-23.39,2.59-5.59,2.69-6.11,2.38-24.32-.21-10.66-.72-18.84-1.35-19.15-.62-.41-.83-7.35-.72-17.7l.31-16.97,4.14,.31,4.14,.31-7.56-4.45c-6.73-3.93-7.35-4.55-5.8-5.69,1.66-1.14,1.24-1.35-2.48-1.35-2.38,0-4.35-.31-4.35-.83,0-.41,2.79-3.11,6.21-5.9,7.97-6.62,8.18-8.8,.83-8.9-9.52-.1-1.45-1.66,13.25-2.38,21.94-1.24,23.39-2.17,26.39-18.32,3.73-19.98,4.04-22.05,3.52-22.46-.31-.31-2.38,.93-4.66,2.79l-4.14,3.31v-2.69c0-1.45-.1-2.59-.21-2.59-.21,0-3.31,.93-7.04,2.07-3.73,1.14-6.83,2.07-6.93,2.07s-.31-1.35-.52-3l-.31-3-8.18,5.28c-4.66,3-9.32,5.18-10.97,5.18-1.55,0-4.97-1.55-7.76-3.52l-4.86-3.52-1.86,2.38-1.86,2.28-7.66-2.48-7.56-2.38-.52,5.8-.52,5.8-8.18-7.76-8.18-7.76,2.9,5.49c1.55,2.9,2.59,5.69,2.28,6-.31,.41-3.73-.83-7.56-2.59-8.8-4.14-10.25-4.04-5.18,.41,2.28,1.97,3.83,3.83,3.62,4.04s-3-.62-6.11-1.97c-3.93-1.66-6.11-2.07-6.93-1.35-1.24,1.04-5.8-1.55-9.94-5.69-2.07-2.07-2.9-1.97-12.52,2.07-3.31,1.35-6.31,2.28-6.62,1.97s.72-2.48,2.28-4.86c1.55-2.28,2.59-4.45,2.38-4.66-.21-.31-3.31,1.14-6.73,3.21-7.25,4.24-9.32,4.66-4.86,1.04,4.45-3.62,2.07-3.21-8.28,1.55-4.97,2.28-9.32,4.14-9.63,4.14s1.14-1.86,3.42-4.14l3.93-4.04-13.04,4.24c-7.14,2.38-13.35,4.04-13.77,3.73-.31-.41,.62-2.17,2.07-4.04,1.55-1.76,2.59-3.52,2.28-3.73-.31-.31-5.38,2.07-11.39,5.28-6.11,3.11-10.97,5.38-10.97,4.97s2.38-2.59,5.38-4.86c3-2.17,4.86-4.14,4.35-4.35-.62-.21-5.69,1.24-11.28,3.31-5.59,1.97-10.45,3.31-10.76,3s1.35-2.38,3.83-4.45c2.38-2.07,4.14-4.14,3.83-4.45-.52-.41-8.28,1.35-16.46,3.93l-2.17,.72,2.07-2.38c1.97-2.17,1.86-2.17-4.04,.41-3.42,1.55-6.31,2.48-6.52,2.28s1.55-2.07,3.93-4.14c4.86-4.14,4.66-4.35-2.17-1.97Zm86.94,38.09c0,.21-.93,2.9-2.07,5.8-1.24,2.9-1.97,5.69-1.86,6.21,.21,.52,2.59-1.86,5.38-5.28,2.9-3.42,5.59-6.21,6-6.21,.52,0,.83,3.93,.72,8.8-.1,4.86,.1,9.11,.31,9.42,.31,.31,4.45-3.62,9.21-8.8,4.66-5.07,8.9-9.11,9.42-8.8,.41,.31,.83,4.86,.83,10.04l.1,9.52,5.07-5.49,5.18-5.49v3.11c0,4.35,1.04,4.04,4.45-1.45,3.42-5.38,4.86-5.9,4.97-1.86,.1,1.66,.41,4.04,.83,5.38l.62,2.48,3.42-2.9,3.31-2.79v3.11c0,5.07-1.66,8.18-5.9,10.97l-3.93,2.69h5.49c4.86,0,5.38,.21,5.38,2.28-.1,1.35-.72,3.52-1.55,4.97-2.9,5.07-2.38,5.49,7.56,4.66,10.35-.83,10.87-.52,12.11,6.21,.83,4.76,3.11,7.76,5.9,7.76,1.24,0,1.86,.72,1.86,2.59,0,6.21-4.24,9.83-9.42,7.97-2.17-.83-2.07-.93,1.24-1.66,3.42-.83,3.31-.93-4.24-2.79-4.24-1.14-9.63-1.86-11.9-1.76l-4.14,.31,8.07,5.07c6.83,4.24,8.59,4.97,12.21,4.55l4.14-.41-.72,4.24c-.72,4.55-2.07,6.73-4.14,6.73s-3.62,3.62-3,6.42c.83,3.42-6.11,12.11-12.11,15.32-2.69,1.35-5.18,2.28-5.49,1.86-.41-.31,.1-2.17,1.14-4.04l1.76-3.42-2.9,1.86c-1.66,1.04-4.45,2.79-6.42,3.93-1.86,1.14-3.42,2.38-3.42,2.9,0,.41,1.86,1.04,4.14,1.45,2.28,.31,4.14,1.04,4.14,1.45,0,1.24-13.97,5.49-15.84,4.76-.93-.31-1.76-1.55-1.97-2.79-.21-1.45-1.35-2.48-3.42-3-10.76-2.48-13.04-3.42-15.01-5.49-2.17-2.28-2.17-2.48-.31-3.42,1.76-1.04,1.76-1.24-.62-3.73-1.45-1.45-2.9-2.69-3.31-2.69-.31,0-1.24,2.17-1.97,4.86-1.14,4.76-1.04,5.07,1.55,7.25,1.45,1.35,3.73,2.59,4.97,2.79,10.56,1.97,12.94,3.52,14.7,9.63,.62,2.17,.31,2.38-3.11,2.38-2.07,0-11.18-1.66-20.29-3.62-18.73-4.04-24.22-4.55-14.7-1.24,9.52,3.42,8.9,4.04-1.14,1.24-4.86-1.35-8.9-2.17-8.9-1.76s2.79,2.28,6.21,4.14,6.21,3.83,6.21,4.35c0,1.45-17.91-6.21-19.87-8.49-1.76-1.97-1.76-2.28,0-5.28,.93-1.66,3.73-4.55,6.21-6.31,4.97-3.52,5.28-4.55,1.86-7.76l-2.38-2.28-4.86,9.63c-2.69,5.28-5.59,10.04-6.42,10.45-2.69,1.55-7.45-.31-10.76-4.04-4.35-4.97-4.14-6.73,.62-5.38,5.38,1.45,5.49,.31,.21-2.38-4.04-2.17-4.24-2.48-1.86-2.79,5.28-.62,5.69-1.14,3.11-3.83-3-3.21-6.31-3.31-8.9-.41-1.04,1.24-3.21,2.79-4.76,3.62-2.69,1.45-2.9,1.35-4.45-1.55-3.52-6.93-1.35-8.9,6.21-5.69,2.07,.83,4.04,1.35,4.24,1.14s.1-1.86-.21-3.73c-.52-2.59-1.14-3.21-2.48-2.9-1.24,.31-2.28-.62-3.52-3-.83-1.97-1.97-3.52-2.48-3.52s-2.38,2.17-4.35,4.76c-3.73,5.18-3.52,5.28-7.66-2.69-3.62-6.93-6.31-21.74-3.93-21.74,.41,0,2.9,3.52,5.38,7.76,2.59,4.35,4.76,7.45,4.97,6.93,.1-.41-.72-3.52-1.86-6.93-2.69-7.76-2.69-7.97,1.24-7.56,2.69,.31,3.42,.93,4.66,4.45,.72,2.17,2.38,5.18,3.62,6.42,3,3.21,11.07,5.49,19.15,5.49,11.07,0,15.84-3.93,15.84-12.94-.1-6.52-1.76-11.18-6.31-17.29-4.66-6.42-7.97-7.76-14.28-6.11-7.35,1.97-12.63,5.38-16.15,10.45-2.38,3.42-4.24,4.86-7.14,5.59-4.97,1.35-5.9,0-5.59-7.66l.31-5.69,6-.52c4.35-.41,6.52-1.14,7.56-2.59,1.66-2.17,.41-3.62-3-3.62-1.14,0-2.17-.93-2.48-2.07-.41-1.66-.93-1.86-2.59-.93-1.14,.62-2.38,.83-2.69,.41-1.24-1.14,5.9-13.46,10.25-17.7l4.24-4.04-1.66,4.04c-3.11,7.45-1.66,7.25,5.69-.72,4.04-4.35,7.76-7.97,8.18-7.97,.52,0-.1,2.38-1.24,5.18-1.14,2.9-1.86,5.49-1.45,5.9s2.17-1.14,4.04-3.31c6.62-8.07,7.66-9.11,8.18-8.18,.41,.52-.93,3.62-2.9,6.93-1.86,3.21-3,5.9-2.38,5.9,.52,0,5.18-2.79,10.35-6.31,5.18-3.42,9.63-6,9.94-5.69s-1.14,3.62-3.21,7.35c-1.97,3.73-3.31,6.73-2.79,6.73,.41,0,4.66-4.24,9.32-9.32,7.45-8.07,10.45-10.66,10.45-8.8Zm65,16.15l.41,3.52,1.35-2.59q1.45-2.48,1.55,2.07l.21,4.66,2.38-5.07c1.35-2.69,2.79-5.38,3.42-6,.52-.52,2.17,2.48,4.14,8.18,1.86,5.07,3.31,9.42,3.31,9.83,0,.31-2.17,.93-4.86,1.35-2.79,.31-7.45,1.76-10.56,3.21-3.11,1.35-5.69,2.38-5.9,2.17-.21-.1,.62-2.28,1.76-4.76,2.69-6.11,2.48-7.25-1.76-9-1.97-.83-3.52-1.86-3.31-2.28,1.76-3.83,5.69-9.42,6.52-9.21,.62,.21,1.14,1.97,1.35,3.93Zm18.63,29.71c.31,3.83,.1,4.45-1.45,4.14-2.48-.41-6-5.49-5.18-7.56,.41-1.14,1.55-1.55,3.42-1.35,2.59,.31,2.9,.72,3.21,4.76Zm-112.61-.83c2.07,1.04,4.14,6.11,4.14,9.94,0,5.07-11.39,7.66-15.53,3.52-3.11-3.11-2.59-6.93,1.45-10.97,3.62-3.62,6.52-4.35,9.94-2.48Zm130.93,39.95c-1.24,.93-1.35,1.35-.31,1.66,.93,.41,1.35,3.11,1.35,10.25,0,8.49-.41,10.56-2.9,15.94-2.59,5.59-8.38,12.94-10.14,12.94-.31,0-1.45-2.07-2.38-4.66-1.04-2.59-1.97-4.66-2.17-4.66s-1.04,.31-1.97,.62c-1.45,.52-1.45,.93,0,3.73,2.07,4.04,1.24,7.14-3.11,10.97-4.04,3.52-18.42,9.52-18.94,7.87-.21-.62-3,.21-6.62,1.97-3.42,1.66-6.42,2.79-6.62,2.59-.31-.21,6.83-6.93,15.84-14.8,20.91-18.53,27.32-25.15,30.43-31.26,1.35-2.69,3.11-6.11,3.93-7.56s1.55-4.24,1.66-6.21c.1-1.97,.83-5.07,1.55-6.73l1.35-3.11,.41,4.66c.21,3.31-.1,4.86-1.35,5.8Zm-34.16,61.48c-5.69,3.42-10.76,6.31-11.39,6.62-.52,.21-.72,.62-.41,1.04,.31,.31,2.07,.1,3.93-.52,1.86-.62,3.52-.93,3.83-.62s-1.14,2.38-3.21,4.66c-2.69,3.11-5.49,4.76-10.25,6.42-8.07,2.59-15.01,6.93-22.05,13.66-9.42,8.8-14.18,9.52-39.85,6.31-10.87-1.35-14.28-2.17-14.28-3.21,0-1.14,.93-1.35,3.83-.93,6,1.04,2.79-.72-11.28-6.11-7.35-2.79-13.25-5.69-13.25-6.42,0-.83,2.17-.21,6.21,1.86,17.39,8.8,29.71,10.35,48.65,6.21,16.97-3.62,27.43-8.28,32.19-14.08,1.35-1.66,1.24-1.76-.62-1.04-3.62,1.45-17.39,4.76-17.8,4.35-.21-.21,2.59-1.76,6.21-3.42,3.62-1.76,10.97-5.9,16.35-9.32,15.42-9.83,19.04-11.18,29.91-11.59,3.31-.1,2.79,.41-6.73,6.11Zm-121.2,29.5c7.25,3.11,15.01,7.25,17.39,9l4.14,3.42,19.04,.31c10.45,.21,19.04,.52,19.04,.72,0,.31-.72,2.07-1.66,3.93-2.59,5.38-6.73,7.25-17.29,7.76-8.49,.41-9.52,.31-15.63-2.79-3.52-1.76-7.35-4.14-8.38-5.28l-1.86-2.07,4.55,1.76c3.52,1.45,7.56,1.76,18.53,1.76,7.66-.1,15.11-.62,16.56-1.24,1.97-.83-1.04-1.04-12.42-1.04-16.87,.1-23.5-1.45-34.26-7.66-18.42-10.76-21.63-12.83-21.63-13.56,0-1.04-.62-1.24,13.87,4.97Z"/>
    <path d="M437.78,501.05c-.93,.62,1.86,1.66,8.8,3.31,10.45,2.38,13.77,4.14,13.77,7.45,0,2.17,.41,2.28,3.31,.72q2.07-1.14-.41-3.73c-5.38-5.8-21.22-10.66-25.46-7.76Z"/>
    <path d="M438.6,519.89l-3.62,1.86,3,1.24c3.31,1.24,4.76,.21,4.76-3.42,0-2.07,.31-2.17-4.14,.31Z"/>
    <path d="M759.67,387.92c-.62,1.35-2.38,3.31-3.83,4.24-3,1.97-4.66,1.66-14.7-2.79-6.83-3-10.35-2.07-20.39,5.28-3.93,2.79-7.45,5.18-7.97,5.18s-1.14-2.38-1.55-5.18c-.41-2.9-.93-5.18-1.14-5.18-.31,0-3.31,1.76-6.83,3.83-5.69,3.62-6.93,3.93-13.56,3.93-5.28,0-8.28-.52-10.56-1.97-3-1.76-3.42-1.76-5.8-.21-2.9,1.86-3.93,1.35-3.93-1.97,0-3.73-1.24-3.83-4.14-.31q-2.79,3.31-4.04,1.04c-2.17-4.14-3.21-2.38-3.21,5.59,0,8.49-.93,11.18-4.97,14.49-4.04,3.31-2.38,6.21,4.76,8.18,3.21,.93,9.73,2.79,14.49,4.24,9.32,2.79,9.32,2.69,6.11,10.76-.52,1.45-1.24,13.46-1.55,26.7-.52,27.84-.1,30.53,8.28,52.48,7.35,18.94,8.28,20.6,15.11,25.25,9.73,6.73,14.8,12.63,15.42,17.91,.41,4.24-.1,5.18-9.21,18.94-5.69,8.59-11.07,15.42-13.14,16.77-4.35,3-9.73,3.11-16.87,.31-3-1.14-6.42-2.07-7.56-2.07-2.07,.1-.52,1.24,9,6.62,3.11,1.76,3.21,1.97,1.35,2.79-3,1.14-8.59,1.14-11.18-.21-1.24-.62-5.69-4.45-9.73-8.49-4.14-4.04-7.56-7.04-7.56-6.52s1.86,3.42,4.14,6.52c3.42,4.35,3.83,5.49,2.38,5.49-2.9,0-9.32-4.24-12.01-8.07-2.69-3.62-5.28-11.39-4.66-13.97,.21-1.35,2.17-.41,9,3.93,14.28,9.42,26.29,11.8,38.4,7.87l5.69-1.86-8.38,.52c-21.63,1.24-36.33-5.69-47.61-22.77-6.93-10.35-9.83-18.94-10.56-30.64-.21-5.18-.83-9.52-1.14-9.52-1.66,0-3.21,2.69-3.21,5.69,0,1.76,1.66,10.56,3.73,19.56,1.97,9,3.52,16.56,3.31,16.77-.62,.52-7.56-19.36-9.52-26.91-2.59-9.83-3.62-24.84-4.24-62.72-.31-19.67-.83-36.85-1.14-38.3-.52-2.17-.83-1.76-2.38,2.79-1.04,3-3.42,7.87-5.49,10.87-7.35,11.18-7.76,11.9-5.69,10.25,1.04-.83,1.97-1.24,2.17-1.04,.62,.72-13.77,26.91-17.08,31.05-3.52,4.45-3.21,4.76,3.52,5.28l4.04,.31-5.9,8.07c-3.31,4.45-5.8,8.28-5.59,8.49,.21,.1,3.31-.83,6.93-2.28s6.73-2.38,7.14-2.07c.31,.31-1.35,3.62-3.73,7.35-2.28,3.73-4.24,7.04-4.24,7.35s1.86-.41,4.24-1.55c2.38-1.24,4.45-2.07,4.66-1.86s-2.28,4.24-5.38,9c-3.21,4.76-5.49,8.8-5.18,9.11,.21,.31,3.62-1.35,7.56-3.73,3.83-2.28,7.14-3.83,7.35-3.31,.1,.41-2.38,5.07-5.59,10.35-3.21,5.18-5.59,9.73-5.28,10.14,.31,.31,3.21-.93,6.52-2.69,3.21-1.86,6-3.21,6.11-3,.21,.21-4.04,5.18-9.42,10.97-5.49,5.8-9.21,10.56-8.49,10.56,.83,0,4.45-1.14,8.07-2.59,3.62-1.45,6.83-2.38,7.14-2.07s-3.42,4.55-8.28,9.42l-8.69,8.8,8.07-3.31c4.45-1.76,8.28-3,8.69-2.69,.31,.31-1.14,2.9-3.21,5.69-2.07,2.79-3.73,5.49-3.73,5.8,0,.41,1.45,0,3.11-.93l3.11-1.66v3.21c0,1.97-.93,4.14-2.48,5.69l-2.48,2.48-6.52-2.17c-5.07-1.55-8.38-1.97-13.87-1.55-15.21,1.14-29.6,6.11-25.46,8.9,1.14,.72,.72,1.97-2.59,6.42l-4.04,5.59,6-3.42c6.21-3.52,6.11-3.52,7.35,2.17,.52,2.38,.1,3.11-2.69,4.86-4.45,2.69-6.83,2.59-13.46-.31-10.14-4.55-14.28-7.66-14.28-10.97,0-3.11,1.76-5.07,6.73-7.66,1.76-.93,2.48-1.66,1.86-1.76-2.59,0-1.24-1.76,2.79-3.62,2.28-1.04,4.14-2.17,4.14-2.59s-3.11-.31-6.83,.21-7.35,.72-7.97,.52c-.52-.1,2.48-1.97,6.83-3.93,4.35-1.86,7.97-4.04,7.97-4.76,0-.62-1.76-1.35-3.83-1.55-3.83-.31-3.73-.41,3.83-3.11l7.76-2.79h-4.66c-2.59-.1-7.45,.62-10.66,1.45-21.43,5.59-35.09,22.56-37.47,46.78l-.72,7.35-4.76,2.07c-2.69,1.14-4.97,1.97-5.18,1.86-.1-.21,1.45-5.28,3.62-11.28,2.07-6.11,3.52-11.28,3.21-11.59s-2.17,.21-4.24,1.04c-5.59,2.38-5.69,1.97-.72-3.11,4.45-4.55,4.55-4.66,1.55-3.62-11.49,4.04-29.08,16.25-49.06,34.05-7.14,6.31-13.04,11.28-13.25,11.07s.1-2.38,.62-4.86c.52-2.48,.93-4.66,.83-4.76-.21-.1-3.93,.93-8.38,2.38-4.45,1.35-8.38,2.28-8.69,2.07-.31-.31,.72-2.17,2.28-4.24,1.55-2.07,2.69-4.04,2.48-4.55s-4.86,1.24-10.45,3.83c-5.49,2.59-10.35,4.35-10.76,3.93-.31-.31,.41-1.76,1.76-3.21,1.35-1.45,1.97-2.59,1.45-2.59s-7.14,2.59-14.7,5.8c-7.56,3.21-14.08,5.59-14.39,5.18-.41-.31,.93-2.07,2.9-3.73,1.97-1.66,3.21-3,2.9-3.11-.41,0-4.35,2.07-8.8,4.66-8.07,4.55-9.94,4.76-7.66,.62,.62-1.24,.72-2.17,.21-2.17s-5.49,2.59-11.07,5.69c-12.73,7.25-13.04,7.25-10.35,.83,2.9-6.93,2.07-7.04-7.45-1.24-9.63,5.8-9.52,5.8-6.11,2.17,1.76-1.86,2.69-3.31,2.17-3.31-.41,0-5.49,2.59-11.07,5.69-5.59,3.11-10.35,5.69-10.66,5.69-.21,0-.21-1.45,.21-3.21l.62-3.21-8.59,5.38c-11.7,7.35-11.9,7.35-9.94,2.69,1.97-4.76,.83-4.76-5.69-.1-4.66,3.31-6.83,3.73-3.83,.72,2.28-2.28,0-1.24-9.73,4.35-9.52,5.49-9.63,5.59-10.14,3.11-.41-2.07-1.55-.93-7.97,8.18-4.04,5.8-7.25,10.66-7.14,10.87,.21,.1,6.31-2.59,13.66-6,14.39-6.73,17.49-7.35,18.53-4.14,.93,3,2.69,2.59,11.49-2.59,4.24-2.59,8.28-4.66,8.8-4.66s-.21,2.28-1.66,5.18c-1.45,2.79-2.38,5.18-1.97,5.18,.52,0,11.59-8.69,18.42-14.39,1.86-1.55,1.86-1.45,1.14,3l-.72,4.66,2.38-2.07c1.35-1.14,4.45-3.83,6.83-5.9,2.48-2.17,4.86-3.93,5.38-3.93s1.45,1.35,2.17,3.11c2.17,5.38,3.62,5.8,7.87,2.48,8.28-6.62,7.87-6.62,7.04-.62-.31,3-.31,5.38,.1,5.38s3.73-2.59,7.35-5.8c3.73-3.21,6.83-5.69,7.04-5.49s.62,2.69,.93,5.38c.83,6.21,1.66,5.8-22.05,9.42-39.23,6.11-79.39,14.28-96.47,19.67-7.14,2.28-7.97,2.28-7.04,.72,.52-1.04,1.66-2.48,2.59-3.21,3-2.48,4.86-7.04,3.62-9.21-1.35-2.48-3.73-3.31-10.14-3.42-8.49,0-16.56,5.38-23.91,16.15-3.73,5.38-4.04,9-1.14,17.18,2.38,6.83,2.48,11.49,.41,17.08-2.79,7.45-2.9,7.25,1.14,8.69,2.79,.93,3.52,1.66,2.69,2.48-2.07,2.07-1.24,2.79,3.31,2.79,2.79,0,6.73,1.14,11.07,3.31l6.73,3.21-4.66,1.04-4.66,1.04,6,1.55c3.21,.83,5.9,1.76,5.9,2.17s-2.59,1.55-5.69,2.59c-6.11,1.86-6.73,3.73-1.14,3.73s13.25,2.9,19.25,7.25c10.14,7.35,24.84,15.42,24.84,13.66,0-.41-3-4.24-6.62-8.49-6.52-7.66-6.62-7.76-4.14-8.59,3.31-1.14,3.21-1.97-1.35-7.14-6.93-7.97-7.14-8.59-1.55-4.55,6,4.35,6.93,3.42,2.79-2.69-3.31-4.86-4.55-5.49-16.77-8.59-6.73-1.76-11.28-3.52-13.77-5.49-4.76-3.83-9.32-12.73-9.32-18.42,0-6.83,.52-7.56,4.97-6.62,7.56,1.55,25.05,2.17,31.15,1.04,3.42-.62,9.63-2.48,13.77-4.24,29.19-12.32,44.51-14.8,78.66-13.25,24.22,1.14,63.14,5.28,70.59,7.66,4.45,1.35,4.86,1.35,3.62-.1-2.59-3.21-7.45-4.66-21.94-6.62-39.23-5.38-61.38-6.31-85.29-3.52-16.04,1.86-27.12,4.45-35.4,8.28-8.07,3.73-14.9,5.69-15.94,4.66-.52-.52-.62-2.38-.21-4.24,.62-2.9,1.66-3.83,8.18-6.73,4.04-1.86,11.07-4.55,15.63-6,15.53-4.86,22.36-5.38,72.97-5.38h47.09l4.66,2.69c2.59,1.55,5.59,3.83,6.73,5.07,5.18,5.69,25.05,15.21,49.27,23.6,30.74,10.56,50.2,12.52,79.59,7.87,7.87-1.24,.83,1.55-17.29,6.93-18.84,5.49-23.91,7.97-13.46,6.62,13.87-1.97,29.08-5.69,37.05-9.32,17.6-7.76,22.36-9.11,34.57-9.63,14.59-.52,21.22,.83,69.35,14.28,37.47,10.56,48.75,12.63,36.23,6.83-6.62-3.11-39.95-15.53-54.55-20.39-13.56-4.45-21.84-5.49-40.16-4.66-8.8,.31-17.18,.93-18.63,1.24-1.97,.41-2.17,.31-1.04-.52,.93-.52,5.59-1.86,10.35-2.9,6.83-1.45,13.35-1.86,28.98-1.86,22.67,0,26.7,.83,44.82,8.9,11.59,5.18,19.77,7.14,30.22,7.14,15.73,0,30.53-4.55,80.22-24.63l32.6-13.14,11.28,.31c8.28,.21,12.52-.1,16.25-1.35,6.62-2.17,9.94-1.14,18.11,5.8,7.25,6.21,12.83,9.21,22.56,12.21,11.49,3.52,16.15,2.69,16.15-3,0-3.52-2.07-6.31-8.28-10.87-9.83-7.25-29.08-12.52-55.89-15.53-8.28-.93-15.73-1.76-16.56-1.97s.83-1.45,3.62-2.79c6.52-3,19.77-3.42,25.05-.62,4.55,2.38,4.76,2.28,4.14-1.86l-.62-3.73,5.18,3.73c7.45,5.59,6.21,2.79-1.66-3.52-9.21-7.35-10.66-7.76-7.87-2.28,1.24,2.28,1.76,4.24,1.14,4.24s-7.14-3.11-14.59-6.83c-7.45-3.73-13.77-6.52-14.08-6.31-.21,.31,0,2.17,.52,4.24,.62,2.07,.83,3.73,.52,3.73s-4.76-3.11-9.73-6.83c-8.59-6.31-9.63-6.83-15.63-7.35-9.11-.72-19.46-7.04-38.4-23.29-3.83-3.31-7.66-6-8.59-6s-3,1.45-4.76,3.11l-3.21,3.21,3.42,2.48c1.86,1.45,5.69,3.31,8.49,4.24,2.69,.83,4.97,2.17,4.97,3s-3.42,2.17-8.8,3.52c-4.76,1.14-9,2.17-9.32,2.17-.41,0-.41-1.35,0-3l.62-3.11-11.28,3.62c-6.21,1.86-13.25,4.24-15.73,5.07-2.38,.83-4.76,1.24-5.28,.93-1.76-1.04-.93-5.49,1.45-7.14,22.36-15.53,28.67-23.39,32.4-39.75,.93-3.93,2.17-7.45,2.9-7.66,.62-.31,5.59,.41,10.97,1.55,13.25,2.59,35.29,3.62,44.82,1.86,16.46-2.9,25.98-7.76,47.3-23.91,7.14-5.38,14.9-11.07,17.39-12.63,2.38-1.55,4.35-3,4.35-3.31,0-.93-11.07,2.9-15.84,5.49-2.79,1.45-7.56,4.97-10.66,7.66s-6.31,4.97-7.14,4.97c-3.11,0-3.11-8.49,0-14.49,.72-1.45,3.52-4.66,6.21-7.14,4.97-4.55,5.59-6.42,1.55-4.24-1.86,1.04-1.45-.1,1.97-4.76,2.38-3.31,5.07-8.59,5.9-11.8,3.52-12.21,6.31-12.21,23.29-.41,13.35,9.32,19.67,12.83,23.18,12.73,3,0-2.69-4.66-16.04-13.04-11.7-7.35-23.08-15.84-22.36-16.66,.31-.21,7.45,1.97,16.04,4.97,11.49,4.04,15.94,5.18,17.29,4.35,1.66-.93,1.66-1.04-.21-2.07-1.04-.52-7.35-2.48-13.87-4.35-6.52-1.76-12.94-3.93-14.18-4.76-2.79-1.76-3-5.38-.83-14.39,1.76-7.35,1.97-15.11,.52-21.94-1.35-6.42-4.04-45.13-3.21-46.06,.31-.41,6.93-1.76,14.59-3,7.66-1.24,14.39-2.59,14.8-3,.52-.41-3-2.28-7.76-4.14-12.11-4.86-20.49-9.11-20.7-10.66,0-.62-.21-3.11-.21-5.38l-.1-4.14-18.11-.62c-15.73-.41-18.73-.83-22.77-2.79-5.8-2.79-9.94-2.9-14.28-.21-1.86,1.14-3.73,2.07-4.24,2.07s-1.35-2.59-1.76-5.69c-.52-3.21-1.35-5.8-1.97-5.9-.52-.1-1.97,1.55-3.11,3.62-1.14,2.07-2.48,3.73-3,3.52s-1.45-2.07-2.07-4.24l-1.14-4.04-4.45,3.83c-2.48,2.07-5.07,3.73-5.8,3.73-1.35,0-3.73-4.24-3.73-6.73s-1.76-2.59-2.9,0Zm23.6,32.6c0,.52-1.45,3.31-3.21,6.21-1.76,2.9-3,5.49-2.79,5.69,.21,.31,4.14-2.28,8.59-5.69,4.45-3.42,8.28-6,8.59-5.8,.21,.31-1.76,3.11-4.35,6.42-2.69,3.21-4.66,6.11-4.35,6.31,.21,.31,4.66-2.79,9.73-6.83,5.18-4.04,9.83-7.35,10.45-7.35s-1.45,3.52-4.55,7.76c-3.21,4.24-5.28,7.76-4.66,7.76s4.45-2.59,8.38-5.8c4.04-3.21,7.56-5.49,7.87-5.18s-.62,2.48-2.17,4.76c-1.55,2.38-2.69,4.66-2.48,5.18,.21,.62,3.31-.93,6.93-3.21,3.62-2.28,6.73-3.93,7.04-3.62,.31,.21-.52,2.69-1.66,5.28-1.24,2.69-2.17,5.07-2.17,5.38,0,.21,1.45-.31,3.11-1.24,3.52-1.76,3.93-.93,2.17,3.93-1.45,3.73-.41,4.04,4.14,1.04,4.66-3.11,6.11-2.59,3.62,1.14-2.69,4.24-1.97,4.97,2.17,2.17,2.17-1.45,4.24-2.59,4.66-2.59s.1,1.97-.72,4.24c-2.07,5.8-1.86,7.14,.52,4.24l1.97-2.38,1.66,5.8c1.35,4.55,1.66,9.21,1.35,22.05-.41,18.22-.72,19.15-9.73,31.88-5.49,7.66-9.94,10.25-16.66,9.42-4.55-.52-11.7,1.04-11.7,2.48,0,.41,.72,.93,1.55,1.35,2.07,.72,1.97,3-.21,4.97-1.97,1.66-16.56,5.59-17.49,4.66-.31-.31,1.66-2.07,4.35-3.93l4.86-3.52-3.31-.31c-3.73-.41-6.11,1.14-7.45,4.76-1.35,3.42-9.42,6.73-16.56,6.73s-19.25-4.04-20.8-6.93c-.93-1.76-.83-1.86,2.07-1.35,2.69,.52,3.93,0,8.49-4.14,2.9-2.59,5.07-4.86,4.86-5.18-.21-.21-2.59,.62-5.28,1.76-2.69,1.14-6.52,2.07-8.38,2.07-2.38,0-4.35,.83-6.21,2.69l-2.59,2.59-5.28-2.9c-5.38-2.9-14.39-11.9-14.39-14.39,0-.72,3.93-3.52,8.8-6.11,4.86-2.69,8.8-5.07,8.8-5.38,0-1.04-6.93,1.04-11.18,3.52-2.48,1.45-4.66,2.38-4.86,2.17s1.76-2.07,4.35-4.24c4.24-3.42,4.45-3.83,2.28-3.83-1.45,0-4.24,1.14-6.42,2.59l-3.83,2.69v-3.11c0-2.48,.31-2.9,2.07-2.48,1.86,.52,2.07,0,2.07-5.8,0-4.97-.31-6.31-1.55-6.31-1.14,0-1.55,1.24-1.66,4.35l-.1,4.45-1.45-5.18c-.93-2.9-1.86-10.04-2.28-16.04-.62-9-1.04-10.87-2.48-11.18-1.14-.21-2.79,1.55-5.18,5.9-1.86,3.52-4.04,6.31-4.66,6.31-1.66,0-1.86,1.04,2.17-10.97,4.86-14.18,4.45-13.56,8.8-15.21,5.49-2.28,9.32-5.69,16.25-14.7,4.04-5.38,6.31-7.45,7.04-6.73,.72,.72-.31,2.9-3.11,6.93-2.28,3.31-4.55,6.62-5.07,7.45-.41,.83,7.45-2.79,17.49-8.07,10.14-5.28,18.53-9.42,18.84-9.21,.21,.31-.72,3.93-2.17,8.18l-2.59,7.66,8.49-8.59c7.97-7.87,11.18-10.04,11.18-7.45Zm-148.01,148.22c1.35,2.17,2.07,5.18,1.97,8.07v4.66l-1.86-5.18c-3.83-10.76-3.83-13.66-.1-7.56Zm83.32,25.36c-.31,1.86-1.45,3.83-2.59,4.45-1.04,.52-6.93,1.04-13.04,1.04h-11.07l3.62-4.45c1.97-2.38,5.59-5.8,7.97-7.45,2.28-1.76,6.73-5.07,9.63-7.45l5.49-4.35,.31,7.45c.21,4.14,0,9-.31,10.76Zm-105.78,23.39c1.86,.83,4.04,2.28,4.86,3.31,1.45,1.76,1.24,1.76-2.59,1.14-11.7-1.97-11.07-2.07-16.56,2.59-7.04,5.9-21.01,16.46-21.63,16.46-1.55,0-.31-2.59,3.11-6.83,2.07-2.59,3.52-4.86,3.21-5.18-.31-.41-5.59,1.04-11.7,3.11-6.11,2.07-11.28,3.52-11.49,3.31-.72-.62,3.62-8.69,5.07-9.52,.72-.52,8.28-1.66,16.87-2.59,12.01-1.35,16.77-2.38,21.22-4.45,6.73-3.21,5.59-3,9.63-1.35Zm36.23,15.73c13.35,5.49,26.91,10.45,31.05,11.39,3.42,.72,3.52,1.66,.41,5.18-2.9,3.42-26.39,11.49-36.12,12.52-7.76,.72-17.91-1.35-25.98-5.38-6.21-3.11-8.9-6.11-9-9.73,0-2.59,2.48-7.25,3.93-7.25,.41,0,3.52,2.28,6.93,5.18,3.42,2.79,6.62,5.18,7.04,5.18,.52,0,.62-2.79,.21-6.31-.62-5.28-.41-6.52,1.14-8.28,1.76-1.86,1.76-2.28,.31-3-.93-.52-2.79-1.97-4.14-3.11l-2.48-2.17,7.56,.52c5.8,.41,10.25,1.66,19.15,5.28Zm-63.65,27.53c5.49,.52,17.08,2.38,25.57,4.14,24.53,4.76,46.06,3.93,65.62-2.38l9.94-3.31,10.14,1.76c13.35,2.28,58.58,11.9,61.27,13.04,2.69,1.14-15.84,1.86-70.38,2.9-72.97,1.45-88.5,.83-152.67-6-18.84-2.07-32.91-3-39.02-2.79-9.32,.41-9.52,.31-7.76-1.55,3.52-3.93,7.76-5.18,19.87-5.9,19.56-1.14,66.66-1.14,77.42,.1Zm-184.24,7.14c-.31,2.38-.1,3.11,.93,2.69,1.45-.62,1.76,.31,.52,2.17-.72,1.24-33.02,3.93-39.54,3.31l-3.62-.41,6.21-4.86c3.42-2.79,6.52-4.97,6.93-4.97s.83,1.86,1.04,4.14l.31,4.24,3.93-3.73c4.14-3.93,5.59-4.24,10.56-2.48,2.69,1.04,3.83,.83,7.25-.93,5.49-2.9,6-2.79,5.49,.83Zm373.85,16.97c0,.83-16.97,10.76-23.91,14.08-5.18,2.38-8.07,3.11-13.04,3.11-3.62,0-6.52-.31-6.52-.83,0-.41,2.07-2.07,4.66-3.73,2.59-1.55,4.55-3.11,4.35-3.31-.21-.31-5.69,1.86-12.11,4.76-6.42,2.9-12.21,5.07-12.73,4.86-.52-.1,1.76-2.07,4.86-4.24,3.21-2.17,5.69-4.14,5.49-4.35s-8.07,3.21-17.39,7.76c-9.32,4.45-17.08,7.97-17.29,7.87-.21-.21,.41-1.55,1.35-3q2.17-3.31-5.07-.1c-5.69,2.48-12.01,3.42-12.01,1.76,0-.41,.62-1.45,1.35-2.17,1.04-1.14,.93-1.35-.62-.72-1.14,.31-3.21,.93-4.66,1.24l-2.79,.72,2.9-2.28c5.69-4.66,4.35-4.86-19.46-2.59-6.83,.72-6.93-.52-.21-2.69,5.38-1.66,4.14-2.38-2.17-1.24l-5.28,.93-.31-3-.31-2.9-7.56,3.62c-4.24,1.97-7.76,3.62-7.97,3.62s.1-1.45,.72-3.21c.62-1.66,.83-3.42,.41-3.73-.31-.31-3.73,.83-7.56,2.59-7.35,3.21-8.69,3.42-6.52,.72,1.97-2.28,.62-1.86-5.18,1.66-2.9,1.76-5.59,3-5.9,2.59-.31-.31,.62-3.31,2.07-6.73,1.45-3.31,2.38-6.42,2.07-6.73-.41-.31-4.04,1.24-8.18,3.52-7.87,4.35-9.21,4.86-8.18,3.11,1.14-1.86-1.04-1.14-10.97,3.52-5.38,2.48-9.94,4.35-10.14,4.14-.31-.21,1.35-2.28,3.52-4.55,2.28-2.28,3.73-4.14,3.42-4.14s-4.97,2.28-10.25,5.18c-5.38,2.79-10.14,5.18-10.76,5.18-.52,0,1.14-2.17,3.62-4.76,5.59-5.9,4.35-5.49-7.66,2.07-5.07,3.21-9.42,5.59-9.73,5.38-.21-.31,1.04-2.59,2.79-5.18,2.9-4.24,3.93-6.83,2.69-6.83-.21,0-4.45,1.86-9.32,4.04-9.11,4.24-10.66,4.45-6.11,.93,4.04-3.21,2.07-3.52-2.69-.41-5.59,3.73-6.21,3.42-1.97-1.14,4.24-4.45,2.17-3.93-6.11,1.55-9.11,6.11-9.42,6.11-3.31-.21,3.11-3.21,5.28-5.8,4.76-5.8s-4.86,2.38-9.83,5.38c-4.86,2.9-9.32,5.49-9.94,5.69-.52,.31,2.48-2.79,6.73-6.83s7.25-7.25,6.62-7.35c-.52,0-1.45,.41-2.07,.93-.52,.41-4.66,2.79-9.21,5.28l-8.28,4.45,5.18-5.38c5.59-5.8,5.28-6-3.83-3.62-3.42,.83-6.42,1.35-6.62,1.14-.62-.52,7.25-5.69,10.76-7.14,1.97-.72,37.16-1.04,114.06-1.04,61.17,.1,117.06-.31,124.2-.72,15.11-.93,33.12-1.35,33.12-.72Zm-281.53,2.28c0,1.45-7.87,3.62-11.07,3-5.69-1.04-3.93-2.48,3.62-2.9,3.83-.21,7.04-.41,7.25-.52,.1-.1,.21,0,.21,.41Z"/>
    <path d="M807.08,466.79c-9.21,3.52-14.28,16.46-9.83,25.15,2.28,4.45,13.77,7.45,20.39,5.28,7.35-2.38,13.14-11.7,11.28-18.22-1.35-4.76-4.76-9.52-8.38-11.39-2.9-1.55-10.35-1.97-13.46-.83Zm14.59,8.59c3.83,2.07,1.35,9-4.24,11.9-2.69,1.35-3,1.24-6.11-1.86-3.93-4.14-3.93-4.86-.52-8.38,2.9-2.9,7.25-3.52,10.87-1.66Z"/>
    <path d="M862.04,601.76c-7.56,1.14-32.71,10.14-31.46,11.39,.41,.41,4.35,.31,8.59-.21,22.98-2.79,38.19-2.07,50.51,2.38,7.45,2.79,18.01,12.73,20.49,19.15,1.97,4.97,2.59,18.32,1.24,25.15-.62,3.31-.41,3.11,1.76-1.55,3.42-7.04,4.14-12.83,2.69-21.53-1.45-8.38-6.52-21.22-10.14-25.57-5.59-6.62-28.36-11.49-43.68-9.21Z"/>
    <path d="M192.78,612.42c-19.77,3.73-31.98,7.97-39.33,13.66-5.8,4.35-12.73,14.49-18.73,26.81-7.35,15.42-8.69,19.87-8.69,29.29,0,13.97,8.28,37.36,13.97,39.54,1.45,.62,2.9,1.04,3.21,1.04,.21,0-.93-2.48-2.69-5.49-6.52-11.49-9-22.67-7.25-31.57,1.86-8.9,3.21-10.14,2.48-2.28-.41,3.73-.41,6.52-.1,6.21s2.38-6.93,4.66-14.8c2.38-7.87,5.38-16.77,6.83-19.87,3.42-7.56,9.63-14.08,16.87-17.6,3.31-1.55,9.32-5.18,13.46-7.87,15.42-10.45,24.94-13.97,34.98-12.94,6.21,.62,37.57,6.93,54.75,10.97,5.59,1.24,9.63,1.76,10.25,1.14,1.04-1.04-25.67-10.14-41.71-14.08-13.35-3.31-32.09-4.24-42.95-2.17Z"/>
    <path d="M849.51,665.31c0,2.79,2.59,9.63,4.76,12.63,2.69,3.62,6.52,5.38,7.56,3.52,.52-.72,3,.83,6.62,4.14l5.9,5.28v-4.35c0-7.76-4.45-15.11-12.21-19.87-1.86-1.14-3.62-1.86-3.93-1.55s0,2.48,.72,4.76c1.55,5.38,.62,6.42-2.38,2.59-4.45-5.49-6.93-8.18-7.04-7.14Z"/>
    <path d="M898.36,678.45c3.73,3.31,5.28,6.73,4.45,9.94-.72,2.79-.72,2.69-6.21-3.42-5.49-6.11-5.59-6.11-7.66-4.24-2.79,2.59-4.66,8.28-3.93,12.63,.31,1.86,2.07,5.59,3.83,8.28,3.93,5.59,7.25,14.49,7.25,19.36,0,5.49-2.38,7.66-11.39,10.45-6.73,2.17-34.36,6.73-41.3,6.83-1.45,.1-1.35,.31,.31,1.55,1.76,1.35,1.66,1.45-1.55,2.38l-3.52,1.04,3.42,.72c1.76,.41,3.31,1.04,3.31,1.24,0,1.04-7.14,10.14-10.04,12.94-1.55,1.55-4.55,3.52-6.52,4.35-3.31,1.45-3.42,1.66-1.35,2.28,1.45,.41,2.38,1.55,2.59,3.31l.31,2.59,3.42-2.9c1.86-1.55,3.62-2.59,3.93-2.38,.21,.31-.52,3.21-1.76,6.42-1.14,3.31-1.97,6.11-1.76,6.31,.52,.52,12.21-14.8,12.21-16.04,0-.41-1.35-1.14-3.11-1.55-1.66-.41-3.31-1.04-3.62-1.55-.83-1.35,2.69-4.35,4.35-3.73,.83,.31,2.17,.62,3.11,.62,1.04,0,1.35,.62,.93,1.66-.62,1.55,.41,1.66,8.38,1.24,7.56-.41,10.14-1.04,14.8-3.52l5.69-3-5.18-.52-5.18-.52,5.18-2.69c2.9-1.55,8.9-4.24,13.46-6.21,9.32-3.83,15.32-9.11,19.04-16.66,2.48-5.28,2.59-6.83,1.97-29.6-.41-16.25-1.04-17.8-7.56-19.25l-3.11-.72,2.79,2.38Z"/>
    <path d="M584.23,727.93c-22.77,3.83-30.43,7.76-36.74,18.94-4.24,7.56-7.66,10.14-19.15,14.59-6.62,2.59-11.39,5.18-14.39,7.87l-4.45,4.14,10.76-4.66c5.9-2.59,10.97-4.45,11.28-4.14,.62,.62-.41,2.79-5.38,11.59-2.07,3.62-3.21,6.52-2.69,6.52,.62,0,4.86-2.9,9.63-6.52,10.04-7.66,24.01-14.8,39.02-19.77,18.22-6,30.84-6.73,43.89-2.28,6.42,2.17,8.59,2.17,6.83,.1-1.86-2.28-.62-1.97,5.49,1.55,7.76,4.35,9,3.83,3.11-1.14-5.28-4.66-6.93-6.83-4.04-5.8,.93,.41,9.52,5.18,19.04,10.66,9.52,5.49,17.8,10.25,18.32,10.56,.62,.31-3.31-4.04-8.59-9.63-5.38-5.69-9.21-10.45-8.69-10.66,.62-.21,2.9,.1,5.07,.72l3.93,1.04-5.59-5.18c-10.04-9-14.9-10.45-40.99-12.32-20.08-1.35-26.5-2.17-25.88-3,.21-.41,3.73-1.35,7.76-2.07,3.93-.72,7.45-1.76,7.87-2.28,.72-1.24-2.17-1.04-15.42,1.14Z"/>
    <path d="M587.13,773.57c-8.9,1.35-16.46,3.73-25.88,8.18-8.59,4.04-25.98,15.11-28.05,17.7-1.55,1.86-3.83,8.9-3.31,10.25,.21,.52,3.73-1.24,7.97-4.04l7.66-5.18-4.04-.31-4.04-.41,7.97-3.83c9.21-4.45,10.14-4.66,9.32-1.55-.41,1.76-.21,2.07,1.24,1.55,1.04-.41,3.62-.72,5.8-.72,2.9,0,4.04-.52,4.35-1.76,.21-1.14,4.04-2.9,12.11-5.59,6.52-2.28,12.01-3.83,12.21-3.62s-2.17,2.59-5.38,5.28c-3.11,2.69-5.59,5.18-5.28,5.38,.21,.21,4.66-1.66,9.83-4.24,5.18-2.59,9.83-4.76,10.45-4.76,2.59,0,.52,2.9-4.76,6.73-3.11,2.28-5.28,4.24-4.86,4.35,.52,.21,4.14-1.04,7.97-2.79,8.28-3.83,10.66-3.62,5.38,.31-5.28,4.14-4.66,5.18,1.76,2.79,2.9-1.14,5.49-2.07,5.59-2.07s-.72,1.66-1.97,3.73l-2.17,3.62,3.83-.72,3.93-.72-2.69,5.28c-1.45,2.9-2.69,5.59-2.69,5.8,0,.31,2.17-.41,4.76-1.55,2.69-1.14,5.07-1.76,5.28-1.55,1.14,1.04-2.17,8.18-7.97,17.29-3.42,5.28-6,9.73-5.8,10.04,.31,.21,2.9-1.45,6-3.73,3-2.38,5.59-4.04,5.8-3.83s-.41,1.76-1.24,3.52c-2.38,4.55-2.17,4.66,3,1.14,4.86-3.42,5.49-3.21,3.11,1.04-1.97,3.42-1.97,4.76,0,3.11,2.48-2.07,2.79,.52,1.55,13.04-1.66,17.7-1.24,20.08,1.55,8.9,4.04-16.15,6-29.19,6-40.57,.1-12.73-1.55-19.46-7.76-31.36-5.49-10.45-8.59-12.63-20.49-14.08-4.76-.62-9-1.04-9.32-1.04-.31,.1-3.31,.52-6.73,1.04Z"/>
  </g>
  <path d="M524.68,56.84c34.96-.82,70.24,3.02,104.39,10.51,34.17,7.5,67.21,18.34,98.64,33.82,60.99,30.03,113.3,75.68,151.68,131.77,38.27,55.91,62.03,120.81,68.61,188.25,3.99,40.91,2.5,82.11-.63,123.03-2.97,38.9-5.98,78.09-11.88,116.68-5.61,36.69-14.96,72.88-33.47,105.33s-43.02,58.48-68.77,83.64c-49.53,48.4-108.11,90.3-175.97,107.88-76.18,19.74-156.84,7.28-231.72-12.13-37.18-9.64-73.8-21.68-108.55-38.13s-65.43-36.58-94.82-59.9c-28.66-22.73-56.25-47.57-80.7-74.82-23.75-26.47-43.68-56.43-55.38-90.18-23.86-68.85-15.16-145.56-2.7-215.8,3.16-17.83,5.75-35.96,9.83-53.6,1.09-4.73-6.33-6.06-7.43-1.33-4.3,18.6-10,36.88-14.22,55.51-4.24,18.71-8.03,37.54-10.97,56.5-5.74,37.06-7.89,75.33-2.58,112.56,5.29,37.11,17.61,72.63,37.7,104.36s45.97,58.55,73.13,83.72c28.53,26.43,58.86,50.88,91.68,71.8s68.74,37.46,105.81,50.17c38.16,13.09,77.5,23.35,117.2,30.54,40,7.24,81.01,10.93,121.63,7.83,38.26-2.92,75.74-12.47,110.55-28.64,32.58-15.13,62.69-34.97,90.41-57.75s55.35-49.38,79.02-77.62c25.04-29.87,44.08-62.94,55.44-100.3,11.28-37.11,15.42-75.91,18.97-114.39,3.89-42.16,7.84-84.42,8.19-126.79,.33-39.9-3.07-79.71-12.53-118.54-8.16-33.49-20.74-65.74-36.84-96.2-32.34-61.21-79.92-114.07-137.84-152.04-60.28-39.5-131.98-64.61-204.31-66.44-17.46-.44-34.92,.29-52.29,2.12-5.55,.58-4.82,8.73,.71,8.6h0Z"/>
  <path d="M95.5,400.16c14.06-52.72,29.69-104.87,57.23-152.35,24.32-41.94,57.83-79.09,97.77-106.72,21.8-15.07,45.6-26.49,70.27-36.03,26.53-10.26,53.69-19.06,81.16-26.43,53.84-14.44,109.66-22.41,165.48-20,28.94,1.25,57.53,5.91,85.59,12.99,13.92,3.51,27.62,7.94,41.15,12.76,7.07,2.52,13.92,5.74,21.04,8.09s14.46,4.78,21.58,7.6c1.99,.79,3.94-1.76,2.15-3.27-10.67-9.02-21.36-16.82-33.83-23.18-11.92-6.07-24.16-11.07-36.85-15.27-25.67-8.49-52.14-13.79-79.03-16.47-57.51-5.75-115.23,.78-171.27,14.17-28.78,6.88-57.1,15.63-84.94,25.63-26.41,9.49-52.48,20.37-76.56,34.89-43.84,26.45-78.59,64.27-105.63,107.4-32.79,52.3-54.1,113.99-58.65,175.59-.16,2.18,2.79,2.75,3.36,.6h0Z"/>
</svg>