<?xml version="1.0" encoding="UTF-8"?>
<svg id="Layer_1" data-name="Layer 1" xmlns="http://www.w3.org/2000/svg" viewBox="0 0 1024 1024">
  <path d="M778.1,408.93c8.98-8.32,17.93-16.65,27.6-24.17s19.37-13.39,29.3-19.86c10.04-6.54,20.07-12.99,30.44-19,10.63-6.16,22.08-11.7,30.56-20.76,5.76-6.16-1.51-13.98-8.4-12.36-12.23,2.87-23.31,10.74-33.74,17.5-10.4,6.74-21.28,13.49-30.69,21.58-18.25,15.71-36.57,33.76-47.15,55.7-.65,1.36,1.09,2.29,2.08,1.37h0Z"/>
  <path d="M730.81,366.84c35.15-14.21,65.65-40.57,88.14-70.81,11.76-15.81,21.1-33.24,28.49-51.48,8.23-20.3,14.75-41.54,26.46-60.23,8.98-14.33,23.02-27.45,39.85-31.47s32.67,3.82,44.22,15.74c25.37,26.18,30.63,70.26,16.77,103.16-7.47,17.73-21.56,36.97-42.35,38.58-9.75,.76-19.59-2.18-28.2-6.59-9.43-4.83-18.81-11.46-26.42-18.8-4.89-4.71-12.55,2.32-8.8,7.8,6.11,8.95,12.68,16.88,21.7,23.03s18.94,11.14,29.66,12.83c22.46,3.53,43.14-6.79,57-24.21,27.09-34.04,30.52-84.09,11.55-122.74-8.95-18.24-23.16-35.1-42.2-43.25-19.79-8.48-41.38-5.33-59.3,6.07-40.24,25.61-45.79,75.65-65.4,115.18-10.43,21.02-23.7,40.36-39.16,57.99-15.64,17.85-34.08,32.77-53.37,46.5-1.37,.98-.29,3.38,1.36,2.71h0Z"/>
  <path d="M922.42,179.65c-4.82-2.41-8.84-2.41-13.55,.26-4.98,2.83-9.05,7.3-12,12.14-6.88,11.27-10.12,24.69-10.41,37.81-.48,22.27,11.23,60.04,40.54,52.64,27.84-7.03,30.2-45.09,27.9-68.22-1.35-13.56-5.78-29.05-17.53-37.26-12.36-8.64-27.06-5.81-36.88,5.2-21.43,24-14.46,60.43,2.03,84.82,1.78,2.64,6.92,1.3,6.23-2.19-3.75-18.93-10.95-40.11-3.69-59.1,2.43-6.36,8.37-17.81,16.66-16.93s12.54,11.27,14.2,18.45c2.34,10.14,1.82,20.97,1.06,31.27-.6,8.24-1.54,18.02-7.69,24.21-15.84,15.94-27.15-13.68-29.05-25.66-1.75-11.02-.9-22.52,2.9-33.04,3.25-9.01,9.11-19.14,19.14-21.58,1.35-.33,1.25-2.27,.15-2.82h0Z"/>
  <path d="M798.49,383.66c7.77,11,13.91,23.05,19.21,35.41s10.9,24.57,15.83,37.11c9.84,25.02,17.65,50.8,23.07,77.13,10.75,52.19,12.82,105.97,.28,158.07-10.37,43.07-31.01,83.57-59.85,117.19-14.22,16.57-30.43,31.24-48.59,43.39-9.13,6.11-18.68,11.62-28.66,16.22-10.86,5.01-22.92,10.02-35.13,7.74-2.74-.51-7.28-1.51-7.36-4.77-.1-4.52,6.6-9.34,9.91-11.55,9.73-6.49,19.34-13.06,28.65-20.16,18.32-13.98,35.14-30.07,49.31-48.26,28.8-36.97,49.28-80.85,57.57-127.06,17.78-99.05-19.25-202.47-93.53-269.67-39.19-35.45-86.99-62.05-138.26-75.19-23.55-6.03-47.8-8.65-72.08-8.77-24.22-.12-48.96,1.96-72.26,8.82-5.35,1.58-10.64,3.35-15.82,5.44s-9.63,4.79-14.55,6.98c-3.99,1.78-1.75,8.23,2.27,6.44,10.15-4.51,22.57-6.67,33.48-8.48,12.07-2.01,24.25-3.6,36.46-4.35,23.98-1.47,48.2-.22,71.87,3.96,52.21,9.23,99.88,34.8,141,67.66,39.77,31.79,70.82,72.4,88.82,120.18,17.19,45.6,22.58,95.59,14.15,143.66-8.01,45.69-27.66,89.04-56.59,125.29-14.43,18.08-30.37,35.84-49.11,49.57-9.4,6.88-20.21,12.28-28.88,20.07-9.39,8.44-12.67,21.97-2.38,31.38,20.8,19.02,52.48,3.36,73.06-7.68s38.66-24.88,55.12-40.88c32.96-32.04,57.17-72.96,71.4-116.54,16.44-50.33,19.42-104.27,11.99-156.55-3.89-27.35-10.66-54.15-19.8-80.21-8.82-25.18-19.09-51.48-33.97-73.76-7.15-10.71-15.5-20.56-24.89-29.37-.97-.91-2.5,.46-1.73,1.54h0Z"/>
  <path d="M335.38,846.19c-10.14-9.07-21.27-16.94-31.43-26.03-10.21-9.12-19.8-19.08-28.5-29.65-17.39-21.13-31.44-45.1-41.86-70.39-21.29-51.69-25.65-108.61-12.71-162.97,13.12-55.08,43.02-105.69,83.41-145.17,40.82-39.91,93.17-67.24,149-78.95,27.92-5.86,56.76-8.45,85.28-7.08,29.19,1.4,56.76,8.27,84.31,17.64,6.54,2.23,13.03,4.47,19.62,6.56,3.47,1.1,6.16-4.54,3.14-6.56-24.63-16.51-54.92-23.61-83.84-28.33-29.41-4.79-59.41-5.15-88.95-1.23-59.16,7.84-116.8,33.77-162.1,72.52-45.35,38.79-79.53,89.69-97.61,146.6-17.74,55.84-17.72,115.99,.83,171.62s53.06,104.3,101.57,134.11c6.09,3.74,11.97,6.69,18.76,8.95,1,.33,1.97-.84,1.08-1.64h0Z"/>
  <path d="M338.13,854.27c5,2.75,7.79,10.73,4.23,15.65-5.47,7.56-18.31,.23-24.23-2.86-16.15-8.42-31.54-18-45.61-29.59-29.14-24-52.33-54.54-69.36-88.14-18.39-36.27-30.08-76.14-36.33-116.25-3.43-22.03-4.39-43.91-1.76-66.08,2.41-20.26,5.95-40.3,11.21-60.02,5.6-21.01,13.07-41.52,22.43-61.15,9.57-20.08,21.54-38.81,31.78-58.51,2.01-3.86-3.16-6.47-5.95-3.91-15.85,14.52-27.6,34.11-36.99,53.26-9.62,19.62-17.29,40.17-23.32,61.17-13.07,45.52-17.7,92.24-9.89,139.13,14.01,84.2,51.6,168.74,122.83,219.56,9.29,6.63,19.09,13.04,29.44,17.9,9.32,4.38,20.38,9.93,30.99,8.14,8.59-1.45,14.59-8.19,14.62-16.93,.03-7.78-4.38-15.23-12.43-16.47-3.06-.47-4.29,3.62-1.64,5.08h0Z"/>
  <path d="M764.11,340.62c-23.93-27.5-54.77-48.32-87.22-64.57-32.55-16.3-67.68-27.9-103.54-34.14-72.25-12.57-147.15-2.11-213.64,28.67-36.81,17.04-72.77,39.48-98.84,71.02-2.82,3.42,1.55,8.87,5.32,6,27.91-21.26,55.98-42.41,87.32-58.45,31.14-15.93,64.9-27.33,99.33-33.49,69.61-12.45,141.73-3.78,206.35,24.97,36.67,16.31,69.2,39.18,100.79,63.65,2.34,1.81,6.32-1.16,4.13-3.66h0Z"/>
  <path d="M287.96,366.07c-4.19-3.51-8.13-7.23-12.03-11.05-4.26-4.18-9.22-7.72-13.65-11.76-8.16-7.45-15.75-15.5-22.84-23.97-14.62-17.45-27.19-36.4-39.83-55.29-6.81-10.17-13.74-20.35-19.36-31.24-5.3-10.27-8.7-21.05-11.06-32.33-4.43-21.16-9.71-41.43-29.1-53.62-15.69-9.86-35.82-11.37-53.44-6.54-19.7,5.4-35.27,20.18-45.71,37.26-22.18,36.28-25.74,91.98,2.63,126,14.76,17.7,37.65,30.37,61.27,27.09,22.26-3.09,43.54-18.64,47.1-41.81,1.19-7.72-10.98-12.51-13.73-4.43-5.28,15.53-18.95,27.88-35.39,30.27-17.8,2.59-35.26-6.29-46.62-19.68-25.44-30-21.22-78.98-1.62-110.91,8.93-14.55,22.98-26.74,39.94-30.43,14.93-3.25,32.07-.53,43.78,9.74,14.92,13.09,15.28,35.18,20.44,52.98,6.03,20.78,18.66,38.86,30.72,56.52,13.1,19.18,26.97,37.95,42.5,55.25,7.69,8.56,15.86,16.72,24.64,24.16,4,3.39,8.19,7.21,12.73,9.86,5.09,2.97,10.82,5.26,16.26,7.5,2.17,.89,4.29-1.94,2.35-3.57h0Z"/>
  <path d="M105.61,278.18c10.97,1.56,19.6-7.08,24.86-15.89,6.91-11.56,8.05-25.75,6.55-38.87s-4.07-28.86-14.61-38.39c-10.17-9.19-25.05-8.63-35.61-.34-20.32,15.96-24.91,49.27-17.32,72.61,4.01,12.34,11.67,24.53,25.3,27.08,12.39,2.31,24.99-3.54,32.73-13.17,17.24-21.46,16.06-57.11-2.43-77.32-3.53-3.86-8.57,1.72-6.4,5.67,9.19,16.75,12.48,36.28,3.79,54-3.52,7.19-9.42,14.61-17.54,16.64-9.98,2.49-16.24-3.76-19.96-12.37-7.38-17.09-5.7-38.67,4.38-54.42,4.42-6.91,13.35-13.75,21.78-9.29,8.6,4.55,11.03,16.17,12.92,24.83,2.49,11.4,4.12,24.15,.4,35.45-3.32,10.09-10.85,17.14-18.88,23.64-.06,.05-.05,.15,.03,.16h0Z"/>
  <path d="M124.18,312.43c10.26,7.96,21.59,14.66,32.39,21.9,11.23,7.53,22,15.76,32.43,24.35,20.77,17.11,39.55,36.33,59.85,53.93,5.73,4.97,13.6-2.37,9.74-8.63-14.69-23.77-36.35-42.78-59.33-58.37-11.58-7.86-23.65-14.93-36.13-21.29-11.87-6.05-24.77-11.65-37.91-14.08-1.18-.22-2.05,1.41-1.05,2.19h0Z"/>
</svg>