<?xml version="1.0" encoding="utf-8" ?>
<svg xmlns="http://www.w3.org/2000/svg" xmlns:xlink="http://www.w3.org/1999/xlink" width="1024" height="1024">
	<path fill="#221E1F" d="M493.425 101.789C506.536 100.86 519.864 101.627 532.988 102.162C562.611 103.372 592.441 105.759 621.703 110.679C698.966 123.67 745.979 146.19 797.664 205.343C813.434 223.323 828.106 242.237 841.602 261.98C848.118 271.684 854.252 281.639 859.988 291.823C863.942 298.685 867.682 305.94 872.313 312.363L872.754 312.969C877.405 314.667 882.057 316.341 886.477 318.592C912.737 331.967 930.285 360.042 939.174 387.358C954.456 434.321 948.567 481.885 926.274 525.422C907.071 562.922 876.079 598.718 851.576 633.489C826.087 669.659 803.825 708.806 774.53 742.136C716.383 808.295 593.908 866.745 509.823 893.75C448.359 912.622 383.027 922.946 319.848 905.923C251.301 887.454 209.145 833.022 175.314 774.041C152.525 734.312 136.582 691.941 121.453 648.88C108.865 614.04 97.9164 578.629 88.644 542.763C83.7435 523.286 78.7553 503.398 76.7167 483.383C74.0723 457.419 76.1357 429.655 83.0183 404.461C95.4901 358.808 126.169 334.29 165.227 311.929C175.722 264.868 185.53 216.648 219.885 180.389C263.323 134.545 360.69 114.16 420.838 106.825C444.834 103.899 469.273 102.511 493.425 101.789ZM512.989 879.727C590.798 853.434 709.197 797.239 763.146 736.14C777.709 719.647 790.436 700.942 802.835 682.787L844.458 621.794C868.959 586.558 898.005 554.085 917.12 515.369C937.142 474.814 940.512 430.662 925.838 387.772C917.286 362.775 901.373 339.479 877.036 327.72C872.486 325.521 867.705 324.079 863.03 322.215C855.072 309.014 847.912 295.396 839.703 282.322C809.523 234.255 769.821 183.27 719.569 154.947C699.21 143.472 676.656 135.439 654.02 129.828C611.353 119.251 566.593 114.86 522.694 113.995C511.809 113.781 500.5 113.313 489.662 114.2C463.523 115.475 437.494 117.201 411.541 120.737C356.309 128.262 265.217 148.355 226.43 191.446C202.822 217.674 191.495 253.566 184.008 287.368C181.89 296.93 181.53 308.202 177.104 316.98C172.969 325.181 156.194 332.272 148.301 337.329C135.214 345.714 123.211 356.261 114.035 368.851C93.9083 396.466 86.5677 434.53 88.4851 468.257C90.5685 504.903 101.026 541.531 111.325 576.607C130.121 640.62 155.286 713.343 188.012 771.208C205.353 801.87 227.257 832.741 253.682 856.238C293.961 892.055 348.908 904.796 401.806 901.655C439.769 899.401 476.713 890.792 512.989 879.727Z"/>
	<path fill="#221E1F" d="M392.209 337.999C399.769 330.418 412.421 320.586 423.739 320.374C426.336 320.326 428.271 320.88 430.154 322.711C431.185 323.713 432.003 324.985 431.805 326.487C431.505 328.773 429.307 330.586 427.484 331.73C424.019 333.903 419.93 335.207 416.244 336.964C405.782 341.951 398.782 349.474 395.9 360.789C394.265 367.21 393.686 373.76 393.134 380.343C391.35 401.608 390.71 417.352 378.538 435.837C383.797 436.759 393.239 437.762 396.35 442.528C397.313 444.002 397.953 446.601 397.566 448.342C397.261 449.714 396.482 450.532 395.288 451.203C384.727 457.145 361.542 436.473 351.754 462.579C347.767 473.213 348.372 487.729 347.339 499.174C345.9 515.119 343.294 531.304 343.996 547.347C344.282 553.879 345.199 560.623 347.949 566.618C350.519 572.221 354.711 576.714 360.623 578.761C370.332 582.123 382.48 578.541 391.273 574.06C425.022 556.866 438.724 505.314 465.07 492.586C469.406 490.491 473.208 490.125 477.916 489.923C477.389 484.87 474.412 472.759 477.926 468.548C478.722 467.595 479.745 467.002 481.026 467.061C483.19 467.16 485.166 469.361 486.248 471.029C489.457 475.981 489.217 482.173 487.896 487.69C487.561 489.093 487.199 490.489 486.809 491.878C501.522 490.395 520.222 489.012 530.155 476.404C534.597 470.765 536.759 463.683 535.86 456.515C534.991 449.578 531.57 443.261 525.884 439.097C516.664 432.344 502.643 430.851 491.571 431.378C487.284 431.582 481.906 432.487 477.753 431.32C475.619 430.709 473.992 428.977 473.516 426.809C473.153 425.136 473.556 423.462 474.508 422.057C476.006 419.847 478.863 419.323 481.335 418.927C496.967 416.424 514.248 419.381 528.78 425.308L528.338 424.732C526.088 421.756 523.881 418.157 524.382 414.243C524.534 413.054 524.996 411.804 525.999 411.075C527.279 410.144 528.886 410.069 530.37 410.435C536.601 411.969 546.861 427.205 551.998 432.574C562.782 443.846 574.769 453.784 589.535 459.306C632.074 475.215 689.772 451.98 727.322 431.162C746.594 420.477 759.096 409.062 782.198 408.078C789.477 407.767 796.776 408.362 803.804 410.346C813.686 413.135 822.302 418.955 827.34 428.054C836.104 443.88 832.439 465.068 827.605 481.486C818.473 512.503 800.089 540.763 782.744 567.732C755.874 609.509 728.176 650.532 690.567 683.586C672.951 699.068 652.702 711.13 632.165 722.298C584.968 747.962 528.715 766.627 475.493 773.893C428.157 780.356 374.438 778.361 328.472 764.744C278.176 749.844 235.278 719.812 209.901 673.074C198.708 652.462 192.321 629.787 185.048 607.61C173.016 570.925 159.513 533.312 155.566 494.708C153.571 475.187 154.468 452.877 160.097 433.955C163.085 423.912 168.009 415.247 177.501 410.171C186.409 405.407 195.429 406.085 204.739 408.995C212.996 411.577 220.525 415.822 228.488 419.111C253.296 429.357 272.735 427.681 296.6 415.335C302.227 412.424 307.604 409.046 313.228 406.13C324.41 400.33 338.171 394.554 350.602 392.333C353.195 393.179 356.065 393.892 357.301 396.598C357.96 398.04 357.991 399.864 357.256 401.273C351.548 412.205 295.962 412.35 303.511 442.169C305.52 450.104 310.129 456.464 317.198 460.622C323.048 464.063 329.742 465.825 336.251 467.549C340.507 439.599 363.855 439.983 373.161 418.784C379.119 405.209 378.834 389.684 380.013 375.167C380.518 368.944 381.455 362.836 382.381 356.668C384.867 349.55 387.571 343.956 392.209 337.999ZM446.183 534.812C442.079 540.542 438.226 546.42 434.38 552.324C450.404 549.708 466.507 547.587 482.475 544.629C520.989 537.745 558.699 526.941 595.015 512.385C611.162 505.726 627.078 498.516 642.733 490.771C647.313 488.52 651.472 485.099 656.102 483.103C658.142 482.224 659.963 481.831 662.147 482.278C663.189 483.08 663.506 483.497 663.916 484.747C663.826 486.715 662.994 487.846 661.576 489.115C655.281 494.752 642.633 499.519 634.671 503.345C585.948 527.11 534.971 542.822 481.726 552.635C464.006 555.9 445.921 558.828 427.949 560.233L412.853 576.636C516.429 575.657 614.525 540.962 704.679 491.999C725.614 480.63 749.524 468.947 766.313 451.701C772.809 445.028 778.859 435.905 778.885 426.256C778.892 423.949 778.438 421.161 776.466 419.665C776.289 419.531 776.074 419.459 775.878 419.356C746.037 437.132 715.19 454.512 682.502 466.475C675.877 468.941 669.122 471.043 662.267 472.772C656.586 474.213 650.844 475.108 645.355 477.237C637.676 480.215 630.395 484.257 622.945 487.762C614.738 491.623 606.257 495.066 597.826 498.41C546.337 518.837 501.16 528.416 446.183 534.812ZM435.125 764.754C442.893 764.394 450.65 763.818 458.387 763.027C459.35 751.91 464.854 699.539 461.021 693.387C457.593 691.591 453.812 690.634 450.049 689.819C433.904 686.325 417.354 684.361 401.061 681.62C390.525 679.848 369.072 673.873 359.506 675.034C356.536 677.381 354.929 680.178 353.398 683.569C348.881 693.574 346.556 704.603 343.159 715.024C340.08 724.468 334.352 736.191 333.393 746C333.211 747.865 333.221 749.86 334.57 751.323C343.525 761.039 413.141 764.925 428.204 764.875C430.511 764.888 432.819 764.847 435.125 764.754ZM321.52 741.212C326.193 728.237 330.569 715.156 334.645 701.981C336.569 695.824 338.816 689.539 340.16 683.238C331.893 675.976 320.926 671.75 311.374 666.436C294.081 656.814 276.422 645.306 261.987 631.682C257.776 627.708 246.685 614.653 241.04 614.823C240.807 614.83 240.577 614.865 240.345 614.887C231.989 620.776 230.778 632.66 229.154 642.093C226.038 660.196 229.082 678.205 239.765 693.335C254.334 713.966 278.184 730.119 300.675 741.181C304.708 743.164 309.368 745.919 313.796 746.72C315.743 747.073 317.503 746.93 319.115 745.699C320.334 744.769 321.031 742.598 321.52 741.212ZM567.246 615.178C568.158 616.88 568.856 618.516 570.471 619.655C577.253 621.395 616.89 608.194 625.465 605.122C625.442 596.894 626.461 548.334 623.622 545.082L622.914 544.986C602.041 553.479 580.955 561.717 559.461 568.525C559.894 583.824 560.628 601.162 567.246 615.178ZM333.275 495.396C333.847 490.68 334.337 486.007 334.591 481.259C319.794 477.548 304.246 471.773 295.969 458.078C291.434 450.574 289.958 442.44 289.412 433.793C256.552 442.687 242.223 439.976 211.771 425.602C205.367 422.579 198.467 419.363 191.22 419.976C187.363 421.795 183.133 424.187 181.628 428.465C180.668 431.192 181.4 433.645 182.739 436.098C187.347 444.54 196.721 452.525 203.59 459.24C233.177 488.161 263.584 512.494 299.819 532.661C309.536 538.069 319.484 543.622 330.061 547.165C330.119 540.017 330.141 532.883 330.63 525.748C293.486 511.383 260.973 488.492 231.393 462.177C227.95 459.115 219.559 452.879 217.82 448.869C217.189 447.414 216.685 445.514 217.301 443.979C217.564 443.323 218 443.239 218.573 442.904C221.26 443.078 222.533 444.508 224.633 446.137C231.746 451.653 238.179 458.247 245.034 464.105C257.67 475.058 271.118 485.037 285.262 493.958C300.102 503.065 315.146 511.442 331.169 518.303C331.779 513.193 332.08 508.147 332.275 503.01C302.493 491.896 273.942 474.261 249.341 454.247C246.007 451.535 240.398 448.08 238.722 444.063C238.184 442.774 238.154 442.018 238.51 440.696C239.756 439.909 240.583 439.822 242.029 440.172C246.244 441.19 268.721 458.896 274.633 462.925C293.154 475.546 312.996 485.922 333.275 495.396ZM470.678 505.339C462.49 511.315 457.023 518.497 451.301 526.787C472.318 522.925 493.341 520.133 514.262 515.557C542.539 508.738 569.67 500.874 596.712 490.057C605.405 486.58 614.379 483.115 622.591 478.588C600.879 476.419 581.666 472.885 563.152 460.51C558.233 457.221 553.983 452.938 549.051 449.71C550.615 461.818 549.485 474.548 541.832 484.537C532.478 496.749 514.854 501.847 500.259 503.626C490.38 504.831 480.489 504.365 470.678 505.339ZM320.14 555.523C317.419 564.752 317.394 575.889 316.229 585.501C314.521 599.585 310.899 614.922 311.494 629.098C311.632 632.381 313.123 635.128 314.612 637.976C331.313 646.271 385.762 657.803 404.018 656.33C405.477 654.898 406.275 653.75 406.759 651.743C408.89 642.903 408.444 632.793 408.857 623.691C409.262 614.772 409.97 605.778 410.059 596.858C410.069 595.563 410.047 594.268 409.993 592.974C404.094 591.859 398.255 590.948 392.232 591.165C369.864 591.973 353.335 599.209 337.945 576.945C334.291 571.659 331.492 565.3 329.742 559.131C326.533 557.678 323.487 556.589 320.14 555.523ZM545.169 572.606C516.667 581.762 487.164 589.227 457.506 593.455C445.197 595.21 432.19 594.73 420.087 597.191C419.979 604.891 416.515 650.776 420.874 654.587C422.101 655.66 423.832 655.749 425.378 655.943C459.994 658.56 493.648 650.093 526.752 640.922C533.028 639.183 543.636 637.543 548.626 633.408C550.468 631.882 550.813 628.906 550.932 626.683C551.171 622.208 546.924 574.422 545.299 572.695C545.263 572.657 545.212 572.636 545.169 572.606ZM650.691 574.676C651.844 576.627 652.953 578.627 654.229 580.499C678.232 573.668 701.822 561.295 717.46 541.263C715.621 534.554 710.039 510.772 706.993 506.238C694.663 512.453 682.286 518.574 669.863 524.601C658.281 530.092 646.512 535.169 634.896 540.583C639.498 552.243 644.772 563.626 650.691 574.676ZM679.783 674.909C700.081 656.879 718.453 636.79 734.601 614.966C733.795 609.532 733.06 603.147 728.224 599.662C724.27 596.813 719.318 597.227 714.733 597.617C696.897 600.918 680.262 609.28 669.771 624.651C669.128 625.604 668.518 626.578 667.944 627.574C668.029 636.192 668.666 644.78 668.924 653.391C669.224 663.42 669.088 673.491 669.097 683.526C672.93 680.962 676.287 677.897 679.783 674.909ZM545.215 678.166C529.744 680.134 514.198 683.744 499.079 687.526C491.7 689.371 484.101 691.101 476.903 693.582C475.44 716.03 476.265 738.034 477.481 760.461C482.792 759.431 488.179 758.145 493.527 757.384C507.401 754.214 555.659 743.602 564.447 736.359C565.199 734.905 565.148 733.556 564.983 731.965C564.29 725.29 561.786 718.659 560.467 712.07C558.732 703.403 558.371 694.341 555.747 685.85C555.009 683.464 553.554 679.811 551.192 678.557C549.248 677.526 547.302 677.916 545.215 678.166ZM767.53 554.271C758.831 562.728 748.043 573.961 747.775 586.94C747.726 589.346 748.172 591.519 749.175 593.703C755.349 586.706 769.045 565.536 768.584 556.101C768.529 554.969 768.639 555.397 768.014 554.46L767.53 554.271ZM734.312 547.448C746.34 538.979 768.172 522.429 770.953 507.124C772.375 499.3 770.48 479.513 765.851 473.136C765.423 472.546 765.514 472.698 764.816 472.407C756.885 477.595 748.817 482.568 740.62 487.323C733.862 491.29 726.452 495.036 720.359 499.999L732.74 542.071C733.246 543.864 733.708 545.686 734.312 547.448ZM217.833 494.243C210.589 502.859 195.402 521.646 196.149 532.961C196.872 543.912 220.078 572.508 228.741 579.931C228.938 580.099 229.151 580.247 229.356 580.405C231.022 581.957 232.35 583.587 234.834 583.254C237.043 582.957 238.715 581.215 239.857 579.427C247.837 566.935 248.895 530.759 246.866 515.727C240.957 509.738 226.803 494.876 218.373 494.243C218.193 494.229 218.013 494.243 217.833 494.243ZM183.498 540.8C180.934 543.982 181.1 546.697 181.508 550.612C183.33 568.125 202.945 631.547 215.699 642.246C217.152 643.464 218.015 643.502 219.802 643.329C219.847 643.325 219.891 643.314 219.936 643.307C224.625 634.655 223.177 627.105 220.504 618.15C217.928 609.524 214.988 600.99 212.169 592.439C207.105 577.075 203.129 562.007 193.369 548.731C191.513 546.206 189.032 542.995 186.218 541.562C185.357 541.124 184.441 540.956 183.498 540.8ZM646.989 641.972C630.693 648.754 614.952 656.885 598.792 663.993C588.833 668.373 578.606 671.802 568.592 675.949C570.389 692.643 572.693 714.136 578.769 729.817C579.887 730.692 581.232 730.357 582.612 730.156C596.83 728.09 644.567 703.26 655.083 693.359C655.198 681.863 656.422 651.486 648.181 642.961C647.786 642.553 647.47 642.272 646.989 641.972ZM262.082 525.011C259.402 527.622 258.081 530.736 256.921 534.225C253.396 544.823 252.529 556.065 250.413 566.967C248.928 574.616 246.006 583.135 246.02 590.898C246.028 595.853 247.645 598.912 251.173 602.382C261.967 613.002 287.435 626.181 301.18 632.519L302.796 633.202C305.104 630.279 314.285 562.382 315.111 553.917C306.978 549.326 298.631 545.126 290.509 540.529C282.509 536.001 271.078 527.451 262.657 525.172L262.082 525.011Z"/>
	<path fill="#221E1F" d="M626.174 274.214C640.016 273.236 654.393 274.383 668.066 276.581C689.028 279.951 715.3 287.28 728.179 305.299C739.4 320.997 739.222 340.728 736.15 358.913C743 362.612 750.527 365.509 757.027 369.78C759.938 371.693 763.57 374.55 764.134 378.235C764.415 380.068 763.674 381.814 762.485 383.175C761.535 384.261 759.879 385.481 758.364 385.502C755.314 385.543 730.372 369.791 724.504 367.315C698.407 356.302 662.625 354.198 634.624 356.303C603.568 356.303 571.687 364.38 542.676 374.942C531.494 379.013 520.373 384.343 508.924 387.482L508.038 387.721C507.853 387.578 507.671 387.433 507.485 387.292C506.909 386.854 506.329 386.433 505.784 385.954C499.012 380.009 495.324 366.439 494.64 357.768C493.547 343.906 500.819 331.884 509.548 321.741C538.315 288.317 584.088 277.45 626.174 274.214ZM512.221 371.979C532.643 364.284 567.895 350.225 589.097 348.299C589.617 337.919 591.298 329.613 595.769 320.208C596.02 324.779 596.395 328.897 599.946 332.269C601.873 334.098 604.367 335.017 607.02 334.851C609.57 334.691 611.808 333.86 614.017 332.623C617.047 330.284 619.599 327.527 620.164 323.573C620.586 320.564 619.737 317.515 617.82 315.158C615.008 311.675 611.656 310.507 607.463 309.494C617.481 302.777 630.083 301.322 641.799 303.569C653.974 305.903 665.724 313.33 672.614 323.697C676.926 330.186 678.409 336.703 679.542 344.308C694.269 346.213 709.976 348.607 724.042 353.521C725.659 339.88 725.824 322.46 716.956 311.012C705.299 295.965 675.514 290.454 657.296 288.323C648.064 287.243 638.274 286.466 628.993 287.198C589.916 289.727 546.148 299.966 519.327 330.688C512.706 338.271 507.2 347.6 507.883 358.01C508.211 363.016 510.013 367.532 512.221 371.979Z"/>
	<path fill="#221E1F" d="M240.157 329.446C238.005 326.406 236.335 323.476 235.753 319.72C234.487 311.554 238.407 303.961 243.016 297.55C252.757 284.002 267.683 275.901 284.025 273.287C308.313 269.403 334.534 276.781 354.246 291.197C370.364 302.986 382.948 318.09 386.093 338.187C385.795 347.28 382.956 352.583 378.004 359.972C376.393 362.092 374.75 364.187 373.076 366.256C341.499 348.711 304.072 335.437 267.414 337.634C259.798 338.086 252.24 339.239 244.835 341.078C237.571 342.878 215.92 352.591 210.597 350.55C209.246 350.031 207.836 349.077 207.349 347.654C206.831 346.146 207.043 344.507 207.811 343.13C211.55 336.414 232.668 331.543 240.157 329.446ZM292.578 323.558C293.807 320.762 294.875 317.785 296.779 315.376L297.447 315.335C297.7 316.52 297.907 317.762 298.221 318.928C298.698 320.698 300.054 322.308 301.681 323.137C303.732 324.182 306.218 323.938 308.323 323.196C311.997 321.901 315.194 318.933 316.839 315.413C317.968 312.995 318.348 310.306 317.378 307.762C316.741 306.09 315.446 304.595 314.264 303.276C321.636 304.004 327.209 306.021 333.768 309.344C333.902 309.453 334.033 309.566 334.17 309.671C339.359 313.619 344.439 316.565 348.744 321.682C356.831 331.292 358.042 342.171 370.087 348.104C372.518 342.221 373.283 337.433 370.812 331.327C363.413 313.048 346.721 299.398 328.837 292.026C318.029 287.571 305.616 284.665 293.868 285.149C278.907 286.706 264.114 292.476 254.364 304.379C252.315 306.88 248.614 311.936 249.019 315.204C249.185 316.544 249.92 317.581 251.039 318.292C256.722 321.904 285.565 324.39 292.578 323.558Z"/>
	<path fill="#221E1F" d="M762.191 637.381C762.711 637.571 763.741 637.856 764.212 638.215C764.853 638.703 765.323 639.241 765.465 640.039C765.944 642.742 763.596 645.799 762.036 647.804C758.072 652.896 753.589 657.721 749.317 662.567C735.964 677.839 721.369 691.981 705.683 704.846C641.197 756.786 554.499 790.297 472.633 800.266C414.859 807.301 358.121 802.12 303.596 781.147C291.913 776.653 279.87 771.702 268.977 765.516C255.389 757.798 243.284 748.239 231.015 738.629C229.278 737.174 226.662 735.293 226.498 732.814C226.411 731.494 226.928 730.742 227.724 729.789C233.703 728.008 244.47 739.265 249.023 742.78C276.578 764.058 315.815 779.86 349.663 787.17C384.634 794.59 420.506 796.828 456.128 793.813C536.399 787.215 632.37 752.535 696.027 702.857C711.009 691.081 725.125 678.242 738.266 664.44C743.975 658.517 757.621 640.196 761.793 637.614C761.923 637.533 762.058 637.459 762.191 637.381Z"/>
	<path fill="#221E1F" d="M317.226 169.257C350.335 167.609 381.67 177.4 409.917 194.202C425.868 203.69 435.059 213.437 454.663 214.39C479.253 215.586 503.709 208.3 527.008 201.317C586.662 183.437 650.75 160.467 712.112 184.951C723.372 189.444 765.304 209.807 769.001 219.4C769.585 220.915 769.529 222.028 768.805 223.502C767.971 224.09 767.69 224.427 766.646 224.576C762.457 225.174 758.483 221.293 755.486 218.888C674.263 160.228 615.406 184.051 528.289 210.148C502.487 217.877 474.752 224.998 447.615 222.18C429.718 220.322 415.035 207.465 399.805 198.934C388.732 192.595 376.976 187.531 364.763 183.837C352.1 180.183 339.003 178.252 325.824 178.097C320.252 178.081 304.43 180.541 300.403 178.532C299.087 177.876 298.559 177.083 298.151 175.718C298.356 174.737 298.67 174.067 299.374 173.332C303.358 169.176 311.809 169.548 317.226 169.257Z"/>
	<path fill="#221E1F" d="M673.861 206.722C675.618 206.705 677.322 206.777 679.024 207.256C682.761 208.307 686.198 210.293 689.946 211.347C699.595 214.058 709.274 215.85 718.595 219.691C739.137 228.158 757.104 248.204 765.34 268.734C766.391 271.354 767.305 274.154 766.162 276.871C765.439 277.526 765.264 277.81 764.284 278.078C762.921 278.451 761.513 278.107 760.516 277.066C757.112 273.51 755.141 266.85 752.854 262.438C750.166 257.255 746.643 252.349 742.707 248.045C733.086 237.526 721.371 228.622 707.085 225.921C700.36 224.65 695.064 224.103 689.012 220.642C686.67 221.262 683.761 222.362 681.341 221.804C678.409 221.129 677.098 218.305 675.63 215.965C647.893 219.555 618.486 220.498 591.907 229.755C572.991 236.344 555.318 246.857 536.875 254.739C518.687 262.895 499.739 269.237 480.305 273.672C462.083 277.787 436.757 282.915 420.176 272.286C417.408 270.512 414.131 267.706 413.565 264.264C413.346 262.927 413.574 261.593 414.423 260.518C418.27 255.647 428.134 266.861 432.415 268.461C442.344 272.169 455.395 269.419 465.535 267.567C491 263.094 515.785 255.369 539.282 244.582C556.194 236.728 572.295 227.57 589.993 221.468C616.816 212.221 645.829 209.89 673.861 206.722Z"/>
	<path fill="#221E1F" d="M881.823 495.188C883.354 495.489 884.026 495.627 885.21 496.732C885.852 498.083 886.107 499.059 885.689 500.513C883.451 508.286 879.039 516.455 875.369 523.67C866.859 540.537 857.465 556.943 847.226 572.821C778.09 679.282 685.793 768.746 577.229 834.53C577.054 834.58 576.884 834.659 576.704 834.679C575.433 834.814 574.99 834.449 573.967 833.802C573.617 832.172 573.987 831.428 575.146 830.201C579.394 825.704 586.112 822.639 591.271 819.223C599.512 813.69 607.712 808.096 615.87 802.441C637.234 787.838 657.861 772.185 677.675 755.539C733.661 708.66 783.24 654.623 825.139 594.818C835.57 580.054 846.014 565.228 855.053 549.554C865.268 531.84 873.498 513.812 881.823 495.188Z"/>
	<path fill="#221E1F" d="M290.331 186.212C310.139 185.128 329.361 188.155 346.076 199.504C351.861 203.516 357.18 208.161 361.934 213.354C369.503 221.691 387.803 247.273 389.569 257.968C389.802 259.375 389.824 261.17 388.77 262.275C387.76 263.335 387.109 263.405 385.754 263.568C383.778 262.926 382.58 261.883 381.363 260.196C379.079 257.03 377.709 252.842 375.87 249.344C370.96 240.001 365.466 231.02 358.535 223.021C341.532 203.4 323.717 195.979 298.161 194.22C288.104 193.174 275.284 196.656 266.039 200.45C246.291 208.557 229.833 225.584 220.494 244.603C217.795 250.099 216.106 255.954 213.7 261.567C212.511 264.343 211.346 267.355 208.366 268.547C207.626 268.548 206.993 268.554 206.322 268.189C205.132 267.543 203.858 266.401 203.611 265.018C203.111 262.212 204.744 258.696 205.697 256.09C210.533 242.864 217.362 230.97 226.277 220.033C242.935 199.598 264.277 188.783 290.331 186.212Z"/>
	<path fill="#221E1F" d="M393.991 154.908C401.377 155.011 410.777 162.052 417.379 165.372C427.546 170.486 446.071 179.665 457.028 180.853C472.434 182.523 508.438 172.481 525.086 168.563C531.476 167.059 538.227 165.082 544.793 164.628C546.273 164.525 547.976 164.548 549.315 165.304C550.298 165.858 551.115 166.678 551.288 167.829C551.573 169.732 550.712 170.819 549.59 172.19C535.292 174.765 521.125 178.018 506.938 181.131C491.009 184.627 472.174 190.301 455.818 188.563C441.562 187.049 408.555 172.004 396.073 164.617C394.293 163.563 392.184 162.077 391.86 159.85C391.568 157.846 392.824 156.349 393.991 154.908Z"/>
	<path fill="#221E1F" d="M803.817 365.211C804.759 365.146 805.702 365.11 806.647 365.1C821.801 364.966 837.6 369.913 848.499 380.765C863.083 395.285 866.974 419.785 867.057 439.468C867.236 457.878 862.816 476.042 854.199 492.312C852.69 495.22 850.785 499.234 848.325 501.442C847.257 502.4 846.755 502.497 845.365 502.374L844.593 501.438C844.086 496.934 848.314 490.829 850.409 487.007C858.483 469.475 862.855 450.053 861.378 430.714C860.086 413.799 855.568 394.137 841.977 382.717C831.302 373.747 814.056 369.323 800.3 370.488C794.733 370.959 789.306 372.953 783.724 373.318C782.086 373.425 780.493 373.486 779.196 372.355C778.921 370.856 778.939 370.747 779.579 369.364C784.944 364.997 796.932 365.645 803.817 365.211Z"/>
	<path fill="#221E1F" d="M160.615 584.334C161.696 584.714 162.666 585.034 163.485 585.869C167.983 590.457 170.486 600.036 172.77 606.022C183.398 633.871 192.471 662.083 198.17 691.389C199.541 698.443 201.367 706.749 200.832 713.909C200.662 716.191 200.159 717.391 198.457 718.899C197.034 718.708 195.354 718.509 194.321 717.395C193.607 716.624 193.268 715.649 193.136 714.63C192.727 711.489 192.809 708.214 192.487 705.042C191.752 698.075 190.649 691.151 189.182 684.301C185.582 666.922 180.812 649.807 174.905 633.071C172.42 626.081 169.802 619.138 167.053 612.247C164.149 605.103 158.142 594.764 157.532 587.336C158.102 585.721 159.242 585.193 160.615 584.334Z"/>
	<path fill="#221E1F" d="M855.028 359.864C856.819 359.924 858.479 360.278 860.17 360.882C882.264 368.769 900.739 388.351 910.418 409.282C924.404 439.527 923.314 472.663 911.89 503.419C911.519 503.526 911.141 503.658 910.746 503.647C909.418 503.612 908.981 503.315 908.066 502.482C907.652 501.515 907.507 500.801 907.629 499.767C908.06 496.143 909.406 492.376 910.341 488.846C911.776 483.51 912.967 478.11 913.908 472.665C919.762 437.112 904.725 396.418 874.777 375.637C872.201 373.849 869.512 372.128 866.752 370.64C863.676 368.981 856.447 367.114 854.773 363.794C853.998 362.258 854.573 361.391 855.028 359.864Z"/>
	<path fill="#221E1F" d="M347.808 825.719C355.968 825.089 384.53 828.894 391.438 832.87C392.723 833.609 393.868 834.688 394.102 836.229C394.284 837.422 393.967 838.994 393.164 839.929C392.254 840.987 391.171 841.128 389.868 841.074C385.456 840.891 380.668 839.271 376.379 838.241C368.341 836.31 360.412 834.613 352.125 834.179C346.415 834.098 340.922 834.478 335.268 835.237C328.761 836.111 309.962 841.361 305.091 839.912C303.967 839.578 303.183 838.889 302.794 837.746C302.368 836.493 302.703 835.539 303.426 834.514C307.741 828.397 339.595 826.18 347.808 825.719Z"/>
	<path fill="#221E1F" d="M127.896 392.742C128.269 392.82 128.68 392.884 129.018 393.074C129.721 393.47 130.348 393.986 130.636 394.744C130.994 395.685 131.026 396.184 130.686 397.144C129.008 401.884 123.297 410.046 120.828 415.581C107.581 445.28 111.698 468.039 123.693 497.251C125.94 502.722 129.227 507.847 131.2 513.402C132.068 515.846 131.576 517.088 130.473 519.363C129.664 518.913 128.828 518.476 128.128 517.859C123.385 513.677 111.967 480.313 109.896 472.1C108.403 466.27 107.483 460.307 107.149 454.298C106.309 437.239 111.377 421.884 119.023 406.852C121.506 401.969 124.184 396.816 127.896 392.742Z"/>
	<path fill="#221E1F" d="M652.013 368.229C661.44 367.008 675.223 370.129 683.101 375.495C690.342 380.427 693.47 387.19 695.102 395.468C689.379 386.959 686.407 379.203 676.543 374.636C649.85 362.278 606.83 378.519 581.044 388.077L553.366 399.214C547.441 401.592 541.062 404.585 534.806 405.855C533.852 406.049 533.225 406.346 532.409 405.792C537.401 400.721 552.066 396.869 558.939 394.306C589.657 382.849 618.941 370.505 652.013 368.229Z"/>
	<path fill="#221E1F" d="M296.959 793.769C297.976 793.991 298.737 794.201 299.656 794.729C303.976 797.214 312.364 809.811 313.308 814.683C313.032 816.408 311.927 817.495 310.857 818.799C309.745 818.545 308.864 818.236 307.946 817.546C303.161 813.95 295.336 803.879 294.898 797.796C294.754 795.807 295.75 795.081 296.959 793.769Z"/>
	<path fill="#221E1F" d="M474.372 387.385C477.576 387.6 480.154 388.85 482.736 390.701C485.261 392.512 488.414 395.579 488.631 398.91C488.778 401.176 487.819 402.353 486.489 404.014C482.938 403.905 480.205 402.812 477.322 400.723C474.88 398.952 472.589 396.32 472.2 393.22C471.887 390.726 472.851 389.249 474.372 387.385Z"/>
	<path fill="#221E1F" d="M308.782 355.207C316.848 355.008 324.588 356.682 331.913 360.092C340.39 364.038 351.753 370.528 355.125 379.716C350.268 377.246 346.604 373.338 342.677 369.644C330.998 361.27 315.464 353.508 300.768 358.32C298.359 359.109 294.925 361.622 292.411 361.13C291.75 361.001 291.877 360.984 291.508 360.468C291.719 360.205 291.902 359.916 292.14 359.678C294.951 356.868 304.875 355.523 308.782 355.207Z"/>
	<path fill="#B4B5B6" fill-opacity="0.011764706" d="M386.093 338.187C386.279 338.895 386.37 339.378 386.796 339.984C387.292 338.85 387.4 338.434 388.365 337.691C390.107 337.438 390.518 337.324 392.209 337.999C387.571 343.956 384.867 349.55 382.381 356.668L381.312 356.465L381.19 357.158C380.937 358.532 380.903 359.785 379.824 360.775C378.677 360.643 378.817 360.624 378.004 359.972C382.956 352.583 385.795 347.28 386.093 338.187Z"/>
</svg>
