<?xml version="1.0" encoding="UTF-8"?>
<svg id="Layer_1" xmlns="http://www.w3.org/2000/svg" version="1.1" viewBox="0 0 1024 1024">
  <!-- Generator: Adobe Illustrator 29.6.0, SVG Export Plug-In . SVG Version: 2.1.1 Build 207)  -->
  <defs>
    <style>
      .st0 {
        fill: none;
        stroke: #000;
        stroke-linecap: round;
        stroke-linejoin: round;
        stroke-width: 10px;
      }
    </style>
  </defs>
  <g>
    <g>
      <path class="st0" d="M687,484.9c1.1,53.8,4.5,107.5,10,160.9l42.7,9.7,42.6-103.2"/>
      <path class="st0" d="M688.9,540.5c-1.9,46.8-4,81.4-8.6,133.1l-57.8-11.9c4.7-40.8,20.8-164.7,34.1-231.3,25.1,3.1,52,8.1,76.2,15.6-.8,39.8-1,77.7-3.1,109.5,18.6-50.1,32.6-88.7,44.7-121.3,22.9,6,47,11,70,17-9.4,79.7-18.8,162-28.2,241.7-11.9-2-30.2-6.3-53.7-12.1.2-11.9,20.4-128.2,26.4-173.4"/>
    </g>
    <g>
      <path class="st0" d="M453.7,493.2c.9-20.4-14.1-39.4-25.6-47.9-34.2-25.3-73.7-7.4-94.7,25.2-20.9,32.6-26.6,73.4-21.9,111.8,2.9,23.5,9.8,47.4,25.5,65.2,12.3,13.9,29.9,21.2,48.7,20,42.6-2.8,66.6-43.1,71-96"/>
      <path class="st0" d="M405.1,498.5c2.5,17.8,3.7,33.8,3.3,51.8-.4,18-3.8,36.3-12.4,52.1-1.9,3.4-4,6.8-7.2,9.1-3.1,2.3-7.5,3.3-11,1.8-3-1.3-4.9-4.2-6.5-7.1-7.7-14.4-8.3-31.5-7.6-47.9,1.1-24.1,5-48.7,16.7-69.8,1.7-3.1,3.8-6.3,7-7.6,4.3-1.7,9.4.4,12.3,3.9s4.5,9.1,5.3,13.6Z"/>
    </g>
    <g>
      <path class="st0" d="M639.4,534c-1.4-23.1-4-47.8-11.1-68.1-5.2-14.9-12.8-29-22.6-41.5-9.6-12.4-21.5-23.3-35.6-30.1-14.1-6.8-30.7-9.2-45.7-4.8-6.4,1.9-12.4,4.9-18,8.6-24.2,15.7-40.2,41.9-47.9,69.7-7.6,27.8-7.4,57.2-4.3,85.9,1.2,11.3,2.9,22.5,5.7,33.5,8.9,35.9,33.2,81.2,72.8,90,19.4,4.3,39,4.2,55.3-7.1,16.3-11.3,32.1-31.9,41.1-61.1"/>
      <path class="st0" d="M557.5,468.9c3.8,9.4,6.3,19.6,7.5,24,6.7,25.2,9,52,5.9,78-1.5,12.4-2.8,28.7-11.3,38.8-7.4,8.8-17.7,7.5-24-1.3-13.1-18.3-17.1-41-19-62.9-2.1-24.4-1-49.3,4.8-73.1,1.8-7.3,4.9-17.6,11.9-21.6,10.9-6.3,18.8,5.3,24.1,18.2Z"/>
    </g>
    <g>
      <path class="st0" d="M320.7,620.1c-3.2,23.2-24.9,44.1-44,55.8-24,14.7-53.3,21.7-81.3,20.8-2.6,0-32.1-1.1-32.2-2.2-4.9-48.5-9.6-97.1-16.3-145.4-2.3-16.6-4.8-33.1-7.1-49.6-2.3-16.4-7.2-34.4-7.2-51,2.7-1.8,5.5-3.5,8.3-5,42.4-22.7,102.4-36.3,143.6-6.3,0,0,71.4,52.5-10.2,108.8,1.5.5,3.6,1.3,5.1,1.7,3.8,1.1,7.5,2.3,11,4.2,5.1,2.8,9.1,7.2,13,11.5,2.1,2.3,4.2,4.6,6.3,6.9"/>
      <path class="st0" d="M202.2,482.2c1.5,16,3.6,33.3,5.2,49.3,13.9-4.6,26-14.6,33.1-27.5,1.8-3.2,3.3-6.7,3-10.3-.5-6.1-6-10.8-11.8-12.7-8.9-2.9-20.3-.8-29.4,1.2"/>
      <path class="st0" d="M214.3,584.4c1.4,15.7,2.8,31.3,4.2,47,0,.6.1,1.2.5,1.6.4.4.9.5,1.4.6,3.1.4,6.2-.4,9.2-1.4,5.4-1.8,10.6-4.3,14.8-8.1,4.2-3.8,7.4-8.9,8-14.5.9-8.6-4.5-17-11.9-21.5-7.4-4.4-16.5-5.3-25.1-4.4"/>
    </g>
    <path class="st0" d="M843.4,593c19.8,6.4,44.6,8.7,60.2,14.1-2.6,23-6.9,42.6-15.3,64.2-12.5-3.8-38.8-9.2-56.1-15.8l11.1-62.5Z"/>
    <path class="st0" d="M850.7,575.1c3.4-57.6,6.6-139.6,30.3-192.3,21.2,6.1,41.8,13.8,61.8,23.2-22.5,57.5-39.1,117.3-49.4,178.1-14.5-1.6-28.8-4.6-42.7-9"/>
    <path class="st0" d="M892.3,299.3c-30.3,17.6-77.1,36.1-118.6,30.7-15.4-2-30.9-6.5-42.8-16.5-16.2-13.7-22.9-35.6-26.7-56.5-8.8-48.1-6.6-98.2,6.3-145.4-17.6,47-42.3,91.4-73,131.2-10.1,13.1-22.7,26.7-39.2,28.1-12.3,1-24.1-5.1-33.6-13-22.3-18.5-34.5-46.1-46-72.7-6.3,28.8-13,58.6-30.2,82.6-17.2,24-47.8,41-76.2,33.3-15.9-4.3-28.8-15.4-41.2-26.2-23.7-20.7-48.2-42.3-60.9-71.1,6.2,34,7.3,68.9,3.1,103.2-2.7,22.1-8.7,45.9-26.2,59.6-14.7,11.6-34.6,13.7-53.3,13.9-34.8.3-69.6-4.6-102.9-14.7,21.8,3.9,41.1,19.5,49.5,40"/>
    <path class="st0" d="M841.4,421.5c-15.4-45.6,7.7-100.9,50.9-122.1"/>
    <path class="st0" d="M119.1,515.1c-23.2,5.3-46.9,6.4-70.3,3.2,24.2,14.5,50.6,20.9,76.4,29.8"/>
    <path class="st0" d="M135.2,628.1c-20.7,15.2-42.7,27.8-65.7,37.6,12.7,6.8,27.5,4.3,41.2,1.6,9.7-1.9,24.1-4.4,32.5,2.8"/>
    <path class="st0" d="M218.9,721.8c2.9,16.7-1.5,34.1-9.4,49.2-7.9,15.1-19,28.2-30.1,41.1,25.7-21.7,58.7-34.6,92.3-35.9,12-.5,24.3.6,34.9,6.1,16.5,8.6,26,27,28.8,45.4,2.7,18.4-.4,37.1-3.4,55.5,6.4-14.7,19.8-24.8,32.7-34.2,22.6-16.5,47.1-33.7,75.1-34.5,19.1-.5,38.1,7.1,52.7,19.4s25.1,29.1,31.5,47.2c10.5-16.7,23.3-33,38.3-45.7s34.2-21.6,53.9-20.9c18.3.6,35.6,9.2,50.1,20.5,21.7,16.9,38.5,40.1,47.6,66.1-8.7-25.9-17.5-52.3-17.6-79.5-.1-27.3,9.9-56.1,32.1-71.9,7.7-5.5,16.6-9.2,25.7-12,36.7-11.5,80.5-7.7,108.6,18.6-8.8-16.1-16.3-33-22.2-50.3"/>
    <path class="st0" d="M937.2,472.8c12.4,4.9,25.2,7,38,6.4-12.1,10.7-24.7,19.7-37.7,27-1.4.8-3.1,1.8-3.7,4.1"/>
  </g>
  <g>
    <g>
      <polygon points="770.9 266.6 832.8 161 849.6 178.1 770.9 266.6"/>
      <polygon points="787.8 173.2 802.9 182 763.5 253.9 787.8 173.2"/>
    </g>
    <polygon points="268.8 803.2 170.7 865.4 184.3 882.9 268.8 803.2"/>
    <polygon points="255.7 831.9 188.7 904.3 199.3 912.3 255.7 831.9"/>
    <polygon points="862.7 683.8 921.9 773.6 938.2 763.9 862.7 683.8"/>
    <polygon points="886.5 691.3 971.3 751.1 961.4 760.5 886.5 691.3"/>
    <g>
      <polygon points="247.4 348.3 106.6 266.3 122.3 249 247.4 348.3"/>
      <polygon points="252.2 335.2 163.9 265.7 173.2 255.4 252.2 335.2"/>
    </g>
  </g>
</svg>