<?xml version="1.0" encoding="UTF-8"?>
<svg id="Layer_1" xmlns="http://www.w3.org/2000/svg" version="1.1" viewBox="0 0 1024 1024">
  <!-- Generator: Adobe Illustrator 29.6.0, SVG Export Plug-In . SVG Version: 2.1.1 Build 207)  -->
  <defs>
    <style>
      .st0 {
        fill: none;
        stroke: #000;
        stroke-linecap: round;
        stroke-linejoin: round;
        stroke-width: 10px;
      }
    </style>
  </defs>
  <g>
    <path class="st0" d="M557.5,432.9l42.9,68.3,3.2-.2,17.7-.8,9-.4,17.8,10.4h6.4s132.4.7,132.4.7c18.2,8.4,34.9,19.3,53.1,27.7,25-3.8,50-7.6,75.1-11.4"/>
    <polyline class="st0" points="323.7 98.6 449.8 384.4 456.2 431.6 441.4 442.4 209.3 207.5"/>
    <polyline class="st0" points="217.1 130.9 279.7 196 332.7 270.5 417.6 369.8 449.8 384.4"/>
    <polyline class="st0" points="591.4 103.6 534.4 317 513.3 386.8 480.1 417.3"/>
    <polyline class="st0" points="869.6 672.6 842.5 656.5 736.2 628.7 626.4 577.9 597.6 554.3 551.9 577.9 520.9 589.3 520.9 625.8 653.2 925.4"/>
    <polyline class="st0" points="520.9 625.8 495.6 608.6 468.8 634.4 382.3 919"/>
    <polyline class="st0" points="468.8 634.4 464.6 605.1 451.6 608.6 297.8 767.4"/>
    <polyline class="st0" points="451.6 608.6 439.3 576.4 261.9 674.4 299.4 720.5"/>
    <polyline class="st0" points="261.9 674.4 248.6 674.4 234.5 695.5 216.9 697.3"/>
    <polyline class="st0" points="103.3 459.4 137 452.7 182.1 483.5 213.7 490.6 291.8 494.2 332.7 510.1 353.9 508.6 354 508.6 362.8 508 377.7 506.9 385.4 506.4 388.9 514.8 389 514.9 419.1 587.6"/>
    <polyline class="st0" points="341.1 504.9 344.1 462.4 324 417.3 254.4 378.7 156.7 347.1 121.9 322.9"/>
    <line class="st0" x1="287.5" y1="397.1" x2="206.9" y2="452.7"/>
    <polyline class="st0" points="441.4 442.4 416.6 438.3 388.1 459.4 355.7 429.3 324 417.3"/>
    <line class="st0" x1="416.6" y1="438.3" x2="358.2" y2="408.6"/>
    <polyline class="st0" points="513.3 386.8 509.5 420 523.2 417.3 535.8 452.7 557.5 432.9 616.8 405.8 620.8 403.9 706.6 376.5 707.3 376.3 707.3 376.3 758.6 359.9 768.6 356.7 788.8 348.1 803.3 341.8 842 325.2 920.7 291.5"/>
    <polyline class="st0" points="747 156.1 708.4 183 572.3 338.5 523.2 417.3"/>
    <line class="st0" x1="620.8" y1="403.9" x2="572.3" y2="338.5"/>
    <polyline class="st0" points="712.1 233.9 778.1 286.7 794.5 322.9 788.8 348.1"/>
    <polyline class="st0" points="758.6 359.9 796.9 389.3 796.9 465.2 756.5 510.7"/>
    <line class="st0" x1="798.3" y1="435.3" x2="847.6" y2="352.8"/>
    <line class="st0" x1="715.1" y1="510.1" x2="637.4" y2="458.6"/>
    <polyline class="st0" points="776.7 541.6 695.3 609.7 648.3 569.8 635.2 534.1"/>
    <polyline class="st0" points="776.7 867.5 687.5 775.2 672.7 745.9 520.9 612.9"/>
    <polyline class="st0" points="756.5 753.8 684 697.3 584.8 622.9 544.4 580.7 620.8 615.8"/>
    <polyline class="st0" points="770.5 816 695.2 745.9 680.5 720.5 602.3 651.5 584.8 622.9"/>
    <path class="st0" d="M412.8,818.6s108.8,34.7,188-11.7"/>
    <polyline class="st0" points="334.2 634.5 297.8 767.4 297.8 787.8"/>
    <line class="st0" x1="331.1" y1="645.7" x2="344.1" y2="662.3"/>
    <polyline class="st0" points="401.1 660.7 361.9 621.5 350.3 599.5"/>
    <polyline class="st0" points="385.4 506.4 381 553.9 378.6 580.7 316 609.7 270.4 620.8 213.9 634.5 206.9 637.2 176.5 649 176.5 649.1 112.2 693.7 103.3 720.5"/>
    <path class="st0" d="M213.7,490.6l-32.6,44.8c-1.5,2-2.3,4.5-2.4,7l-2.3,57.3c-.1,3.4,1.1,6.8,3.5,9.2l26.9,28.3"/>
    <line class="st0" x1="113.4" y1="625.3" x2="177.9" y2="563.9"/>
    <line class="st0" x1="266" y1="494.2" x2="339.9" y2="545.9"/>
    <line class="st0" x1="305.7" y1="305" x2="233" y2="371.2"/>
    <path class="st0" d="M563.8,207.2s-92.7-40.1-188,9.3"/>
    <polyline class="st0" points="610.6 230.9 625.9 221.2 664.4 213.7 666.5 230.9 637.4 366.6 647 389.1 717.7 348.1 676.2 296.8"/>
    <polyline class="st0" points="700.8 327.1 700.8 273 689.5 247.8 694 241.6"/>
    <line class="st0" x1="751.4" y1="632.6" x2="687.2" y2="699.8"/>
    <polyline class="st0" points="368.3 776.1 347.2 787.8 316 792.8 280.1 787.8 236.9 831 213.7 845.3"/>
    <polyline class="st0" points="176.5 649.1 182 700.5 244.8 760.1 280.1 787.8 266 738.1 271.2 639.9"/>
  </g>
  <polygon points="419.1 419.8 393.4 376.6 394.8 348.3 368.8 345.1 326.6 305 284.3 283.3 419.1 419.8"/>
  <polygon points="707.3 376.3 671.5 412.4 650.4 406 598.6 435.3 603.6 501 562.1 435.7 562.4 433.6 616.8 405.7 707.3 376.3"/>
  <path d="M414.6,587.6l-6.2-5.7-35.9,14.5-10.3,1.8s-1.4,7.4-1.4,7.9-3.3,7.1-3.3,7.1c0,0-4.8.3-8.1,1-2.3.5-12.1-4.2-17.6-7l-9.4,8-45,10.2-7.1-4.5,32.6-29.2,10.4,5,64-24.3,11.6-57.4,25.7,72.8Z"/>
  <polygon points="390.7 671.5 401.1 672.8 403.6 688.2 409.3 688.2 419.1 667.2 451.6 613.9 390.7 671.5"/>
  <polygon points="618.8 698.7 618.8 679.1 603.1 679.1 598.9 666.2 598.9 655.1 595 653.7 591.2 656.2 571.1 644 551.8 625.3 532.4 620.1 541.2 627.9 618.8 698.7"/>
  <path d="M743,641.4s-13.8-1-15.1,0-11.3,6.3-11.3,6.3l-6.9,11.7v14.6l-6.5,9.2,19.9-14.5,19.9-27.3Z"/>
  <path d="M618.8,501c6.5,24.7,14.4,43,23.8,53.2l11.9-44.1-12.4-5.1-14.5-7-8.8,3Z"/>
  <polygon points="289.7 401.8 310.1 427.8 341.5 463.3 339.9 508.7 354 508.6 350.3 469 329.9 421.6 337.4 422.4 337.3 415.7 290.9 388.6 276.6 382.4 270.3 382.4 268.2 384.4 289.7 401.8"/>
  <path d="M379.5,504.9l-10.2-5.9-5.5-2.7-5-2.2-14.7,3.5-2.6,1.9s-4.8-4.2-5-4.6-5.7-6.3-5.7-6.3l-8.7,4.6-10,3.6-5,.6,16.9,7.6,14.5,3.8,18.5-1.1,19.1,1.1,3.4-3.8Z"/>
  <polygon points="745.4 361.7 756.5 351.8 769.1 344.8 783.9 331.7 792.9 325.1 795.5 325.1 795.5 327.1 819 322.4 834.8 321.5 842 325.2 840.4 327.9 755.3 359.9 745.4 361.7"/>
  <polygon points="362.8 351.6 362.8 302.7 356.1 304 354.2 314.8 356.5 327.1 354.2 330.7 345.1 332.4 350.2 340.3 362.8 351.6"/>
  <polygon points="305.5 315.4 279.7 340.1 279.7 350.5 275.4 356.5 264 359.2 259.8 359.2 253.1 364.6 244.5 371 236.9 372.1 242.2 356.9 295.5 311.6 304.6 306.1 308.3 307.2 305.5 315.4"/>
</svg>