<?xml version="1.0" encoding="UTF-8"?>
<svg id="Layer_1" xmlns="http://www.w3.org/2000/svg" version="1.1" viewBox="0 0 1024 1024">
  <!-- Generator: Adobe Illustrator 29.6.0, SVG Export Plug-In . SVG Version: 2.1.1 Build 207)  -->
  <defs>
    <style>
      .st0 {
        fill: none;
        stroke: #000;
        stroke-linecap: round;
        stroke-linejoin: round;
        stroke-width: 10px;
      }
    </style>
  </defs>
  <g>
    <g>
      <path class="st0" d="M783.2,287.1c2.7,0,6,.2,9.1.3,62.9,2.4,82.3,82,67,131.8"/>
      <path class="st0" d="M202.1,529c-29.5-6.2-53.4-32.9-56.3-62.9-2-20.5,9.3-44.8,29.7-47.1-17.7-31-16.6-71.8,2.7-101.8,11.6-18.1,33.7-33,54-25.6,5.6-23.2,17.7-45.8,37.6-59,19.8-13.3,54-22.5,80.4-5.9,27.1-62.8,85.8-95.6,154.1-101,38.3-3,77.5,6.7,110.2,26.7,25.9,15.8,46.6,37.9,60.8,64.7-.1-.3,15.8-3.8,17.3-4,6.4-.8,12.8-.8,19.2,0,12.2,1.4,24.1,5.6,34.5,12.1,18.1,11.5,29.4,30,34.7,50.5,1,3.8,1.7,7.6,2.2,11.5"/>
      <path class="st0" d="M842.8,416.4c8.6-.7,16.8,4.6,22.3,11.3,9.2,11.3,12.6,26.3,13.2,40.8.5,13-1.2,26.8-9.2,37-8,10.2-23.9,15-34.5,7.5"/>
      <path class="st0" d="M207,528.8c9.3,21.3,28.4,38.1,50.8,44.6,22.4,6.5,47.5,2.5,66.8-10.5,8.6,18.8,28,31.5,48.5,34.6,10.2,1.6,20.6.9,30.7-1.3"/>
      <path class="st0" d="M308.1,267.3c-11.9,12.8-18.1,31-15.8,48.5-12.6-5.8-27.9,3.6-33.6,16.2-5.7,12.6-4.5,27.1-3.2,40.9-4.4-11.1-18.9-17.2-29.5-11.7"/>
      <path class="st0" d="M536.2,379.5c22.4-2.7,30-18.3,32.9-25.8,5.7,10.9,16.4,18.6,28,22.9,7.7,2.8,15.9,4.3,24.1,5"/>
      <path class="st0" d="M433.4,483.2c6.4,6.9,16.3,10.4,25.7,8.9,9.3-1.5,17.7-7.8,21.7-16.4,1.9,8.1,10.3,14.2,18.6,13.4,6.8-.6,12.6-5.1,17.9-9.5"/>
      <path class="st0" d="M769.5,326.2c4.2,5.9,6.5,12.9,8.1,20,3.1,14.2,3.2,29.3-1.7,43-4.9,13.7-15.1,25.8-28.6,31.2-13.5,5.4-30.1,3.4-40.8-6.5-.1,12.8-8.2,27.1-20.1,32-7.4,3.1-15.8,3.6-23.7,1.9"/>
      <path class="st0" d="M662.7,447.9c0,13.1-3.6,22.5-10,29.3"/>
      <path class="st0" d="M530.6,522.1c-8.8,7.3-19.1,11.9-29.5,13.1-9.6,1.1-20.5-1.6-25.7-12.1-13.9,8.5-28.2,17.1-43.5,19-15.3,1.9-32.1-4.3-41.2-20.4-11.6,13.9-27.8,21.2-43.6,19.7-15.8-1.6-30.9-11.9-40.8-28"/>
      <path class="st0" d="M631.2,514.7c-21,16.7-54.9,23.1-83.6,15.6-6.3-1.7-12.6-4-17-7.9"/>
      <g>
        <path class="st0" d="M603.8,231c10.2-7,25-5.5,34.5,2.4s13.7,21.2,11.8,33.4"/>
        <path class="st0" d="M652.9,263.8c12.9-8.3,33.7-8.7,44.9,2.9,1.5,1.6,2.6,3.4,3.8,5.2"/>
      </g>
      <g>
        <path class="st0" d="M407.2,815.1c10.3-29.6,18.1-63.3,22.4-97.8,7.7-62,4.2-126.7-16.1-174.9"/>
        <path class="st0" d="M593.8,531.3c-33,80.9-29.9,183.5,12.8,260"/>
        <path class="st0" d="M610.2,579.3c7.9-.6,18.2.4,20.6,7.9,2.2,7-4.4,13.5-10.8,17-18.7,10.3-40.8,11.9-62.1,12.5-28.3.8-56.7,0-84.9-2.2"/>
        <path class="st0" d="M601.1,680.7c9.6,2,28.9,3.7,28.4,16.2-1.9,9.7-15.1,12.6-23.6,14.7-61.8,14-127,10.5-190.2,4.4-10.2-1.6-24.2-4.8-28.1-15.1-2.2-6.9,2.7-12.6,9.3-15.8,4.2-2,8.8-3,13.3-4"/>
        <path class="st0" d="M525.2,690.3c-3.2-51.9-6-117.3,5.3-168.1"/>
        <path class="st0" d="M538.3,783.6c-3-13.2-5.4-26.5-7.5-39.9"/>
      </g>
      <path class="st0" d="M833.9,513.9c1.3,6.7-.9,14-5.7,18.9-4.8,4.9-12,7.2-18.8,6-19.3,24.4-49.7,38.8-80.7,41.2-13.5,1.1-28.5-.6-38-10.3-8.5,7.6-18.2,15.6-29.5,15.1"/>
    </g>
    <g>
      <path class="st0" d="M850.7,878.1c-11,.5-21.9,1-32.9,1.4-2.7.1-5.6.2-8.1-.8-3.6-1.4-5.8-4.7-8-7.7-5.1-6.9-11.5-13.3-19.9-16.2s-18.9-1.5-24.5,5.1c0-14.3-10.1-28-24.2-33.2-14.1-5.2-31.3-1.5-41.7,8.9-17.7-22.6-53-31.8-79.6-19.4-26.7,12.5-40,46.3-26.8,71.4"/>
      <path class="st0" d="M175.8,883.4c17.8-2.2,35.9-2,53.6.5-3.9-10.4,1.5-22.9,12-28.2,10.5-5.3,25.1-2.9,32.8,5.5-.4-14.6,11.1-28.9,26.6-33,15.5-4.1,33.7,2.4,42,14.9,8.6-23.7,42.8-33.9,68.6-25.1,16.9,5.7,30.1,17.4,39.6,31.4,0,0,29.5-19.1,52.5,9.3"/>
      <path class="st0" d="M371.5,895.6c5.3-13.2,19.4-22.2,33.6-21.5s27.3,11.2,31.2,24.8"/>
      <path class="st0" d="M671,871.2c2.8-3.9,7.2-6.8,11.8-8,14-3.6,29.9,7,32.1,21.3"/>
    </g>
  </g>
  <g>
    <path class="st0" d="M354,768c1.9-6.6,3.9-13.2,5.8-19.8"/>
    <path class="st0" d="M285.3,728.5l25.8,49.3"/>
    <path class="st0" d="M252.5,799.4c6.7,3.1,13.5,6.2,20.2,9.3"/>
  </g>
  <g>
    <path class="st0" d="M680,761.4c-1-6.8-2-13.6-3-20.4"/>
    <path class="st0" d="M753.6,731.9c-10.8,15.1-21.7,30.1-32.5,45.2"/>
    <path class="st0" d="M776.2,806.7c-7.1,2.1-14.2,4.3-21.3,6.4"/>
  </g>
</svg>