<?xml version="1.0" encoding="UTF-8"?>
<svg id="Layer_1" xmlns="http://www.w3.org/2000/svg" version="1.1" viewBox="0 0 1024 1024">
  <!-- Generator: Adobe Illustrator 29.6.0, SVG Export Plug-In . SVG Version: 2.1.1 Build 207)  -->
  <defs>
    <style>
      .st0 {
        fill: none;
        stroke: #000;
        stroke-linecap: round;
        stroke-linejoin: round;
        stroke-width: 10px;
      }
    </style>
  </defs>
  <g>
    <path class="st0" d="M702.8,259.9c.8-15.6,3.6-32.1,14-43.8,6.2-7,14.6-11.7,22.7-16.3,21.6-12.2,43.2-24.8,61.1-42,17.9-17.1,32-39.3,35.1-63.9-1.4,32.8-19,63.4-42,86.9-22.9,23.6-50.4,42.2-75.3,63.5-6,5.1-11.9,10.5-15.8,17.4"/>
    <path class="st0" d="M564.6,395.2c29.5-3.8,57.5-16.6,81.5-34.2,24-17.6,44.2-40.1,61.6-64.2,11.5-15.9,21.9-32.7,35.3-47,38.6-41.4,99.8-60.3,128.5-109.1-.6,16.6-6.8,36.8-18.1,48.9-13.2,14.1-31.7,22.3-45,36.3-29,30.6-26.5,81-53.3,113.5-11.5,13.9-27.5,23.4-43.5,31.8-16,8.4-32.6,16.1-46.6,27.6-14,11.5-25.2,27.6-26.4,45.7"/>
    <path class="st0" d="M638.8,446.9c3.8-7,10.4-12,16.9-16.6,12.6-9,25.9-17.8,41.2-20.3,13.5-2.2,27.2.7,40.8,1.7,21.1,1.7,43.6-1.4,60.4-14.2"/>
    <path class="st0" d="M798.1,400.6c-15.6,25-40.9,42.8-68,54.1-25.9,10.8-55.2,17.1-74.5,37.5-12.1,12.7-18.8,29.8-21.7,47.1-2.8,16.6-2.4,33.6-5.6,50.1-5.8,30.3-24.1,59.6-49.6,76.9"/>
    <path class="st0" d="M701.1,618.1c-6.1,7.8-13.1,14.8-21,20.8-3.9,3-8.1,5.8-12.6,7.8-18,7.9-39,2.7-58.4,5.9-11.1,1.9-21.7,6.6-30.5,13.6"/>
    <path class="st0" d="M700.7,618.9c-8.5,28.5-27.8,52.9-50.9,71.8-15.9,13-33.3,19.6-51.4,26.6s-19.9,12.7-24.3,23.6-2.8,8.8-2.8,13.9c0,12.8-3.1,30.1-14.6,47.7"/>
    <path class="st0" d="M565.1,393.6c63.3-51.6,75-84.3,87.5-114.8-21.4,24.5-44.1,48.1-68.9,69.1-15.4,13-31.9,25.6-49.8,34.7-3.9,2-8,3.8-12.2,4.7-6.4,1.3-15.3.4-19.1-5.8-1.7-2.8-2-6.3-1.2-9.6,3.7-16.9,22.7-26.1,34.7-36.6,11.1-9.6,19.6-22.1,25.2-35.6,7.9-19.2,9.8-40.9,4.4-61-.5,20.4-12,40-27.7,53-15.7,12.9-37.2,18.7-57.2,15.3-10-1.7-20.6-5.4-29.8-1.2-6,2.8-10.1,8.5-13.3,14.3-12.9,23.6-9.4,49.4-32.2,68.2-15.8,13-36.6,18-56.9,21-20.3,3-41,4.2-60.2,11.2-34.1,12.4-59.7,41.3-78.8,72.2-22.2,35.8-38.1,78.1-30.9,119.5-13.2-22.1-17.3-49.4-11.1-74.3-18.6,22.3-25.4,51.6-28.5,80.4-3.7,34.5.9,69.7,12.3,102.6"/>
    <path class="st0" d="M877.6,240.8c-22.1,1.7-40.9,17.2-53.8,35.3-12.9,18-21.3,38.8-32.6,57.9-11.3,19.1-26.6,37.2-47.4,44.6,25.1-9.7,51.4-20.4,68.1-41.5,12.3-15.6,18-35.2,26.2-53.2,8.2-18.1,20.7-37,39.6-43"/>
    <path class="st0" d="M772.3,123.2c-28.2,31.1-72.3,41.6-107.4,64.7-36.6,24.1-63.3,62.8-72.7,105.6-.3,1.3-.6,2.7,0,4,.8,2.2,3.6,3.1,5.8,2.5s4.1-2.2,5.7-3.8c24.4-24.4,33-61,56.4-86.3,15.9-17.3,37.5-28.1,58-39.6,20.5-11.6,42.6-26.5,54.3-46.9"/>
    <path d="M546,222.5c-5,11.4-13.9,21.1-24.9,27.1-4.7,2.5-9.7,4.4-14.1,7.4-4.4,2.9-8.3,7.2-9.2,12.4s2.2,11.3,7.4,12.3c3.4.6,6.7-.8,9.7-2.6,9.3-5.7,16.2-14.8,20.9-24.6s7.4-20.6,9.8-31.2"/>
    <path d="M883.3,262.2c-9.6,16.3-22.2,30.8-37,42.6,9.2,1.7,19-1.4,26.1-7.5,7.1-6.1,11.7-14.9,13.4-24.1.8-4.3,1-9-1.5-12.6"/>
    <path d="M764.4,462.2c-8,10.4-18.8,18.4-30.6,24-11.8,5.6-24.7,8.9-37.6,10.6-5.3.7-10.8,1.1-15.7-.8,6,4.6,13.7,6.2,21.1,7.4,5.8,1,11.6,1.8,17.4,1.5,11.2-.5,22.1-4.9,30.4-12.4,8.3-7.5,13.9-17.9,15.5-29"/>
    <path d="M708.5,553.1c-11.3,12.7-23.9,24.5-37.3,35-2.5,2-5.1,3.9-7,6.4s-3.1,5.8-2.5,8.9c.9,4.6,5.8,7.6,10.5,7.5,4.7-.1,8.9-2.9,11.9-6.4,3-3.5,5-7.8,6.9-12.1,5.8-12.7,11.6-25.5,17.3-38.2"/>
    <path d="M686.5,692.2c-11.6,15.4-28.5,25.6-45.3,35-4.8,2.7-9.8,5.4-15.2,6.6-3.6.8-7.5,1.1-10.8,2.8-3.3,1.8-5.8,5.9-4.1,9.2,1.6,3.2,5.8,4,9.4,3.9,15-.4,29-8.4,39.6-19,10.6-10.6,18.4-23.6,25.8-36.7"/>
    <path d="M322,388.8c-35.2,9.5-69.2,25.5-95.2,51.1-6.8,6.7-13,14-20.5,19.8-2,1.5-4.2,3-6.7,2.8-2.8-.2-5.2-2.7-5.9-5.4s-.3-5.7.6-8.4c3.9-12.6,14.5-22,25.4-29.4,30-20.4,66.4-31.2,102.7-30.7"/>
  </g>
  <g>
    <path class="st0" d="M368.1,569.6c-112.9-4.5-211.6,90.2-195.1,206,7.8,54.9,43.3,104.5,91.2,131.7,51.3,29.1,117.1,28.8,171,6.8,18.9-7.7,36.6-18.1,52.3-31.1,62.8-52,70.3-146.6,35.3-216.7-29.8-59.6-88.7-94.1-154.7-96.8Z"/>
    <path class="st0" d="M351.7,796.4c-1.6,8.3-6.9,15.9-14.2,20.2-7.3,4.3-16.5,5.3-24.5,2.6-4-1.3-7.7-3.6-10.4-6.8-2.7-3.2-4.2-7.5-3.7-11.7"/>
    <path class="st0" d="M207.7,771.4c.1,9,2,18,5.5,26.3,2.4,5.7,5.9,11.4,11.4,14.3,5.5,2.9,13.5,1.7,16.4-3.7"/>
    <path class="st0" d="M261,865.8c6.8,7.1,15.6,12.2,25.1,14.5,4.5,1.1,10,1.3,13-2.2"/>
    <path class="st0" d="M360.7,889.9c.3,2.5,2.2,4.7,4.5,5.8,2.3,1.2,4.9,1.5,7.5,1.6,8.8.5,17.8-.6,25.7-4.6,7.9-4,14.5-10.9,16.9-19.4"/>
    <path class="st0" d="M468.7,837.2c2.2,2.6,6.1,3.1,9.3,2.1,3.2-1,5.8-3.3,8.1-5.8,6.6-7,11.4-15.7,13.9-25"/>
    <path class="st0" d="M401.7,793.6c9.9,4.8,22.2,4,31.3-2,9.1-6,14.8-17,14.3-27.9"/>
    <path class="st0" d="M476.3,712.6c5.2,4.6,13.3,5.1,19.3,1.7,6-3.4,9.8-10.1,10.4-17,.5-6.9-1.9-13.8-6.1-19.3"/>
    <path class="st0" d="M376.8,707.9c9.2,9.2,24.8,11.1,35.9,4.3,11.1-6.8,16.6-21.6,12.6-33.9"/>
    <path class="st0" d="M280.1,729.3c4.1,7,12.9,10.7,21,9.6,8.1-1,15.3-6.2,19.8-13s6.4-15,6.7-23.2"/>
    <path class="st0" d="M216.3,698.2c1.3,3.1,5.5,4,8.6,2.7,3.1-1.3,5.1-4.2,6.9-7,4.7-7.8,7.9-16.6,9.4-25.6"/>
    <path class="st0" d="M291.4,611.5c1.5,6.4,7.3,11.2,13.7,12.8,6.4,1.6,13.2.3,19.2-2.4,6-2.7,11.3-6.6,16.5-10.6"/>
    <path class="st0" d="M392.7,604.4c4.8,4.3,9.6,8.6,15.5,11.1,5.9,2.5,13,3,18.4-.4"/>
  </g>
</svg>