<?xml version="1.0" encoding="UTF-8"?>
<svg id="Layer_1" xmlns="http://www.w3.org/2000/svg" version="1.1" viewBox="0 0 1024 1024">
  <!-- Generator: Adobe Illustrator 29.6.0, SVG Export Plug-In . SVG Version: 2.1.1 Build 207)  -->
  <defs>
    <style>
      .st0 {
        fill: none;
        stroke: #000;
        stroke-linecap: round;
        stroke-linejoin: round;
        stroke-width: 10px;
      }
    </style>
  </defs>
  <g>
    <polyline class="st0" points="543.7 252.7 526.4 219.7 357.2 542"/>
    <line class="st0" x1="697.1" y1="545.8" x2="553" y2="270.5"/>
    <line class="st0" x1="734.4" y1="617.2" x2="704.9" y2="560.6"/>
    <line class="st0" x1="768.2" y1="681.6" x2="743.5" y2="634.4"/>
    <line class="st0" x1="803.2" y1="748.6" x2="781.7" y2="707.5"/>
    <polyline class="st0" points="272.5 703.3 208.9 824.4 842.9 824.4 815.2 771.4"/>
    <line class="st0" x1="344.9" y1="565.3" x2="284.6" y2="680.2"/>
  </g>
  <g>
    <path d="M351.1,347c-.4-.6-1-1-1.8-1h-21.4c-.8,0-1.5.5-1.9,1.2l-5.8,12.1c-.3.6-.3,1.4.1,2,.4.6,1,1,1.7,1h21c.8,0,1.5-.4,1.8-1.1l6.2-12.1c.3-.6.3-1.4,0-2Z"/>
    <path d="M680.4,220.9h29.9c1,0,1.8-.7,2-1.7l3.4-17.2c.1-.6,0-1.2-.4-1.7s-1-.8-1.6-.8h-30.3c-1,0-1.9.7-2,1.7l-3.1,17.2c-.1.6,0,1.2.5,1.7.4.5,1,.7,1.6.7Z"/>
    <path d="M499.3,346h-21.4c-.8,0-1.5.5-1.9,1.2l-5.8,12.1c-.3.6-.3,1.4.1,2,.4.6,1,1,1.7,1h21c.8,0,1.5-.4,1.8-1.1l6.2-12.1c.3-.6.3-1.4,0-2-.4-.6-1-1-1.8-1Z"/>
    <path d="M556.8,347.2c-.3-.7-1.1-1.2-1.9-1.2h-24.6c-.7,0-1.4.4-1.8,1s-.4,1.4-.1,2l7.1,14.5c.3.7,1.1,1.2,1.9,1.2h24.1c.7,0,1.4-.4,1.7-.9s.4-1.3.1-2l-6.6-14.5Z"/>
    <path d="M701.6,363.7c.4-.6.4-1.3.1-2l-6.6-14.5c-.3-.7-1.1-1.2-1.9-1.2h-24.6c-.7,0-1.4.4-1.8,1s-.4,1.4-.1,2l7.1,14.5c.3.7,1.1,1.2,1.9,1.2h24.1c.7,0,1.4-.4,1.7-.9Z"/>
    <path d="M607.9,268c.3.9,1.1,1.5,2,1.5h25.2c.7,0,1.3-.3,1.7-.9.4-.6.5-1.3.3-1.9l-3.3-9.1c-.3-.8-1.1-1.4-1.9-1.4h-24.6c-.7,0-1.3.3-1.7.8-.4.5-.5,1.2-.3,1.8l2.7,9.1Z"/>
    <path d="M379.8,256.2h-24.6c-.7,0-1.3.3-1.7.8-.4.5-.5,1.2-.3,1.8l2.7,9.1c.3.9,1.1,1.5,2,1.5h25.2c.7,0,1.3-.3,1.7-.9.4-.6.5-1.3.3-1.9l-3.3-9.1c-.3-.8-1.1-1.4-1.9-1.4Z"/>
    <path d="M506.9,256.2h-39c-.9,0-1.6.5-1.9,1.3l-3.5,9.1c-.2.6-.2,1.3.2,1.9.4.6,1,.9,1.7.9h31.3c.5,0,.9-.2,1.3-.5l11.1-9.1c.7-.6.9-1.5.6-2.3-.3-.8-1.1-1.4-1.9-1.4Z"/>
    <path d="M895.1,269.5h27.7c.9,0,1.7-.6,2-1.5l2.6-9.1c.2-.6,0-1.3-.3-1.8s-1-.8-1.6-.8h-29.5c-1.1,0-2,.8-2.1,1.9l-.8,9.1c0,.6.1,1.1.5,1.6.4.4.9.7,1.5.7Z"/>
    <path d="M648.8,268c.3.9,1.1,1.5,2,1.5h230.6c.9,0,1.8-.6,2-1.5l2.4-9.1c.2-.6,0-1.3-.4-1.8-.4-.5-1-.8-1.6-.8h-235.7c-.7,0-1.3.3-1.7.8-.4.5-.5,1.2-.3,1.8l2.7,9.1Z"/>
    <path d="M923.9,347.9l-1.6,14.5c0,.6.1,1.2.5,1.6s.9.7,1.5.7h25.4c1,0,1.9-.8,2-1.8l2.1-14.5c0-.6,0-1.2-.5-1.6s-1-.7-1.6-.7h-26c-1.1,0-1.9.8-2.1,1.8Z"/>
    <path d="M908.4,362.6v-14.5c0-1.1-.9-2.1-2.1-2.1h-175.3c-.7,0-1.3.3-1.7.9-.4.6-.5,1.3-.2,1.9l5.7,14.5c.3.8,1.1,1.3,1.9,1.3h169.7c1.1,0,2.1-.9,2.1-2.1Z"/>
    <path d="M176.5,362.3h108.5c.9,0,1.7-.5,1.9-1.4l4.3-12.1c.2-.6.1-1.3-.3-1.9-.4-.5-1-.9-1.7-.9h-111.7c-1.1,0-2,.8-2.1,1.9l-1,12.1c0,.6.1,1.1.5,1.6.4.4.9.7,1.5.7Z"/>
    <path d="M335.7,449.4h-21.4c-.8,0-1.5.5-1.9,1.2l-5.8,12.1c-.3.6-.3,1.4.1,2,.4.6,1,1,1.7,1h21c.8,0,1.5-.4,1.8-1.1l6.2-12.1c.3-.6.3-1.4,0-2-.4-.6-1-1-1.8-1Z"/>
    <path d="M753.5,468v-16.5c0-1.1-.9-2.1-2.1-2.1h-32.5c-1.1,0-2,.8-2.1,1.9l-1,16.5c0,.6.2,1.1.6,1.5.4.4.9.6,1.5.6h33.5c1.1,0,2.1-.9,2.1-2.1Z"/>
    <path d="M816.4,450.2c-.4.5-.5,1.2-.4,1.8l4.4,16.5c.2.9,1.1,1.5,2,1.5h168.2c1.1,0,2.1-.9,2.1-2.1v-16.5c0-1.1-.9-2.1-2.1-2.1h-172.6c-.6,0-1.2.3-1.6.8Z"/>
    <path d="M277.4,450.3c-.4-.5-1-.9-1.7-.9h-79.6c-1.1,0-2,.8-2.1,1.9l-1,12.1c0,.6.1,1.1.5,1.6.4.4.9.7,1.5.7h76.3c.9,0,1.7-.5,1.9-1.4l4.3-12.1c.2-.6.1-1.3-.3-1.9Z"/>
    <path d="M181.7,562.1h21c.8,0,1.5-.4,1.8-1.1l6.2-12.1c.3-.6.3-1.4,0-2-.4-.6-1-1-1.8-1h-21.4c-.8,0-1.5.5-1.9,1.2l-5.8,12.1c-.3.6-.3,1.4.1,2,.4.6,1,1,1.7,1Z"/>
    <path d="M135.9,560.5l2.4-12.1c.1-.6,0-1.2-.4-1.7-.4-.5-1-.8-1.6-.8H28.9c-1.1,0-2,.8-2.1,1.9l-1,12.1c0,.6.1,1.1.5,1.6.4.4.9.7,1.5.7h106c1,0,1.8-.7,2-1.7Z"/>
    <path d="M287.9,631.6l6.2-12.1c.3-.6.3-1.4,0-2-.4-.6-1-1-1.8-1h-21.4c-.8,0-1.5.5-1.9,1.2l-5.8,12.1c-.3.6-.3,1.4.1,2,.4.6,1,1,1.7,1h21c.8,0,1.5-.4,1.8-1.1Z"/>
    <path d="M252.1,616.4H80.8c-1.1,0-2,.9-2.1,2l-.3,12.1c0,.6.2,1.1.6,1.5.4.4.9.6,1.5.6h169.3c1,0,1.8-.7,2-1.7l2.4-12.1c.1-.6,0-1.2-.4-1.7-.4-.5-1-.8-1.6-.8Z"/>
    <path d="M195.3,679.5H60.6c-1.1,0-2.1.9-2.1,2.1v20.9c0,1.1.9,2.1,2.1,2.1l126.8.8h0c.9,0,1.6-.5,1.9-1.4l7.9-21.7c.2-.6.1-1.3-.2-1.9-.4-.6-1-.9-1.7-.9Z"/>
    <path d="M152.9,758.8c-.2-1-1-1.7-2-1.7h-75.1c-1.1,0-2.1.9-2.1,2.1v6.6c0,1.1.9,2.1,2.1,2.1h76.4c.6,0,1.2-.3,1.6-.8.4-.5.6-1.1.4-1.7l-1.3-6.6Z"/>
    <path d="M331,221.8h133.3c.7,0,1.3-.3,1.7-.9.4-.5.5-1.2.3-1.9l-2.3-6.6c-.3-.8-1.1-1.4-2-1.4h-131c-1.1,0-2.1.9-2.1,2.1v6.6c0,1.1.9,2.1,2.1,2.1Z"/>
    <rect x="575.6" y="755.2" width="152.9" height="12.8" rx="2.1" ry="2.1"/>
    <path d="M998.2,765.5l-1.5-8.6c-.2-1-1-1.7-2-1.7h-122.8c-.6,0-1.2.3-1.6.7-.4.5-.6,1.1-.4,1.7l1.6,8.6c.2,1,1,1.7,2,1.7h122.8c.6,0,1.2-.3,1.6-.7.4-.5.6-1.1.5-1.7Z"/>
    <path d="M548.7,756.9c-.2-1-1-1.8-2-1.8h-24.8c-1.1,0-2.1.9-2.1,2.1v8.6c0,1.1.9,2.1,2.1,2.1h26.1c.6,0,1.2-.3,1.6-.7s.6-1.1.5-1.7l-1.3-8.6Z"/>
    <path d="M786.5,756.9c-.2-1-1-1.8-2-1.8h-24.8c-1.1,0-2.1.9-2.1,2.1v8.6c0,1.1.9,2.1,2.1,2.1h26.1c.6,0,1.2-.3,1.6-.7s.6-1.1.5-1.7l-1.3-8.6Z"/>
    <path d="M856.7,756.9c-.2-1-1-1.8-2-1.8h-24.8c-1.1,0-2.1.9-2.1,2.1v8.6c0,1.1.9,2.1,2.1,2.1h26.1c.6,0,1.2-.3,1.6-.7s.6-1.1.5-1.7l-1.3-8.6Z"/>
    <path d="M90.7,801.2c-.2-1-1-1.8-2-1.8h-23.9c-1.1,0-2.1.9-2.1,2.1v8.7c0,1.1.9,2.1,2.1,2.1h25.2c.6,0,1.2-.3,1.6-.7.4-.5.6-1.1.5-1.7l-1.3-8.7Z"/>
    <path d="M317.5,679.5h-21.2c-.7,0-1.4.4-1.7,1l-13.6,21.7c-.4.6-.4,1.4,0,2.1.4.7,1.1,1.1,1.8,1.1h25.1c.8,0,1.6-.5,1.9-1.2l9.7-21.7c.3-.6.2-1.4-.2-2-.4-.6-1-.9-1.7-.9Z"/>
    <path d="M815.5,680.9c-.3-.8-1.1-1.4-2-1.4h-26.7c-.7,0-1.4.4-1.8,1s-.4,1.4,0,2.1l12.9,21.7c.4.6,1,1,1.8,1h21.1c.7,0,1.3-.3,1.7-.9.4-.5.5-1.2.3-1.9l-7.3-21.7Z"/>
    <path d="M459.9,451.1c-.2-.9-1-1.6-2-1.6h-53.2c-.8,0-1.6.5-1.9,1.2l-6.4,14.5c-.3.6-.2,1.4.2,2,.4.6,1,.9,1.7.9h62.7c.6,0,1.2-.3,1.6-.8.4-.5.5-1.1.4-1.7l-3.1-14.5Z"/>
    <path d="M413.1,545.9l-25.4,1.6c-1.1,0-1.9,1-1.9,2.1v11.8c0,1.1.9,2.1,2.1,2.1h25.4c1.1,0,2.1-.9,2.1-2.1v-13.4c0-.6-.2-1.1-.7-1.5-.4-.4-1-.6-1.5-.6Z"/>
    <path d="M690.4,632.8c.4.6,1,.9,1.7.9h26.2c.8,0,1.4-.4,1.8-1.1.4-.7.3-1.5,0-2.1l-7-11.2c-.4-.6-1-1-1.7-1h-26.6c-.8,0-1.5.4-1.8,1.1s-.3,1.5,0,2.1l7.3,11.2Z"/>
    <path d="M763.3,633.7h26.2c.8,0,1.4-.4,1.8-1.1.4-.7.3-1.5,0-2.1l-7-11.2c-.4-.6-1-1-1.7-1h-26.6c-.8,0-1.5.4-1.8,1.1s-.3,1.5,0,2.1l7.3,11.2c.4.6,1,.9,1.7.9Z"/>
    <path d="M917.6,632.8c.4-.6.5-1.3.2-1.9l-4.1-11.2c-.3-.8-1.1-1.3-1.9-1.3h-94.7c-.7,0-1.3.3-1.7.9-.4.6-.5,1.3-.2,1.9l4.2,11.2c.3.8,1.1,1.3,1.9,1.3h94.6c.7,0,1.3-.3,1.7-.9Z"/>
    <path d="M769.8,560.4c.2.9,1.1,1.6,2,1.6h123.1c.6,0,1.2-.3,1.6-.7s.6-1.1.4-1.7l-2.1-11.2c-.2-1-1-1.7-2-1.7h-123.8c-.6,0-1.2.3-1.6.8s-.5,1.2-.4,1.8l2.8,11.2Z"/>
    <path d="M937.5,561.2c.4-.5.6-1.1.4-1.7l-2.1-11.2c-.2-1-1-1.7-2-1.7h-25c-.6,0-1.2.3-1.6.8-.4.5-.5,1.2-.4,1.8l2.8,11.2c.2.9,1.1,1.6,2,1.6h24.3c.6,0,1.2-.3,1.6-.7Z"/>
    <path d="M903.4,686.8h-25c-.6,0-1.2.3-1.6.8s-.5,1.2-.4,1.8l2.8,11.2c.2.9,1.1,1.6,2,1.6h24.3c.6,0,1.2-.3,1.6-.7s.6-1.1.4-1.7l-2.1-11.2c-.2-1-1-1.7-2-1.7Z"/>
    <path d="M893.6,407.9c-.4.6-.5,1.3-.3,1.9l2.8,7.7c.3.8,1.1,1.4,1.9,1.4h24.3c.6,0,1.2-.3,1.6-.8s.5-1.2.4-1.8l-2.1-7.7c-.2-.9-1.1-1.5-2-1.5h-25c-.7,0-1.3.3-1.7.9Z"/>
    <path d="M755.9,559.5l-2.1-11.2c-.2-1-1-1.7-2-1.7h-25c-.6,0-1.2.3-1.6.8s-.5,1.2-.4,1.8l2.8,11.2c.2.9,1.1,1.6,2,1.6h24.3c.6,0,1.2-.3,1.6-.7s.6-1.1.4-1.7Z"/>
    <rect x="337.3" y="679.5" width="58.1" height="29.8" rx="2.1" ry="2.1"/>
  </g>
</svg>