<?xml version="1.0" encoding="UTF-8"?>
<svg id="Layer_1" xmlns="http://www.w3.org/2000/svg" version="1.1" viewBox="0 0 1024 1024">
  <!-- Generator: Adobe Illustrator 29.6.0, SVG Export Plug-In . SVG Version: 2.1.1 Build 207)  -->
  <defs>
    <style>
      .st0 {
        fill: none;
        stroke: #000;
        stroke-linecap: round;
        stroke-linejoin: round;
        stroke-width: 10px;
      }
    </style>
  </defs>
  <g>
    <path class="st0" d="M714.9,428.8c.8-27.1-16.8-52.4-40-66.4-23.2-14-51.2-18.1-78.3-17.8-71.8.7-140.4,29.7-203.6,63.8-68.8,37.2-135.2,82.3-182.6,144.6-47.3,62.3-73.6,144.1-55.3,220.2,9.5,39.8,34.3,79.3,73.3,91.4"/>
    <path class="st0" d="M182.8,508.8c48.1-67.6,113.9-120.8,186.2-160.7,61.7-34.1,129.3-65.4,200-76.6,78-12.4,173.5,4.5,208.8,84.2,33.5,75.8-7.6,156.7-60,212.2-36.5,38.7-81.2,71-129.9,92.3-38.2,16.7-108.8,40.4-147.3,13-28.2-20.1-22.6-57.2-11.5-85,8.8-22.2,22.3-42.6,39.3-59.5,16.2-16,39-35.8,63.2-34.8s11.3,2.1,15.3,6c11.8,11.4,5.3,32.3-9.6,37.2"/>
    <path class="st0" d="M511.1,530.7c-13.7,8.6-10.6,23.9-10.6,23.9,9.2,53.7,84.5-9.2,84.5-9.2,13.6-10.3,31.5-31.3,39.9-41,15.6-18,29-43.5,18.5-64.9-8.7-17.6-30.2-24.7-49.8-26.5-63.6-5.9-124.8,24.5-177.9,59.9-46.2,30.9-90.3,67.2-118.6,115-28.3,47.8-38.9,108.7-16.4,159.6,6.2,13.9,14.7,26.9,26,37.2,13.6,12.3,30.6,20.1,47.9,25.9,55,18.3,115.3,17.4,171.7,3.8,56.4-13.6,109.2-39.3,158.7-69.5,70.4-43,134.9-95.6,191.2-155.8"/>
    <path class="st0" d="M814.5,233c34.1,18.5,62.4,36.7,76.9,74,34.1,87.6-19.8,191.7-76.4,257.8-31.6,37-69.6,68.2-110.2,94.8-39,25.5-81.2,50.4-125.5,65.4-56.3,19.1-119.5,25.3-177.8,12.2-18.2-4.1-36.9-11.5-48.8-26.5-10.5-13.2-16.1-31.8-8.7-47.8"/>
  </g>
  <path class="st0" d="M690.8,156.3v1.5c0,15.3-12.4,27.7-27.7,27.7h-1,1c15.3,0,27.7,12.4,27.7,27.7h0s0,0,0,0c0-15.3,12.4-27.7,27.7-27.7h2.6-2.6c-15.3,0-27.7-12.4-27.7-27.7v-1.5Z"/>
  <path class="st0" d="M98.8,557.1v1.5c0,15.3-12.4,27.7-27.7,27.7h-1,1c15.3,0,27.7,12.4,27.7,27.7h0s0,0,0,0c0-15.3,12.4-27.7,27.7-27.7h2.6-2.6c-15.3,0-27.7-12.4-27.7-27.7v-1.5Z"/>
  <path class="st0" d="M321.6,831.9v1c0,9.6-7.8,17.4-17.4,17.4h-.6.6c9.6,0,17.4,7.8,17.4,17.4h0s0,0,0,0c0-9.6,7.8-17.4,17.4-17.4h1.6-1.6c-9.6,0-17.4-7.8-17.4-17.4v-1Z"/>
  <path class="st0" d="M934.9,497.7v1c0,9.6-7.8,17.4-17.4,17.4h-.6.6c9.6,0,17.4,7.8,17.4,17.4h0s0,0,0,0c0-9.6,7.8-17.4,17.4-17.4h1.6-1.6c-9.6,0-17.4-7.8-17.4-17.4v-1Z"/>
  <path class="st0" d="M756.8,760.7v.7c0,6.9-5.6,12.5-12.5,12.5h-.5.5c6.9,0,12.5,5.6,12.5,12.5h0s0,0,0,0c0-6.9,5.6-12.5,12.5-12.5h1.2-1.2c-6.9,0-12.5-5.6-12.5-12.5v-.7Z"/>
  <path class="st0" d="M365.4,267.9v.7c0,6.9-5.6,12.5-12.5,12.5h-.5.5c6.9,0,12.5,5.6,12.5,12.5h0s0,0,0,0c0-6.9,5.6-12.5,12.5-12.5h1.2-1.2c-6.9,0-12.5-5.6-12.5-12.5v-.7Z"/>
</svg>