<?xml version="1.0" encoding="UTF-8"?>
<svg id="Layer_1" xmlns="http://www.w3.org/2000/svg" version="1.1" viewBox="0 0 1024 1024">
  <!-- Generator: Adobe Illustrator 29.6.0, SVG Export Plug-In . SVG Version: 2.1.1 Build 207)  -->
  <defs>
    <style>
      .st0 {
        fill: none;
        stroke: #000;
        stroke-linecap: round;
        stroke-linejoin: round;
        stroke-width: 10px;
      }
    </style>
  </defs>
  <path class="st0" d="M801.2,246.9c-2.1-25.9-21.3-55.9-37-71.4s-46.3-30.1-73.4-34.4c-40.2-6.3-82.4,1.3-117.9,21.2-35.5,19.9-64,51.9-79.7,89.5-.9-35.3-22.8-70.7-55.3-84.2-32.6-13.5-71.8-7.9-100.6,12.5-28.8,20.4-46.9,54.4-50,89.5"/>
  <path class="st0" d="M287.3,269.6c-12.3-14-20.2-22.2-34.3-27.3-37.3-13.6-82.2-2.6-109,26.7-26.8,29.2-33.8,75-17,110.9-18.7,29.9-26.1,68.5-19.2,103.1,6.9,34.6,27.3,66.3,56.1,86.8-13.6,20.5-21.8,42.3-23.9,66.8-2,24.5,3.9,50.1,18.6,69.8,14.7,19.7,38.6,33,63.2,32.7-4.2,19.7,4.5,38.5,18.3,53.2,13.8,14.7,34.9,22,54.9,19.1"/>
  <path class="st0" d="M290.7,813.1c2.9,16.8,14.2,30.9,26.8,42.3,12.6,11.5,26.8,21.2,38.2,33.8,11.4,12.6,20.1,29.1,18.2,46"/>
  <path class="st0" d="M343,500c26.7,26.3,64.4,41.1,101.9,39.9,37.5-1.2,74.2-18.3,99.2-46.3,32.2,39.4,82.3,63.5,133.2,64,50.9.5,101.4-22.6,134.4-61.4,19.4,3.7,40.5-3.7,53.5-18.6,13-14.9,17.3-36.8,10.9-55.5-1-2.9,8.9-11.4,10.6-13.6,18.5-23.4,32.9-53.4,32.1-83.8-.8-32.2-18.9-56.4-45.5-72.6-25-15.2-62.8-18-84.7,3.9"/>
  <path class="st0" d="M374.9,524.9c11,24.3,11.1,53.4.2,77.8-10.9,24.4-32.6,43.7-58.1,51.7"/>
  <path class="st0" d="M331,648.2c33.9,27.8,48,77.4,33.8,118.9-5.4,15.7-17.6,31.9-34.2,31.2.7,16.6,8.5,32,17.3,46,8.8,14.1,18.8,27.5,25,42.8,6.2,15.4,8.5,33.3,1,48.1"/>
  <path class="st0" d="M246.2,710.1c5.1-3.4,8.3-9.3,8.6-15.4.2-6.1-2.6-12.2-7.4-16,11.7-12.5,18-30.1,16.8-47.2-1.2-17.1-9.7-33.7-23-44.5"/>
  <path class="st0" d="M176.1,624.4c-9.1,22.6-6.4,49.6,7,69.9"/>
  <path class="st0" d="M236.3,400.1c17.6,1.5,35.6-4,49.4-14.9,13.8-11,23.2-27.3,25.7-44.8,5.1,8.4,13.3,14.6,22.4,18.3,9.1,3.7,19,5,28.8,4.9,39.5-.2,78.1-23.6,96.6-58.5"/>
  <path class="st0" d="M158,332.9c2.3-15,10.1-29,21.7-38.8s26.7-15.3,41.8-15.1"/>
  <path class="st0" d="M338.8,212.9c-10.2,11.8-16.4,27-17.3,42.6"/>
  <g>
    <path class="st0" d="M412.6,665.5c.9-11.6,1.8-23.2,2.7-34.8"/>
    <path class="st0" d="M469.7,609.6c11,21.6,22.1,43.1,33.1,64.7,3,5.8,5.9,11.6,9.1,17.2"/>
    <path class="st0" d="M512.6,575c9.7,4.2,19.4,8.4,29.2,12.6"/>
  </g>
  <g>
    <path class="st0" d="M291,122.2c-1.8,11.5-3.5,23-5.3,34.5"/>
    <path class="st0" d="M229.8,173.6c-9.4-22.3-18.7-44.7-28.1-67-2.5-6-5-12-7.8-17.9"/>
    <path class="st0" d="M184.4,204.9c-9.4-4.9-18.8-9.8-28.1-14.7"/>
  </g>
</svg>