<?xml version="1.0" encoding="UTF-8"?>
<svg id="Layer_1" xmlns="http://www.w3.org/2000/svg" version="1.1" viewBox="0 0 1024 1024">
  <!-- Generator: Adobe Illustrator 29.6.0, SVG Export Plug-In . SVG Version: 2.1.1 Build 207)  -->
  <defs>
    <style>
      .st0 {
        fill: none;
        stroke: #000;
        stroke-linecap: round;
        stroke-linejoin: round;
        stroke-width: 10px;
      }
    </style>
  </defs>
  <path d="M751.8,194.1c-26.9,31.2-58,58.8-92.3,81.6,11.2,7.8,22.4,15.5,33.6,23.3-21.8,19.1-43.6,38.1-65.4,57.2,7.7,2.8,16.2,3.5,24.3,2-13.5,28.2-29.5,55.2-47.8,80.6,15.2-21.2,48.4-25.3,59.9-48.7,7-14.3,3.7-31.9,10.7-46.2,20-9.7,39.9-19.4,59.9-29.1-6.1-1-10.6-6.6-12.1-12.6-1.5-6-.5-12.3.7-18.4,2.2-11.3-8-20.6-4.5-31.6,6.1-18.9,23.1-40.9,32.9-58.1"/>
  <path class="st0" d="M389.5,253.8c14.6-13,29.3-26,45.5-37,3.4-2.3,6.9-4.6,9.7-7.6,1.8-1.9,3.2-4,4.7-6.1,4-5.9,8.1-11.8,12.1-17.8-23.8,21.5-55.6,31.6-82.4,49.2,3.1-8.1,4.7-16.7,6.2-25.2,2-10.7,3.9-21.5,5.9-32.2-7.9,16.3-16.7,32.1-26.3,47.5-14-24.4-29.1-50.1-42.3-74.9,4.1,27.5,9.2,54.8,15.4,81.9-16.8-7.2-33.6-14.4-50.4-21.7,10.7,13.4,21.4,26.7,32.1,40.1-23.9,3-35.6,5.2-62,11,20.1,4.6,71.3,9.6,75.8,7.7-7.8,15.5-15.4,31.2-22.7,47,14.6-9.6,28.2-23.5,40.8-32.7l65.1,98.4-34.4-101.9,6.8-6.8,40.3-4-40-15Z"/>
  <path class="st0" d="M768.1,452.3c7.4,17.6,14.9,35.2,22.3,52.7,8.7-11.2,17.4-22.4,26.1-33.6-2.2,12.7-6.1,25.2-11.5,36.9,30.4-25.1,63.1-47.5,95.8-69.7-26.6,28.9-53.1,58-79.4,87.2,4.1-.9,8.4-.3,12.6.4,18.3,2.8,36.6,5.6,54.9,8.4-19.2,6-39,10.1-59,12.3-1.3,3.3-3.4,6.2-6.2,8.4,16.1,17.7,33.6,35.1,49.7,52.8-22-13.9-45-26.3-68.8-37.2.9,16.9-3,57-4.7,57.3-10.5-20.3-14.9-34.8-19.7-52.6-14.5,12.6-64.6,41.2-81.2,54.9,8.6-20.3,49.6-53.6,60.7-72.6-10.8-9.1-43.7-33.5-56.6-39.5,16.4,1.9,60.9,19.4,77.3,21.3-.5-4.2-12.6-61.6-12.5-87.5"/>
  <polygon points="328.3 485.5 332.1 530.6 359.7 559.6 359.7 579.1 272.3 727.7 380 586.1 376.2 557.6 421 524.3 362.7 546.2 342.9 524.4 328.3 485.5"/>
  <path class="st0" d="M354,343.6c-40.6,36.5-67.1,87.7-77.5,136.3-11.3,53-4.2,121.4,23.7,172.1"/>
  <path class="st0" d="M642.5,320.9c-30.1-20.2-85.3-36.8-121.5-37.2-32.6-.4-63.6,5.6-100,18.6"/>
  <path class="st0" d="M686.6,359.4c29.2,36,54.3,88.2,57.2,138.8"/>
  <path class="st0" d="M618.3,738.8c-22.5,11.8-46.7,20.1-71.8,24.1-75.7,12.2-167.9-19.2-221.2-74.4"/>
  <path class="st0" d="M724,630.7c-18.5,38.2-47.7,70.9-83,94.6"/>
  <path class="st0" d="M197.4,562.3c-14-.2-28,.6-41.8,2.5-1.5.2-3,.4-4.2,1.3-1.1.8-1.8,2-2.5,3.2-8.2,14.7-16.4,29.5-24.7,44.2,18.7-9.3,38-17.5,57.6-24.5,1.5-.5,3.1-1.1,4.1-2.3.7-.8,1.1-1.7,1.6-2.7,3-6.7,6-13.4,9-20.1"/>
  <path class="st0" d="M191.8,475.4c-.8,12.2-2.4,24.3-4.8,36.2,16.3-7,33-13,50.1-17.9-15.4-4-29.9-11-43.2-19.7"/>
  <path class="st0" d="M156.3,424.3c15.4.7,30.9.2,46.3-1.5-15.6-10.4-30.8-21.3-45.7-32.8-.8-.6-1.6-1.2-2.5-1.4-1.2-.3-2.5.1-3.7.5-9.2,3.2-18.3,6.4-27.5,9.6,4,4.6,9,8.1,14,11.6,6.9,4.8,13.7,9.6,20.6,14.4"/>
  <path class="st0" d="M193,749.1c.4.4-.8.7-.8.1s.6-.9,1.2-1c13.6-4.3,26.5-11,37.9-19.7-1.1,8.6-2.2,17.2-3.3,25.8-.1.9-.2,1.9-.8,2.6-.5.6-1.2,1-1.8,1.4-15.7,8.9-31.4,17.8-47,26.7,5.8-12,11.6-24,17.3-36"/>
  <path class="st0" d="M141.9,685.5c37.1-21.4,74.1-42.9,111.2-64.3"/>
  <path class="st0" d="M174.1,317.9c38.2,19.3,76.4,38.7,114.6,58"/>
  <path class="st0" d="M581.4,183.8c-5.1,22.5-10.2,45.1-15.4,67.6"/>
  <path class="st0" d="M373.8,778.3c-24.5,23.1-84.8,64-84.8,64,0,0-29.1,58.6-42.3,84.9,25.4-25.8,89.1-71,89.1-71,0,0,25.4-55.5,37.9-78"/>
  <path class="st0" d="M474.3,804.5c-9.7,8.8-32.2,28.8-32.2,28.8,0,0-1.1,32.9-6.5,46.8,7.1-8.9,29.4-26.3,29.4-26.3,0,0,7-34,9.3-49.4"/>
  <path class="st0" d="M612.9,802.1c10.9,6.8,26.2,12,37.1,18.8,2.7,1.7,5.5,3.4,7.8,5.6,3.4,3.2,5.8,7.2,8.2,11.1,13.9,23.1,23.2,47.9,37.1,71-10.6-12.3-21-24.6-31.4-37.1-4.3-5.1-8.6-10.3-12.8-15.4-2.9-3.4-5.7-6.9-8.6-10.3-12.5-15.1-24.8-28.6-37.4-43.7"/>
  <path class="st0" d="M734.3,737.9c-.1,15.1.5,28.9.8,48.9,3.1.6,36.2,12.8,48.8,19-2.5-10.8-3.4-40.7-5.7-43.4-1.1-1.3-33.3-17.9-43.9-24.5Z"/>
  <path class="st0" d="M869.3,203.8s-38.5,14.2-58,21c-.6,3.1-12.8,36.2-19,48.8,10.8-2.5,49.5-14.7,52.2-17,1.3-1.1,24.8-52.9,24.8-52.9Z"/>
  <path class="st0" d="M706.1,85.7s-51.3,48.3-63.6,61.6c.2,3.2-7.3,40.5-9.9,54.3,9.7-5.2,43.4-37.5,45.4-40.4.9-1.4,28.1-75.5,28.1-75.5Z"/>
  <path class="st0" d="M761.5,696.6c33.4,19.4,105.9,67.2,110.7,70.8"/>
  <path class="st0" d="M565.5,846.4c7,31.1,15.9,61.8,26.7,91.8"/>
  <path class="st0" d="M607.8,695c3.3,15.6,6.6,31.2,10,46.8,3.7.4,39,29.8,53.7,42.1-1.3-11-4.6-37.1-5.6-38.9-1.5-2.6-46.4-39.2-58.1-50Z"/>
  <polygon class="st0" points="802 334.2 794.2 369.9 842.1 348 802 334.2"/>
  <polygon points="531.3 598.3 487.3 618.3 463 662.1 458.7 666.9 465 671.9 475.9 688.3 428 740.3 417.2 744.9 417.2 747.9 446.8 757.7 454.7 740.1 452.7 733.3 493 683.9 475.5 666.1 491.1 628.8 531.3 598.3"/>
</svg>